<mxfile host="65bd71144e">
    <diagram id="HIP3nbAZw_EuaXWnEj3U" name="Page-1">
        <mxGraphModel dx="866" dy="759" grid="1" gridSize="10" guides="1" tooltips="1" connect="1" arrows="1" fold="1" page="1" pageScale="1" pageWidth="850" pageHeight="1100" background="#ffffff" math="0" shadow="0">
            <root>
                <mxCell id="0"/>
                <mxCell id="1" parent="0"/>
                <mxCell id="7" value="http://ics2o.mths.ca" style="swimlane;whiteSpace=wrap;html=1;strokeColor=#000000;" parent="1" vertex="1">
                    <mxGeometry x="40" y="40" width="760" height="480" as="geometry"/>
                </mxCell>
                <mxCell id="10" value="" style="shape=image;verticalLabelPosition=bottom;labelBackgroundColor=default;verticalAlign=top;aspect=fixed;imageAspect=0;image=data:image/png,iVBORw0KGgoAAAANSUhEUgAABdwAAAPoCAMAAADz0MzXAAAC/VBMVEXL4/F4n7Y0WXCzz+D/z1e/2uq00OG/2+vl6XfL4+7l5Xjl7Hbl7nbl3Xrk36Tl53jl4HnO4ubl2Xvl63fJ4vDl43nM4+zl0X3l1Xzk4Kbl033j4KjN4unH4O/l4KPF3u3D3ezM4evlxYDC2+rl33ri4Kvl23vS4dnl13y61eTN4+q+2OfV4dHh4K3P4eHT4dbR4d67t4bP4uLc4LzG3+7U4dTdw2/a4MHg4LDd4Lje4LbR4tzl4nnl8HbW4c3l0orl0Yflz37P4uTz1H3l1JXf4LS81+blzX7b4b/X4czl5H/Y4cjl53zlyX84XHLl5YXl5ILQ4uG20N+30uLl05Llx396mavY4MVhg5fl53nl0Y/l0oTY4cfl5Hy41OPl1JDl3Iblx4Dl4Yjl5IdwkKPl5n/l0ozl04/W4c/l1I1LboNDZn1XeY5Qc4nl3Ivl0YHG3u2cuMk/ZHrl2I5sjKDl14rg4LKMqrzl3X7l1ZPY4cqtydjl4oLl4YXl4ICjvc7a4cPl3IHl4X3l3ovl2X/l2oo9YXjd4LpJbILl04efvMxGaoDl0ZNef5Q5XXW60+JniJvl3I6Xs8Tl3oZ8m67R4t91lajly3/l1oVZe5CrxtaZtcbl2Yfl2YOUscLlz43l14GoxNSkv887X3Z3l6rh4K+RrsCaq55/oLGxzNyCobOPrL5+nbDl3oHlzYjl4IvZ4cVOcYaJp7mFo7Xl2JGwytppip3l0piHpbdkhZptjaJUd4zNvXrl1X1zkqbmxmh7oLNTdYrl1IrsyGTl4INbfpKmwdHl1YensJT7zVrWwHTl1pDHu36SqKOKpaj2zF3l3ZysspHl5oLyymDl1JfRv3egrZm3tYmCoq7l04GUm3iFpKy/uIP502rlyoTM2MzgxGzv0nz5z2BZcnR/jXVmfHS4uHjDuoGpqXhLanJBYnGytI2dpHd0hXbKyHj203PWx36zr3rY0Xqsv72BlYnb1nmQoI7cwX+7wZrX16XHyZ3R3M1xio3B0cewxcepAWjXAAFCcUlEQVR42uydy0tcVwDG76YWN0LhEih1nEmHUiaT2pBO6ENoISSSWsGIFqm0Ri3GunEjFlI0pBXJJpsgQhcprrpM6qLQfQlkkU0IWedv6Xfez3vOvXPHgub87mNudKa2Xfz88t1zzs2GHNqZQ1t8L/7W+CdbmUbzbYNmpugOueQZyOeGPPSy4n9uI1M0hlyWsnI0h4qYLPH2PEskTj/DlHPnzl+4MDr6zjvvXL08O3s4MfHhhx9fuXLx4pdffv3LN98fL3wKbty48Qnj/v3PKV988cX169d//uyzPz/66KMPPvjgPfAuZQSMEa69r7Py7et/iniF3cO1sty5cweHzd/YozyMsWfz119/4RRgFTvlxwrM/DhTTHaSbgceD2c6LVPumvjzIZduwLFzhjvztv9XBugG/kti9AJ2j7x9rpclEmcCoXf4fRR+h94vj89eugS9fwy9/0T1vnBM7S7FDq9LsxO3S7kDJneu9yNL7kdesRd7/VVJr0PsXoqFzs84th7iFVtA7mQDD6m49xgBsYMfscHveMFGJB/yPNzNzlXk3i6fV7t9Rd1uFkzu8eAOuvF/ndz6jRH+rTGX1bb7ki+Y5x3x7U7K7YkzhEjv51l6h9/Hxw8vsfjO9X58j8udm/26YXaoHW5njMDtghevDbevrDzwWB2nmNXjcvcTSezY4fZKwR2Cp4RzO3Bj+2qR2uNuB1k8gPYCWTXGpPuxRkjuvXhwLy5mmqZXW57cXjO6g3ypgt1BcxIf6HSbWSJxhlDh/TzCO7P77PglofeLRO8LCyS8w+5U7tTsgJtdqZ3Edin3sVeRViaQ1mu5PR7c6YZ9C3IPh3bldq51SkjsQu7U5ziwIb9HgvtMhOwk3B4ydCdzA7Yijwb3aDGjyJutVquXh7oiRT4AuzeyROINQcqdVzOinDHT+wLCO7c7q9o/o2a33K4Fd7OVWXFbGc3qVSFNTNDtz58/J0eB3be2thDaidrDbG5u7ukot7tSx0nBvK7OOPmYYecYN29mEWErP7uSjtOOR+SWUbnHg3u8mInT7vezrt3TLdPEm4khd1nNiG7mY3ZrFXa/J7M7lbuR2gG8TjbJi/eDrYwm9qpyh9npjqPI7YwCseOgZscpKPaHe3C7i2t27Cblb6OW4KYl96U8aDL7rXE8H3Z+QD/BHSyFixmX2IcrxO7JwuyeJRJvBtY9VRHdIXdqdxneYXeid2p3VsroaheMCF5ZbjdbmVhij1cxMbUrueuW3+KwTqaITc6eD9vtLoMTO7gJspN0ey8YkF2759HgrugFipkoTX/NVN/u3SyROF0M+6h2R3WUuf3qOKBy18fNHB/D7jS7I7qLVkZ17fA6DsbYyMhisJXRxV6/ZZ+fF1e3KFLuVoTfEtBShmI5nZ7Ku33VR9zp5RK7IgsLG26vIdHJwGh0985nK48NlTHo9l0WgU696I4f7mcuSyROE8NR6Jtiw2XEHVVaunO5i2bm+B61Oy1mRC8jcrtRyYyNjYw9seTOW5kHdeR+x8u8cPstwXMLZXZldxzYnLQedXt9tVcwuyv3XsjOrqLj5GV7i7zXbDbyyESjbqlfPK3+o3snixIf+p8GsydOEcM65wTDfgJD3WUpA7dfkm5nM5q+/36ByF3YHdldBHdtBCS0Tge5v1jxjZUxevcqTsfJUTo/gPK66/YtoMSugjs24Kg97vZVQE9+tRf5vbrTFVmfbu/3dmr/tUdebhhP3v9PaA7A7u0skTgtDA/nhtbPC3AdUb2S+zlu96uYqTpO3S7l/hNJ7nREJBnvruTO7Q6E2wE9vfK3Mg+wk+3aPzV7GCAvb5kYavdDzb65tVmsdrjdJ3gMmFmN0u+d00KygLC7NdPpUp/qjQf3+sVMI/LROK1UuidON8Mc6XXEcM75C/iKo3qv3PFuLbofsoUISOUuliKQckfrfh1yF9FdjZMZkxyZwR1jZcRGKOP0+TvXIG7b6TgEzPG3HEJqV2ziMK0eD++rZAuyu7vruj3qdMvrL9lJ/Tkb4KID8WQ9OcDgDjo1iplu5KNxeknuiVPNMIOb/QIY9cJ8T+VvBHr6il8D1kB3R+60c5cDZv4UcpeN+5jite521sowtdPcTrYwXN2G2V1uFRB1+yY59oNix2GrnRBK7LuEamYXzFhyf0nAFb3M+nF73/rsDTC4g0bFYia+CEFtu6eZqIlTg5HbmdnfgaVd8FXpebhcJnp6xheM2l0OheRyX2ByZ+NlyC1V2cu4cn9htTJPlNphbug9Are59Lpf7PMBt4OA2vf3t7bg9oEG913b7bvBcTFC6ThcXhpkRcJu1XM7CMuzfnAH7RrFTLd+Y95wi6cskTgtKLlLt2tcFTimF6IX4FrK/TKt3Y0lxIrlDky5ewZCQu4A4kZsZwRSO29gImm9z+C+zygt91WxBdHUvsuY8eMRufslV+7d6osO1L+dWj+4g07/v3/yKkM8G3nBZNXUyiROL1otg24FSK9TTY+P44S7pOP4A07AVv0o87r64GW83RnovqDJ/bNQcrcHQq4sIrRLobMLr9shb3oq9vp81OzYI27fIlt5t8s25iAodkC9jsROt0Bap7xUKg+4fW1t7WVWf0GZ8t7NBxHcG41eIw8XM40ybm92y/0SabTafBx+LzrJay6tP5A4VQwTZHRXcr9MGKfMEvCCkwDfsUyvPjYra/crzO4sunvlDowbqi9WrMqdxnaR3BmW1cPcqsJzQUFkx6uW3b0R/mDzAEY/oBt2pHZceaTuMiMuQmndze0vbdYUU5k36Dbqu73h+3T94N5r8wlP/RYzjWb7rckOnOwndyZY6bQbjt0n0yj3xOllGAi9i+4cULnPUrNfsjiUr/g2lT6N+DTk44q4XUV3tjqkO9BdDpdRcvdX7rC5KGZwADOtB7ROT33IfcPN7jyyS2B2gnUj9QAbgNMpePGF9l2wansdG3/Z0b2uy929ccpe7LSuuX0qm2xkFRcd6LvSbvYf3F3X9ioWM01IvWO9Ob7GwdsgovduehxH4vSCke5GegcyhVN1U5lPED7UmGAI0R/OHo7PHlKxA7zVnKO6cAy7B6L7GGdeUzur3InbBUru9CKY1yH3Sm7f2NggXscRKNsFm/wlmNwPENzpHgjspuJ3dnZ4bt/ZQQsTwHX7GngppL7G8Tcqdd0O5txCu35wb7mPzsvDxUzebL2lST1Ow3yak4tj8MYk+7+T+vbEaWQY+G6sQu8o3OFsj9xhbtP09EReJ+Qb1DQmjHS/d8Mb3fViBseRGdxXHhQzH0G4fR3Mr69H1A5YbDfkvu0J7mZ+16TOkjuVOk5gdRUHXsNyp3EdB8w+g40TErvq3X1pHayF5N4cgNtbnjhdO7g3fGu/t7zFTKB9KRvd87f9tHx/LWimtdwTpxVjTpKR34XfD6F3TdtxroCLcDt/ouqxmsbkDoZU2f2JPcq9ntvXOXG3AyJ2Pbhvb2/jhA1aL2LTZHkZiZ2xx8QOwmqHyHEIs9PjJva42sGUFDuE7iMS3PsulDueTFw7uNMkHSxm6jPnut21eyJxxtAEz2Y06X4fF/ld2v2K4CLnysUr5te42onbw4Mhhd2xv7Yqd7/Wo25fB+Qk9R6wOk6C5ziY1dnBr/bBVsjtB9D63uYy2MPBShkJszoOL7A5NmX2m6VyO1wuKhjOWmm5R9zep6M79Rt3v2PzoYEScztIM5USZw9tUQFxf9VYqH1c1enS7helxyVfCr6G2H/5BmpH486Du5S7nKRa+KCOFXDUR2anXpdOt92uLjcATjawOXbudklhcF8mG14Ie2w7MNkNseMjJvYpkdYVazXlDrfXWxK3VTu4NyzHqgpokDRFvR8gdTCJs4kheDPBXyVDYSy/c7Fzm3N+gdNhdWgdfczC8T2iduZ21rnL5M71Lvw+tmjJfdG2+oOg1XF4oVbnyLTuZxtwscfdDq1TuNgpB47bscfdPqMui6VODkvrYK2YuGDLFebxp5Sil877C+4huQ++mGnwcTJB0nj2xFll2Ba8XsHD71Twht5/UkGdOX1hAVZfuAetgxswu1Q73G7LXYX314bbMcpdJ5LWcfIDrytoWg+ZfYOa3STQuC9T9pjX93B48HsdO8DJxOt1gNPaVFzr8eTev9urZOm5jsbkW4xAcHeakrZvsml9VL2fipnEm4q3oxmVk1APD7VHcsDuXO7M7IBrnXn9Psp2mJ2qHW4XD2NyHqFqjHIvL/f1GMrxGzGz05eybl8GsmhnfvcRSu1Rt0uRYzNZixNZqrc/tyOADw4tJBcKtjk0MDo8uEfIEokzzbAleCz/aAhe5neZ3pndaWRXgf0+xG6a3XmKqrC7M4WpnNsXGQGvo2qPux07OeK5/dHy8v7+MoFV7pSI258+xf400rU7bjdVLv2+FmN6epqeIoV51Ympg0/S3UzRLKxGukODos2De4Q0XynxZjAsUB2NzO/S77rdWW7naqdih9l5H8PMrncy2vOYrpmN+7dHJeS+KAiFdgJxexio3Yet9keQO9jXtB53O8RuuT2e2z05vYzapxVeN9dyO2ifRHAHebuoGcnnBhncVQGUhkMm3njwgD1D8HwUDV/ed8KYsAS7o3C/R+Su3C7N7qpdHy6z6J3CtEhPwOd0sB5RO1p20bcH9P7vv9uMaG4nwR0bKOv2pwwp+bjapxyK3T5dTFzOcHtV5k4kuIPcsuvAixl1OzX1MomEJ8Nrer86zvWuHpnKsrsmd13tH1BEH8MZkdhTmJjaXbdrYl8Xco+zETI72PbimB07ZT/kdgU3O174VQm3T3nwun06QualW8vtvcF4NriQV9Nzo6A+Sz2t/0njZRIJv97PjXK7y6em8jurqGZ4MSPlTrt2I7QD7nUckuIpTIsE6XVL7rrbA5oPiD0gd6OOwYm4nSf3uNxpWn8qYFc7RWjjYny4bp+OEy1WullluoMP7opGC7iL77YG8tNycw2bNNQ9kXD1blYzbnbHTVUS3aXcVW5/Tx8ig11HX+9XVO6LVOw4B4HVBRGx3waO3MF2KLg/0ln2A7frin/qoNR+9+7dHZupMGt9uB1kBeTtDl0MK+ywvNEjNPKTGisTyseD7NyXOt0u+ctAknsiEUA1Mzy6k6emHophMyK6kzV+PzXlrtxuZHa1aNiYZ34qrC4ND+KG93rdlLutdsW2D9vtAb9H5U7VDrk7Yo/J3Xb7dDmy/mloCmwjS5/AnKLOSf9loQOpy8lVltzTSPdEwobJXbbucDvsPiGKGfVMbFPu+vhHQ+1jEnOwDEBgP8JWSuw8vBfVMLcVG5SvCPB51O2PXPxSx0bU/rjA7TvC7UBavSTaYo/TlairdkUzP4Fapn0yLf9cZ7LbbvYyiSv3NBYykSh8ctMF3rrT5zUdXtKiO+tlHLkrt4/ot1HHRrzPT8VYmdeQO9xeSu9m334brPvUDpjYb4flrsS+HXC7C1E7jsdFpcxdBhV7VX6ArCu6/busP3Kf/honMBKynEOXKrQvrcLVeVMtk0iUkDub0GSNd1etO+tlbsDuXrkDK7f71/tdPCLJvWwjA2B1iWt2JnRu9bjbHa3H3c7M/li4HVf8+q7ODqGK1QkVrc7p0+1tf1UxyDlMFRaRb5drX7ISpNEyiUSZ8TJiNhOP7uqpqXovI+XuXU2GdO0Ke37qIrU78nvU7ThuA3ra0NxOXqXYhdwh9rjbf6/i9sfYsTGb0+COSxyAit2S+287v1UQO5V7Na/Xk3semdqDO6r/Z+3eiI24qUIa555IxOSubqnC7my0u2v3G8Lu9g3VESF33e4vrPmpT45KNe7K62CDy90N7AqIvFQn46VA7exCIlL746ea2Kt1Mj8Ir4OKXlcM0u2g5T6D9eRr9079ITeKNEM1kShjd32lGeid9+6m3Y3ncwC7dB9TvDAq92+/PUJyB4Fi5raFqmGCage0mPG4/dmzZ9vPSG7//ZlP7X8sm/yKTSZ3F7jdYQfBvYzVFaWs7qdeJ+PSG/A0JtCsuwRlJ6tCWlsmkSjG8zztq0LvE1p4xzM6ZDNj2V3L7oprjtxpcieOj4udJXaXr4qw3f5MQh3vd7uS+x/YfmV+f0zOv/762MURO+lkRHC/G2hhNEqIfaByb5boovPOIGep1h3iXilmp1UhE4n/2Dt7VSeCMAzbqVsYhRzBIkSJIFFRkdgdMI2ioIWoiEYFQcQbUIKIkBAQbSVwCiXBUjRYeQs2FhY2WlhZ2Ahegu/sN+63szM7s5vZkOQwz2Ynx5/6OS/vfjvj0jsgvafKmSvj5F1VeqxKx2JTeM9MzOjZ/Zoq98uTGAh+oondBbfsbrd/zvBIpPbPZrVLuSffA1gdK3j1wSZ3JjY7FqH2oaZ2HZvV3XiUMva+onn+6sJrdx68rLCYCfu5BwJW9PO0hd5jv586leg97mZoIjJ5rMrhHXqXcpfzkJOU2yH3n7KTmYBybmenO+X+4oXmdoR2fGliB8LpcsElnI6bzD4o5HYoffhUrACr2+3Wbt1NbUdpDpaaEWw0U7SOpTjfZlzbAviOuLcrju6tHUui0TzY2ontF8KsTmBJ6PsAc/su5iJFOcN6v3FD6WY4vGvzkDNd7kBvZdxmx6KDlp2RjfsLmdzpi3gt9A65b6XFLup2fAEZ3Qdv4sgOPrwSSwG5w+eybR/C7M7Yfilf7Vjc1Gq18sm9voBHjQ2PXuWu51NZnZU9Q7Xe2ZnQCnP2geXCfk+NvbPeqXqn95mom1FnInlPSJqJ/KnKfTZh/kv9lk3qJYHaic8MpfYtgXT7FsSOi6BeBitEPwCx1QcSm9fV+A67D4day+6O7UWdzixgShD/qfKDmzq+W8c3Spt05UqZRuaXaEjvgeWixPf9sn2XY+94tKqGdx6K5Oady5k9X61y9+xhdGB1o9txsdzxI5tdCe4adrMzMLvAlNb93V7L4F9G+8faxvzvMjU8ensH9RUbg+yE96gCq8Zuafj0IU1x9c7hnaYiqXnXwzufsae6/d6EWYTTjXLfSiDDw+1GBjoutw/TQOsuymi9ZmLXPHL32FLL58TV88VH3K+2qylm6ivu9mD3wPLZrQ++o5q5wtkd1YzF7nvEh+TOZOWOT8VmZ9jsKm/EpTFAajdS3O3AqXZvs+/aVQPexvOXX2P+1vygsaBveBYzPNC/sp0M0Qp2DyyR3UozI4/wAOIID7Y7T80YNiMgt0PxmTH3nxOF6pzudjtjjuyLdztPsJd0OpH80Ucy/nLn4O6mU3DEvZ1TxLfnjMur0XS3Vqj8D2wvdu/OKhtLSbiXoSM8OLpzMcOvq+rbiB24ZpP7/Grvdl+UlDvn9tJuB15qZ7dHkTWtu9ROyyLk3qoyuDNXda0ey0vonsUMUxdvbK3AjEonbF8WWBS7feB59/3KQCTeZ8r0MqZNIgH17oXkXjqxd+F2O3nB3dS0zxHch0QZuUdRhNvm9fzYXsPFnq9e7qCa4O6O3p1chddt2b/8aDmJfZnT5a2wC0KgQgpKO14cHAJHgbbTDE+7K8md5c7ZHdxitQNV7mXV3mVeSLogX++2QoYZ5KKrvT8kSrh9I2J0q0c1B7v4J8nya5mOSdBm4R8rMOJ+l8t4w7+tK/WVe5sqsL5oDs+oGgvAzwTJG6sKHqCS04l9QLymekKofSxzOwf3VOf+OHOiKnI7mCjDMtdnitxxny3r9viLxE5YsnsFbu/3+4nY+7lyz/P6xgaWO5G8NLfD9jarUxezgnJvGwoY8rZrC7GWLZ23zb8d1pRm2FY+UA261A/J8E22JmHb2GeCEjvt/ou6PfdcpnOZE1UBTcykXlBV5X6WluJq1+HcbiA3uE+zYh+Zipl+wrP0V9HcviGJ8EnQ1J6b0U2uZ5Y9Ctk0NysN96tIDau+zcXMurYYzRV7VzawtrDYyemx0V3mhroBFnAaN3EawOdYBFeujMdC7EfAyfRp2TeocKdJSK2UiedlQI7cz+IjlsJex6J6HR9L975lYDrNyn0wxfXGJHaWO5t9iGset9+JTH07/s6Y1vNyfIqqt5YBDd/gTr2Kq1hp5z103YbFzMEg90Dlat8PrWtKJ4WfJnEDSPsEyRsfwSmhcHgcxAt8jqgOjpDW4XV53B617VTJoJPR3M7DMlh+WpJ7Ebl3jZDT5bf8OS12BPeM2EE2uI9GIwruU13vWUjt/WKVTGL2iAv3m5EidsBC5y/gIXeP7Qfq/sEdHHPU7gdde9Cc30bFTJB7oNpT8mK1K16H0UUG/29zSJztTZDAcauclJwhqYOHJPbY7DK1Q+1qJcO5PSZP7uT1iVPqbrdnHrH2YHLcGabEG/GB30cjmF0Cu7vMDtjsOhmv4ybuRBtZt8c/CdzPUS0sYeMwZ3Dnf9Jp2UfcGfyP7VPMBLkHKiH9NilIeR1WJ6eDsfS5pnD2OHMckNLhdHDx4hPhdYrsyOyx2Tm1q2d24JJ2z+w+ALnPJrhnQuxS4rrYnUin00oksZ303tPlzowEb3ARVq0TQ2CsZTY3NbGb+3Z5S2xad+IjGn/dNEvqG3QcI+5Mc/sUM+GBaqBCufMu7JzZRV4fj6XWKZ6z0lnkzEOSOfkcRhdKF1K//THO6+CCanYekmG1J27/qssdzB7M4PCZuLqTLku9PPC7jPC9Xg9L7HVATv9ucvtomoid3Y6vfj5sdk3tcPumYMNElIPD69XLvb744E50LFuIdYp0Lse2TTHTCKOQgSrI7sHOwR3gJCUlsqe8nhidlQ6fk9HBDSgdTv8IqZPVofVE7GR2o9oJXe73LsexHUwgdiAelM4vdig9LmZ6AHIHW3Ilpcc3rixsdpZ730Zs9sOHh2n24trchN/93c6jj8XwiJELbNyJVv67TG1rKLdm/7V8ZX+1Nh8OrCuK3NnupwHsToWM7vbE7FLrMRTUAaROVr8Aq7PXSeww+zkyuzraLk9RTQ5j+paVO9PFhdzOlBc8pXUFSu4U2+Fx3Fojg1sBaifyHqNC64fBkGHTG90eASw5eIR2ovIDsv2DO3M+r3ZvWaztKmaurmOT0QytTKAUjZfv73+6/+5tXbc7b8CeDu/gCvw+tvkdeucahtzOcZ28Dp4/f85mf2xQOx+yB+Tx2GotE8t9gjYGdL3o5fL3968/f379+PL9+1RnZKYvrhzg9n58sdgFIrpv7o3NrridvG7BU+3A831JvZTxD+5M/R975xcSWRXH8csvHCqwPzJBRYNDE+Ew0B8Q6iFqg9rqoQu5NQ0VC8E+OS42IrnRgxQhojiKlLEKlmmiJksWSrqbsA/Oky89FCixLzqbM6yL9m93o6Izc86d3zlzzr1n7p0ZHDc/szvrynHO9Xj9+PN7zz3npDp295eat0SUwU4kdOguq/prafXhQ8lwJ/KNUVMEOjkGjYrQFwdK66jS7lTvdMYMRu8se2fzG0XDYwFvpTIYsWMWQ4t2Fsfwbke1s8uouAdTjveKNtnLqT3PMzq5b+4i+1q1I5smUNJ7Jcn9AzS7GlK2U1DsBJLL5JDq9tt1eFY74k011bs5taQNUsP6TbDxp4Oa8PHQoYo0mo8K9/KIAhIzaopG4HjfqATvm2DRM+iwfRKBrQrDoHPc2bwZAlM8obiIx4kxViqDlTvaXSV33u30wcv9bSZ3y+06uW8BsolKJ0+OXIECWxtatWMeoxJ8fX39mfqHJKjW1W6vrtpR7pVLZoJGZQp3JOgrlaCH7bNPhusaa9SPocVU31jfxGKkMBJH8yCP5F4yQ4CsysE7Cp7m78zwguTzNzGxCe+qpMaKaV7K36pEy3cpcid2z+mdt/t9lEImc+Ov6z/8cP3x9WtYuKPcCcfcyv3NUmjPArKzUUYoU095SOYuUe56syPlqB3xGhNoXOOpcJ9bW4tZrIrBysoaMuNmtfaIfinhcF2wtix54rtYP1jE16b6GvN2/z8uCRmM2bJ0JHd7OgBp1awdhiuGoeKLKnl6eyqNa1DzzPF5wdMK/nUrfse5MopZkOj267+nUbKZ9OY+u55K5I4XU8+5kPubpbGxsQ4c2xul1u0PE7hqPc+Z3CNv83pB7F7dfqfC7bd6wntQGJK3sSizcO9UnZE0WGkFZKnUfZbw4/WE62okiA+MX4RikgPTxO+N/8O6vQ5s6TmSuy0B7UCh4GXH04UJ0PKo+VwtXwjl+VVk0PBv0bkzLxLkSe7M7nR7jht/ZqCY7O7+ayh36veKy32DcBk40qW5nagd5U69Th+0cKfPaHbJ7d7j9lu9Uc4ZxNWSIffxRrg0uftLkntEs6RwaYQjBx7Ej/faqGykhQx4DWwJpedI7gcud8MEJO5uWXdx9V+meUxs8NIrmRdP1/Zlhic8zVIaen8qu4uJ+v1JAqd3ovYsKMlsXqtu5b4hyX3Xg9uZ1Akf1j/E3sKyXUScJ+Ne7bmHF8qsEJobg8HGxoAH0TT6NHLHhhq5a+47jfjccfK4/idVYp7yhVFZwjGwZSy/MVSImr35kKv9m3lKy5HcqyL304Cs6Yb+NgfPF1rTcl5M5unNT598QpIaK6bhV5b5mhTw1lK/xTswXc+AHeaPTO6MYxWTe3uOjTx7wLFZ7HaF4YnaKVTyrHAXeMhT4a53u2eMgyLsk1hRB4Uhvdyx3vYazMhBvIPhA3GgzBsVZbQDbOkIGIybII5ZBMYXByL3ZaOmEOS+WJkfnoCMuxp64nRO9Ngay3mSzbN63jL8K6+QIp4Jnhk+V8ITv4tLQmI485MJtqT5WEY/jV0ndxQ7kzvVexoKmFd1MyEbGh4mSmdQuZ8hfyW3a+TuqXC/9bDJ3R9CtyOrgtyRsE7uEc1eT16xu9Q6DFWRe/ck2BM1biJOHcm9unIPLIPFit/b0N9G4For0nnR8CSMxyAeN+qw4hlh+9Q/wYF9/oKqbeLOnK2Ve7sMLd0zYHEl7/PvCeSfps8/4t3ekOejhoclqut2VPvhkjuaXeTEiI3c/Sc0ctdkFCFfOYTle57OV0Xuo0lwYNa4eahLHqzch4yaorEKX2f/dJsJAMm1MW9DL7e22xe7cJ8rud5KsLbrEPVu7dVB50U6uj37IC931Lsgdme5o9hVct+g/LqZoZdwfyH/+Z7InTyI2nM0odyp2s80nHn4I09uf4r8KSOUufVQyR3NLhGS5c5odpZ7ULtNa9mEQ37uDhGohtyP94MDbcZNxHdwsHLvNGoKQe4tRqUIDLaEAx6GXt9aNDwTfCGE/4T6HXdQJbNneLt/ed0EB7a52TLHUO14cxJ63U7u7U5sIM/uXdjbIHzPoGZvahLLdqJ2beEuT4JE3Lsd1X6I5I5mV3DCEOXOE3KSe9gwqlm5y/dXrVRF7gPgxLRx8+DvPWC5nzJqCkHuxw2BAxt6fWuxgke/v/LIK/l4ht8fm09mbmTBiQsody6YeZM+kb/n0OvH2qXMHbN1jdsRy+zkDxH759Tt5C3m9ofJvx8pzK6VO6YyXt1+eOSOZlcTkuWOLDjIHa80+jXzZcrjuPVySZ3c5QPSk4AizP7T/T0FkwXL66IaF2MDXhsnoJpy9/u1cp/y8Dn4KzIMfr9O7iGpadlnmGboPbdGv+eXIUO9o92tZIbbIPvJ36GIycxWxgRGmruJ6U1+kvul3BNft59rlyv3dh0bAvfff//3HE0CDUWIaq9G4n7n4ZS7vdmx/naS+2mV3PFq6i1dnefjJsBk/0C0ryghn+6am7FY9DFSMzwTPsbiDDJud912DgrEuhgRg0M+ID3v9ILAULffIEQSU/1Ya7rpYrSLkWBfgVT0LGme7D8fpS9N6e7iEDy12MUxKMgoEV3rncz5tTX2cfc7xb7psghZrzR1Ogk9vWcD8u8oU6zpdCly75vgGS0yZOqr6PJCf0cScl1FEyEHuc8YhJa5tbhJRq9tPuW3GTrLaI3jsTiY8dPThuthwLGLfDW0QFp3tA59Negg99yxNI+t5JsudE7bFfL+ibnlhR4ASPaeHRmLSOuGdSE4UCUNvcvWLd/gaZi4+wGWzZBkRizdXyzI/S8TeMzf/8otNvPZ+pXdLBB2UO6ESzmr72+n8/LPZtLb+5dI+W6pvV0j9xf2N9OZrJn7yK3dzcu83O+/wrHH5H71CrJD6nXyINzLN/1VlHvD5c1dq4ftK5eJ48t2O6r9UMidml1Do0e5nzSCXQtiSXeqxS7uKAh7BHjmfIxpQKbUt8H6vzUBUc1OVh6QjnHg6ejjRi+1kgTBZLouRJklg7kXEW6Oah0u6KwLwKY8WwJkMshdcehMil2vtihUhXPwBpetF2Eh2ZK6DNfL3T5/m/12LVn8ilMttnL/Jn9UyOmEumkvKw/iQPnO8DIM83kHdpqc0E4N2sm9h/VnkRxRfdbhj+OiIWNfqLSM/bsYek1rzWk4K8mdVO7kjias3P8Gni2i9hxvkIUHru2kIXuNyf1SXu3nzv2yawJPdnudBevH2vPxuq3cL+xmi29/3Xm2ULGbgFxmhfsOIJkGq3b/FTiu8mX71W2ph/16OZTxJPdbD4Pc0eyawt2j3BvH4yBxKsRfFEKiPkabWCarnJ9QBjODZwE0ctcckJrzwJFEl7OizyC46yLKOzayBiLLlq1DSSGuQAI9gKzgoXSChLkaVKoqZhASPaIqU/1QYbkHxtZARfIrO7mPG6kOEFhpVjYdzY1QDD/O5TDgqTw+CQI93TZy7zcCRU7tSEmf8NwkSAy0aOTucuj1rdWnYedxEsswubNYhiw6Q2IZlrnfEFyduXEfyp2wvsPWlmGl+94uSJjbl3JWzz0IdnL/dNsEmez2Bep2vdyJ253l/odND1cluXtxe+3LHc1eLbmfGAIV8QmMFwAZ8FFuEb87WhXO77nFJ2MM94BG7kHtASHyBByUiIy7LqKcYyMLUMzFRkWBvmAgKeAo+GUiDip6b1GpyqwjVag44SfwMUCl5f4d2LHkV8u9733Jjm3NqqZRonHu1Ov2NAwwanSBxLBa7heNJUlmCUNg8DyomEw4yN310Otb3xayOQ3/JRNm8m5/tDBdBudCPv8ncJh/5dcQI0+vPsigcn+Zyv3nLKjIrLcjarnvbYGabSJ2tdybiuTeoJQ7ut22BymV8eD2Wpc7b3Y9fk9yf/88qEni/N44d+L5KH0gsig7P+aTmV0C0Mi9TndAamYE8foNFe66QEOZg/itLhfj3cDBpQVTqi9GXxLUdCyqVDUtvPoQ8dJFqLzcI0mwY8RG7r0gsSo0xTp6DZBZb8MwklK5eFYp97UuxeC0CCF3L9gwbi93F0Ova30bI2J3GprDjwluzy8zY4Uy76aB4/f7qNzvUMt93wQ12XWN3F/YAhsuoNw1sYyz3Btse+Aq96Ldl0p3e23LPSCaXU/Qi9xn28AOs5BCLgPCLp3OgMgYfXcCkG99MhOgk3uz/oD0qUyfocRdF1FwAnvx9wPCBRmtgMwZFCx4JeIRhaoG6uKiaYehcnJHToEtw6WPR7eq6ei3wBFxNQwaLholN22TZgUrMVO2cncx9JrWtzHecTgNfyNqZ5kMBu5sHqTJN7zBtslWyJ3wiwl2ZPac5b4JNqTvV8qd4kbu9j3YhjL3lOz2WpZ7IHTS/URDL3JfAXs6WhS/tnf58sRA5GP67nlAJjzJfUR3QGpC8ioyMu66iJZqjHnlilotioI+2Av2LCtUZQoimquW3GfBlt5AyeNxVjV0vUlATHfDoKO79KYpaRsOJf3B6svd2uHD6TTs+UeY4/4Et/rAD4IHc/Nk6IZMz8lyv5YBe9KOcv/UBBv2beV+b9O9LuT+h20Pl10n7ncWu7125Y5md4eoreRZgUml3MfAiQFr0hggq748cRCJSc5v9XmR+4T2gNRMyIGJjKsu0FC6Yz7xH3vnFxJZFQbwy4mditj+bFNuf6axpramiYoyKoqgKKuHLqRlEhEEPoS6kIMk5INvIokaYhurYOyubalLtLsorpbgg0sPWxRUxAT14Giu6KK12/+i7845c88593wz5x7v3LSaX6V1O+O5e/bOb779zjnfEXMFVVgiu8fXjzyoU9Xh4HI33/817H88JnRNu82GQUe9f7mf4GscSTGOhC/3K2l5yJPFH8N86YEP3NIDtOqvXHngY6r2AnLPkmJsFJP7csGIvwKV+26KgdwL93Cj3u0qktu3q9y52Y2pLBqTonKfIUVpYSWDG4VwFZd0d63X+dMRhHadKJu1N4RzmAi0WThmXehldtyizGPR5H5PsWEg2StlFY639NelCadHp6rXg8r9vB0CCctSjGfvrZ+ebJQXQvkfjyld0xmzYdDRGfPfNGpRonulJNDA0NDYUbFdZehyZ5VkNG+9Hx8SakKybHuuJKS0EPI396w9RO7rNhFYyCwvSwsPF4vJPSs2XF7aWM0u2LTB1SWSu6eHpWW3B/M17peUMnC//PLL3X/fJmYHqo3l3iJfPthXMzSnvhlTkQYhND0vAhwjXlLReKpadP5htEKC9w8R3fsZNTSq1t6QiqqTkxaOSReqodInGup70chxGFkMmbCFV1ax/I1qwsS8mryJF/kAPAhD1UwE9u6n1GvlrpqWE3WE3jhwgG4kGuolnHS0wHh0wnjY8njo5F4faBhmpqePKgOCN51rne7Cmx6UPrhyKo/Kizxxufse+gspHYVa99A9qH/Jn6A//vmnfIDYHJj9g3up2t1i7sBNooptavaLrwMkuT/ryD1DFGuvLxLOehG5C+1WKijrq4s2sdfh30oid7GHnc7G1BsvPbfs9HBOI/eQ4/bLKVTw28TsDqZyT7aqb7OqHiIwSAsGHxbDRylVf4JHrHK4Yo9GVJI8/Y+XH5jW3xDOtKa6iGkXqqGOO2Fin2SXrrxbOtWpjn5kyUk3ci0hXGzTyD3JfR2s/ID6QdnWOTthuYwpo6mOx0DcSdZ3S+Ohk3tDgGHYO6qu2hzG5d41SJWNNW0VBRpTVwy8UUDuvobeU/IxRQQ6LnPInbTnnJk9SQQ+zRVx/71HCt3ZOUzuOR3v0ELup0V/Mrc7fCFF7i+B3MWW2fwCR+HiakG5V1SI105V5FnPZEDtpZH7gnjNrTtwLpPhat8at4t63y5mByrN5J6IppHpwaTtrYFeGxnt9SyCyTsuPSatB9knpW9UYhq5+7khnBNE4BVLxbyLOizlMCHF8thqk1p19Xu7+lo7hZwKMVlA7ume2YGBkdaZWHhyf6XSEuhTMunKeNQhgXC6oNyPto4M1M3WH9v8MHSnkOnQY6jc031qYgyaqr/9LchOjiZjuatmzx/KIcsdvO6ck81qtov3MXcb8PLLD/1pE85Z8QhV4YDsFcJZALfn+cwr9+/FcV5HVsGsYXKvoIgR/kpmvUKksNxNlkLKPZy7FKspAxivgtxcqC7JnV2Cb1YJiFZHSkG1T7lPVyeTKUi5DqJr3t7wbsqhe5PET4ZROy+IfjeE92h7KlaZSnqO34tZGrn7uSH9jKBtyZh3oRqqK8rz65z8xUEl4R9LCzEnMsXajK2qaUTl3t0fsxghyV3FlntQx6Opiq/C4hTI4LDKDoGGYRjbGvYelzui/BakaTvh2HFsJ0fSVO6q2OkJ2ddeWy1F4rfTWr70uCUpK/Nu7uTUJ197TcynN94tHq93X97t19iEs1hM7hnCWeAlBQT7FpH7mndbqsftu6/ercgdSoWZ59z5tlTF7eEH7pfnUSUPiges4FRFSoRW7nLB1nEikELnJnfQI1jrBPfBfw4TxvSgGPFUKvEeJOKTtSzdTjvA5W50QzKqcw9ZMuZdqIYaQzMWcaTmZr3ioGNIRqA1mUeIknsxVR11bzJ0uceS7a8PH26bGhuwxTwcZuwBdasWEOdNkbX/QYbhUDx/j72EU4fJvTeBLY+tU3+ju5IuM2JWzlzunsM3bmXHb8hyf1M4ZemeT4jAd47YYfr0hXeJgON2RO5Elju3+0seuYt+Xlt3IS52EbmvEg+Ly49vVu57ULkjPew0kHtwt1/OUf4TyEXu28jtkVkzue9T8qVK5uEALeb+upxMH+E5mk4h4jmIHxgfjSf4WUy43E1uCKVHDiBVzLuoQ7sdQuU+JWjoFfpiNfUwR3QkELmPWv+I3BPDszM24eByV7sd18p90mIEGYZ5XrtaJ/dmHo+rTUeIjhZjucsxOzM74JE7eJ2fgd1AON2vgdodt7/wIxH4xY3cwe48LSNH7iD1vN6/9UyoLhAd6w8DFRWy3OECsE4YanbmaopX7qB2XO578MidXxSzM9ztFMOkjKnaL1DdzqCXrMC8GCkVDWZyP4G+exKepdXVESAtzajO89pgzcKbYkxzVE8RuRvckD7nXmmpmHdRh2r8JHq12vYshmxUp+jANTqSqqrqrX9C7gfe6CWAf7knLEaLVu7tFiXQMAxYeeZ1ch/hHyNq0zeIjn5zuTO385idTZ165X4HcA+Vu5iAaYbAner9OylZczeL3bndkZw7qB2X+1MrfuReAUhyh0s8L6PI92Fwu6Hc9xTaoYr3sJMfrQeElnDnaXXR9QpWUBKRkjFtJvdmPL7qJZwp9tlzQrjEl7Pbo7zLI9I7Z9hM7iY3pF8D02dJGHehGqoJL1DGk7b1slxqFDkCREutqqq2f0DufYrydHJPW3kOauTOm5ZoGOp1cudNm9Wm+4mOw6Zy526/kqndwVkV811huYu39gdNuTuKF4X5Ccyo8uDdtbtntcx1Lu/LaZmniJYPwdWK3CsoX9p4wTHX7bLcbwG5m6RlgDN4D2f4ualat4PYN+d2FrVzrYcld4MSMklN21bRR4clukW5V+aomsN3dXbK81ARhynh1bWDhNEo/I8e6U/MqU3J3dcNoQwoOuIYd6Eaak4jdzGAbZTXfnRHuYF01KgNO8KX+2gTMZX7Xq3c1SxJoGFo0ctdbbpfbToTktwhJcOPUgJyS2O8cge95/0+J8r9NrpaBhwvPoY/wSp3tmKGBe85u0vZll8Fu78ty/1nP3LPgeTcAbzm2MqSIndtWmbPGbwq5FKBHvgyyLCSMpcLkg9X7hEt/IjpWo3c/dWWmT6fshc/FTMt/XG4yrsldb7aNdkJIRvfZEV75Te/udx93RBKm7JzlGPchWqo/Tq5x5okN80jN5zYlNXaSyn3rkaBfLqoppMYy32/Tu5qXinYMJz0L/eTxeS+t+Ry51OpPHAHQO6etMwDMJ+a546jhNN6DwUMnyacs3AsNtO7kJq56Q8pLx+W3IGNFdS9HwaWu8sS3sMZo0q/m8rJ5M2+PeQOZlcyOIHlPoOfZ3+IcMbyfTbyUDQxJZQLO881em2f+q4zT8vobwjloCZPbdSFaqgendytETEvkLBFUzFe2Xq5J/G5aHO595jLPdgwDPqX++BWRO484w5iZ7H7I7Lc7wSctZA5xPuYZDE9ID6Gn9JSv05uRojdb5Jqy/zkJN2Z35+Xcu5B5Q6srxGERVzut6hydw9OXZLlzvkB70GzNTWw25nZt4fcqdmB2tLKfR59D8bkNcMp71ytnZgmjCGxPM3wSVU5hnLv8XNDKCmibI3hGHehGkor91Gx8ZAa4wLbU+4dRGL/wOGWjsEmjdzrjeUedBj8y729mNznQ5M76P1WvlQGWS3jbE19mv11u/QYgvVZWE8EPhHLht3vFiD4mCgzqlTvz3gmVIPKHVhaJCpLxnJfVuXOuBHvwY/cL6FfOWZq3x5yd82uBO6B5S4234tvTxyyksrhqDUzYomBfW4Y36bURjSVe4OfG8Lp0nwCmHRhLHc5JuytmhZcgS8T6WnASG2B3BuIQDM7Cak7BLkbDEMoclePzUI7P2C8WkZe4w5+B8PnqPaUH2A8AkiPoWP72x3D/ymtlnkSVkc+R8vLCHL/laiVwwChuMxLYHeQ+2kxGM5isI2nqtw5p9Zs4iHrU+4rrtwzheR+I3AG6cH3uanmbr9cb/bwJ1S52Tm1JZb7e4RzKIaGcu1WhCJUIDjZSShzEXFD06R4Lt3m5H7czw3hzBKBTiV0N+3CXO7jQmKgCz0Yu1nZ2KOwBXJvksuZhyV3o2EIT+4DymIpBVO5K1UHQPGQfwfk8gPXinwjPoa3Own6p2H/qrTO/a8nX5OLuT9G9zKd9mxjYsjFZUDuorNXH1apAHRyB9Yzp4nEAnW7Vu7kXF7ui0XkDpxb9fYQoty1bg9/KaRqdrVhcLm3oO8JUfn2K1Xq6ajHpNruE24pglbewrfcB5QUge6GLBW1THd9zPIQqzHowkju6kHZY8qcrfL501oquXcElHscnYnuDEPu+mEIX+79hNMdDSR3PvRyuTCOLPfrRaTHcBCieaea2NNfE479+5NPqnkZsPtZImfdGW79gZ+/pHmZLOGsFfA6sokJYQNacFYwuVO375LkvsTkfs4uJnfg0p1Lcg+mGffgbr8oj3AtvE1M1ZXKo1dbarnjJbmOSsvlKiOMOv5yuapvvn0Tfz+MauWOv7srfdyQCl+uwjlRaYlMjKT3GXRhLndgkneOb6gdFqO1pLnc8R1XAeVeQwRa+MUQ5K4fhvDl3of8cvVy1w/9hRhS6/ErRRI24YzkVteA3sXHcC53Voc4pcoquv9GcLt/ltvFtLFmL1O5rxKO/SU3O7c6/W9U7o9XSCyLt1tRWO4bRCDL5J4hmNz3MLmzgpBSD5f6CNwv2VxWRuN2invJCkwVYnafEX4yiNzlGdXOPrTcUiqiHInt/qh2aeeU7T6aTWhIhL7n0gmLkqRvKf0N6Sq6M5qG82MYPznQRYvLmnRhLneuORv/TZACuZ6YJTM45lfuUezkqFhqc3IfxarAzIYnd/0whCV39WO8u8+S6RvAj9nTDz3ud6k1u/ZKKvdNegyrqdyHpDLAD9HjOu6VQ3ew+wKRWPglL/efl9dW4MIyslxm8fGHGczrSxnX9WhVyLWNCpGsH7nv2rVEBOwzObcv2ajcF9eWdrpuB8QedvqRezhu53J3rlrBqcLNrg/ckzHfcj+Kyf0wEZhJWsBgmgicJ8wIpJU6rvR6G/HyRqQ2uSMeswpQL/V6MJWa6J/tou+Ufv0NMfRH+Pf2NAwcmZ2cs3nlcIMuzOUe7SYKxwsvOpwXzVLbNkf26uXOkyac1vZEanB8Mj22ObknEV21kfDkrh+GcOU+RgS6Dogj1Q8/egcqd7Oh56KXWk+2J6pzrS90kB7DuWpH7n9Jj+Gf7Ji9Dxy5U7uz1ZCfEw8ra2d/Ont27TQBuNyfWpTsDrG7y4eZBbLA3F5A7s5PXealfhfltMzuAnI/Q0ROL//ww6msTVC50x5+oG4H1oQejKtBlmomlZqdqp2mZYITS3Kzm6Tm49aLgeSeknIZhybHjtR7DxSNuLBkg3KQ3iDxcixCSe6ojOnWZ8heiXXrbqgwA6QIXO76LozlribucZu2EJHe1v7RZKpmouNYw1EC+Jd7I0HYpNyriMj0ROWOjnoSmtz1wxCq3NUYYH58sC9VO3FyfKQZJKSRu8HQa1pDAO95DL8e6JFvDI7HZokZ2MjE51SV0F1l+QYq92UiYq8tn1pf//DURiZ7mgAL1O2F5M70vJhZXd5YziyKyi4i910rRAOXO+9hA47xk3ownU71FbSrbtdL3ioJsVQSaqzLZtcH7lz5OrlXIXIH2khRDlixiMsU8TAeoXQRD+3STfKKkMq6EtWph3U3VJhXGnVyN+rCXO48n6u+TLOFxkzuk8HlzjlKFEKSu34Ywpa7/ihYXO6GQ69vDXbXPIY/QkEC1+6exMxvti+58/UyKkzuFRq5Y2QLyX0XsGgmd5zsFQIFvS643Y/dUYcjKRnhGsg9PPSBuxXzKfdKXO47mkkRWmkxd8YBJSyNUN7wvj0jCsnqRJz7sYjco/s1N1SE9l6N3I26MJe7ukNmyHuHdknkfqyUcm/45+Xebm+h3BPd5nI3HXp9a7B70cfwD6cawctU7h8oh2R/VVzuLzG5f29r5E6nVg3lvlFM7sulkPuS6TrIIItkVPjVEOWuD9yBF/3J/XxF7pSJNClIV8I5HJvjiYwb8x84x4nMbATnxWq2trMRlTulT3NDxejXyN2kC3O5q/2nlaTUVEnk3ldKuZ8MXe4qU1smd+CAbSx306HXtwa51xR5DLu/u8MpNQPFImnW3S0ww45SPetD7kCmuNwrNiP30xUF5L7LYffp4HI/fakvuV9iErnjatdiaQgzcAcSvuQeU+XO6DhECpAe9eyw8sR4Dfn/e5DI9EcKkxDe23iqe7DYDWnot3Vy13cRQO7xTm+XCvuCyx2oDyZ3fZIkPRui3IF9WyZ3YMhY7sZDr28Nc6oHCj6GnX/e4cj9ZZ5055tUnfoyYHeN3Jnds8XkTtVuKvelqwvLHVhF+1owkfuSNJ16RQhx+0U0IbNd5I4H7kDMl9yrFLlzu3cSlKYJb7+HifdUy2gkRxMROXRepAjVznvxKCp3xoF0kRvScLBJI3d9F+Zy58wSCeyGj5RC7qO9QeSuT5IcGow3hSh34MiWyR1oOWQod8Oh17e+MEfBx/Avpy6wM6MqbmNiGXd2INNPdtGcO5P7W5nCcnfXuxvJPXN1MbkDa0Rh5YclA7lnHlTkHnRvKpJrhy/bRe6FAnfgRT9yjyty50zMEYR5EIFrb16BQC7vxLY41cuvhCsau7d3onJn1M4UuiE9yUmN3DVdBJP7IBGZw7fSNgWVOzBeQrmrM8zpQcuaClfuMAxbJXdgdMZM7mZDr2vNz+WrwR9DGrcrbge589P2rvlloYjcX8rL/a2NlSJyL7LOnaDYq9TtReR+blGt4btn14pO7rwHX6UHLhEwdTubNN02ckcDd0oqmNyBHcealNRzP3tdRKRZCi941TM5DHsvUpxK593VVcy90XHshnxyoB7Npb/XZ1n6LgLIXV160mahJI50EpVDDaN6uXOGvMFnb7+h3AtHss21zk00hSN3/TCELncgOtxFEOo7LK3c9UOvaT1M1U7LSLYpj2H3MAvb1aUykHHncr/mqo8XUGlnfr7hBi73x3/OYHq3s6eY23G5Z22CsPjh1QXlvivPLVnPi36A8jJZr9xvLNDDGbmuTChuz33dLnKvqkYDd0pVULkDqfEeYag7J1ui6icHoJ57XMU2r4ocjBTnxdwNtTUSzsx7tZZEbLheuSHf1E4190pvp/mxA/T1mi6Cy31K7HaHVYD48An5Ld80eTih3XcvU12XFpTYM54wLz/ASc7yAds/xH4pIcldPwzhyx2Idkx7son1UzWa8gNmQ4+3bku41d9p+fdh6a33xo+gdppu9+xPZRl3Lnfgl7Oy31cWM6duAES5P/74s6uLK3KztdX1CgBd585YX4ZNURKns6fA6lq5A2fW3P7sxaU9DkseuTv1wpAezoiH6wHhxe3bQ+5VKbSmTLJIVJ+yKKLcdVSfHB+YnW7YNzY8IVhO/VSpCnj+K/8Rff1jIw0N+wbGTybQX/egcEOmxNr7j4/MTs+OvNfWUROzAKMuwic6OnR8pGEa7nBsvKNvcz9iYvy9fc4PGB6sCv6UHTw+Mt0wcuz1lFWMbTgMAehrOVY3Oz3dAE9Jy2gstKG/cGL8yD6nl+HBV1jhSH5oU25raltdQ2vD7KfDuVz7Pe4Kd+r2J4SDVMXQHbjqqqt+/eVj2J36x9mzP331y283MHhaBuye49RyJptdW8tmYcvQl9TpNG4vxvoSfdVaNpPZWL/a5aPdIrdQdoncsrSayUJnS+f25Njp5UbKOegBGubua+mccLoeo+Ruz9cW2A5yj3Ozq4G7Gl0zalXZna8l7q+mmUXhfZuTsMqU+R9wIYMfxOdUAwavu2K//S4o5Z47n4kexgRmZ2rPuZ0l3LndXxXtTv0OXHwVqy7zkir3xykPi8hu1wM+hy+c3Vq5A3t27eGocmdcKsDcri89ENztWy/3yuoihd6FoAuNjWWiermjkYvar1KL3pyUVabMfxuP15nYb5UCdhD702++mT+ECcxO1e64HeJ2kPsHkHHndr9ftTuXO+XbGxhU7kAhubNveqjV6TfKR/7kLrhdMTt1u6ncgy+U4Wo3k3vYZlcDd6O8jF7uUUslrvvJkbLcy5QRrW5ZitcBpnXmdQCqt8PZS9TrNGYHtTO3g9yZ3T+A2J1mZsS8+zuC3bnagfd5XkYv9wqfMLcLyG7Xyn2nCur2B82zMjqzB3A7l3v4ZlcDaKO8TKXO7Ql/KzDlZrFIOS1TpgxF0TpNr0tez5VtdwJ2KnZmdlA7czvYHfQu+N05JJuF7zR4Z7G7KHfX7m8jSXdV7mYpGYB9B3YrKfdbtHLf6VfuzO0CgTPustvpVxOskMyuC9xLnJepshBSxTpmy9zNiVllyvyXuBD+0XodtA5ih3gdMjGC2Jnbud6Z4bngnfCdbVL17GRiaRnX7s+EInf6jfORxu2B5O6nZhgn1JwMEK7Z9YE7npcxDt0tjGQY86lJq0yZ/xLeeVPX6+6J2LlwPZeI4WLnbge45AXN5wQPeoeJVRq8y6vdec79Ypaa4ceoeuT+8OPSbCp8MXY7R3S7Xu47jeQOSi9hyj2Y24F/2uzc3aVcL1NlYSBr1IPPp8atMmX+I2jz64/k8uuwJCbHA8DNGvKi5ytnxKNUmdx5WuZix+6Mz/C1kLLcA8Ttu03kbuj2Bx25XyFRcrdfZMo/anbubl1exix0r/R7/p8lUZ5OLfP/RfX6rTxg52KnqRgqdtTtD9z8gITreNC7Wz0sl5iBIgSq3C/mSffrvvUj9wBuN5b7ThSmdkXu5oF7cLeHL/dYdcSIKvO8TDShWSpjPp8a1XwExeKpZG3Z7WX+c2Azp7fKKx0fgRT7047Zwes0aleAi2/C1OqbT0M7wPnC2lPF3+HW/YVp1SeE6mF8QvUqOqGqzqg+CzC5q8tlzOdSmdTZd73bAcnt5lmZ4IvclUphWyP3HRFOOHkZIKpZ424+nxr3dZfxRPWLblqnnJMp8y9HFrvqdTB7fvIU/gZXg60l6BWm8tvvojySi/NzsT5wJ93WxGtDPieVhpSXQgp2f1RIur8kJd0lNhe3A4ECdw53u0iJp1OVuH1r5M7D9jDyMnq787a6lHoUl78+vR5PpJKpVJVVpsy/GiRi51tOudnvYu52yBkdgnP4m/K0o3BH55dhOCG/k8l5gIXuNC3DJ1SlpZBsNpVx3Wc+5F6xyc1L3O0aufO4fY+B2x8MIHfdCnfJ7eHLXXVkWHkZfWYmahVA/UwxnU+NWmX+Zu9cdmYIojg+G5eJO424tB4ZIZ8RhBFx24hMbIVEYiGx8wqs7DyBtTcQL+AdLKw9i9N9zvS/qqu6a476ijbqZ1y+GYNY/ObkX6fOyWwNvsPTq7bZ+YYSPUjvrczJ682ThO3088fOA2Q69B7ql2wqd87cm+GQWNjR7XOH3RG6Q+4NEXW74NbtHrnD7eHI3UYVuetDmQN/XO64CZQylwFF5TlL7RVwEWzBzG2Pmf8HqN04PiWsslv0DujrxzXHgIicPhgu0mPNVf6k4NqdghnIHduYXLlLKiOcMUJ3it3VcnfrdgC3h+V+OSB3v9sfqnpl0rkdpC/c43MZUMw6ai8nINgss3DkH2I2yWS2gZ4rSkQnVQEQuiN1Ujn9CTY+uV9juQ9V7m0sc+HC4QvuNSbIXRHKnLXdDsHbBN2ukvvJoNyPaOQOt/9Fub+OuOapyGVQvbfhzLwajk02OE/NwUzmv8C9pUQgS/GD3OVqzSkyeuv0KTDGRrLcKcZB5I59TGiF9HbLXCB+hO+o6htl4HaV3AlFKvOQUMldNcT9b8l9728xV+cyoCjLqirLoHefD5t6nu+jZv4P3LK9ljuScvi9fQ5Op7zFdTqYmJ8aV1nu15vRM+2WbJow41mkiqGQa7fjGpMzGNJJZeLr9lAqc6jf7UfpEZXKEBq3/2Nyf63OZeK7eHZ6X04fzBTVjEKkPJYmE0GE3Au4nRwsdoffoXMp0i9KkS64Sgdrvbdyv9WVe7cV0pk+gNL954DcNx30q3C7Xu6XIPeouTL9YqfvcYH7wdRyj89l5rt+1FsF8qSEwcxynSTlmCfz55kysLtAhhc4M+cnXaeDiZe13Dlzp86aeriY9LnLLlVT7o7boffPa7d3p/46co/OZAJyP+Qf9qsdCKmXO9ldW7cfrDG+Spy5x+cyi91u0twJbvKYpwpmjGPgbPfMn2fa1TsEjxpdp3RX7hdbuVPmDrkjlrl3z77DdGYdy4De0F3hdkXdftyV++WBRshLgRVMYPcK96DW/fTKvSg1Bk2Uyyx2+XrV6yK8yWMnxfx2mXqWa/fMX2PqjPQF8LnW6q7c15k75P6WD1TtO0zmIqbDFt+Ryyjkrq3bUbgPyP2Qj/Ryp4eF3u2we8+cmFUZ2ef++rUyl0kSduOTZ1VsMHmmTDPA3bp8lScYZP4CUweF0LWVO7pleLTMVyrcnckyhAxzNxR/5ktP5W4tYIqv2z1yB0G3u3IPN0IeoYemcA/LXSRuCn39o2QzToKgLlgXHrPPyyI2lyl2aaTZ80bt1WaTZ5IEM/a44rzIKfMXSGB1sI7cSe681oPb3KUT8mWTuGPer8gdejfl/sSeHQa5C2q36+V+OYHcneupR6IT99bjBrXV21cduS9/o3ReOWZnd6pymbJnOm88RaXY5JEimFl29opkMhFEGLiwXC5f7k7m4xbuuMJk3mDiyh2Dw+iO6tBMd73cTyvkfvx35d6zOxVoUxnYXeH2A0NA7j7lPVeGHzA7Uaj7ZRbpltkpNnkUCTpmqiz3zNYyZdArU9ft9UhI6ZRpe9zlBpOU7p3iHfPD3NCd9Q65q+t2yB0ECnd15H4yUu7+wn1A3f7UHd6vf/IU7vqdQ8sVzA5V63KZ4nWqLdSqTR6z3Sjdi+WyLJB0ZblnthX0uFOX/Pp26gNSu+l2kTvsznqH3L0z3d3Qnb4r6nbVeSrcHrFfL/4G04Zuh8Yd+Em2+8Ap40Ily6oqDLsp+mVg90Ru123y2IlO3cu5zL3Jcs9sN63aT5HaeaoMH6VKJNOOlSG5s905mRG7Q+/oiHziGy8DuSvrdn2zzG/I/aSqbic2HfXbA8yu6pZZKJQW3R9ZOsJ9Ln9xikwmfJ468Ln0exH7Es0yIM8iy2wHYnYOZGTUL/rbeXsqFe5cuYveye48gMCs3WF2hO5ER+5MwO0KuWvcHi/3IyaBPshg3c4/Bkgl90J3jwlUi8VinkDtmk0eszi5l84akX1Z7pltYkoPmB2zIJ99YrVz2U5uJ7lT5d7q/R7r3bG7nct86c9liKDb1XI/HlG4MwnGygTr9oNhNpN7RZFLdOG+481l0qPf5LETI/fCXiSCZ5w+97Is86yZzL/HFGeoMDu3yJDaxe0id7I7dbnXrKv3+8bwMOxjMpoh30HuhBO6K9yumysTlvsl7X49feG+P1y3w+0harmXVbXsl3uxB5eAIgr31UxzOyg9A7l64X4M6UMZ3EctfXIvlvx61nvmX6I7BPI8b+Z7xqPCWO3kdpI72b3Wey34Jnhvo3eM/UUug1gGuYxW7nq3u6EM5B5wexq5n1C5PcxkyYXqHvdO/o59zLmMKtzLiaYJJT1D4w6qiFEI3W0ijtxL3hiYU5rMPwfE3tTsmN5e5zGkdnJ7I3fROxteCnixuwQzyGWMyl0U/8Wxu3lHVVG3a4b9huV+KSB3qF0tdxAOZaD2MJNW5YUrd3G7UMQU7nTXaVS5jDPuoBr4dCr1ckehXrlyL3MGn/mnmLpm523YddJe30dt3b7WOxxPfpfwXVoiJXWH3M8dNlP3Fz2lOyp3Vd1OBNyeXu5HLFSJu75uBxOotnDlTm4Hi6jCfTKuXMb5R7pdmfrCHXIHy47ci250s5xkMuNmKmCbXs2tens2mZ3VLtxhYPla7+95eBjLHaG73Qzp5jK+fhl93R5erwf0qQzkDrXH98pE1u2QO+zuyN2S3POown0yrlxmeNzBsvP/oJc7mNtf1ntg87CZzD+CXbLD7BS0Q+3CDTa8/EJCGj5d5aZI2ZKNGTOdhUzCz6FO94DbNXI/Hit31+1RqUwSucPudtrcTVKKmMJ9bLnM8LiD5WtoXzklLEAdt+dbTZl/AmtMMC1RPd/W7LfqqJ3UXnMFyBfyZO33a7yNyd6SbU6HdO3+wm2GhNwVbtfK/fKA3C/19sooCnem1+t6t4flDp7b9za7Nl7GFO5jy2Xs6GU26blRtVPFzPd18bycO2Yy42Nq9zzC7I+boL2J2hu7g5s3+Tl+Ho2Rltxv27mMZwLBGbNf5k03dLfEbrhdL/fjmsq91+0RclcW7nC7Xu5h9Pf64fDR5TKTYifw71iq+/vR6B4mL2fKjJipE8Zwzd6kMXXV/uymzbNn18FNQuwuN5pauX+U0t2RO4u9Af0ybjNkz1mqXu7HI+UOt4dOU5VyP+C6Pb3cd3RtKG6evfK88tdAcR7eTLK7wUyOZTLjpt/st+o4ppY7uf3Tp08sdKrj6fnrt+hlgiIbeppqeJG7THWH3dfjISF3oxmyZmCoOzVDatwuBNyukDtWY2PaL+zuNTsRXbhjTHsquVe6aYtu+DJTfl6kZ0njDma7XTlXIZvneQSZsTK1zI52dolj6NHyjBxff0k+f3ys5XH9+57VtbuTy6B0tzJ3sTvrvdH8d+tIFWN/IXe12+PlLihSGaXcN5kqk0rui83M5i3chdHJPQ1oh8mpTOZfYspA7eeJ1tkECb3hViN6evKYAzfS3Pxky71Zk/1BKnfIne3OegfufJm+0N12e3wqE5K7PnLfVO4QO+TubFlKJfdwghI+NV25HxjbCBpiesg7VTMjxDb7KS7aoXbSOcGVOqR+3kR+M5+3yjwCY0Tk3T65YysTY8z9Zbn3Vu5wu1LuKrcjltH3yhxxpoYF5B5buIPJSud2feW+GjD/lkYSRXZ75l/DDtqhdnY7UTtdrA6tX20Ru0vl/owbZlC6u3KH3VG9i94PQ+5O6a5wu1Lul4Ny75g90OQOuatCmV2U+2Z2f/37swfK/tPW55MtZehQNV9PzYwOmJ3djjymAVa3tE6fABeJq/STKXdyO+cyYneSOxbuYf6A2J2A3de82kjucLta7q7Z4XaF3E/C7WG5w+36VIZXLClBWBLldrAzVPLPx9MJGSb9oeo85+2ZEWCrHVU4cLV+kTjFsN8Ry5DdO/0yJPdmAAGGy3jtvo7czxgrO5x+mTHJfaPA3XR7WO7xiTtAFB7ldjAbXC69Gk8jZIj0h6qz7PbM38eO2uF2r9epRmermxhvwjUnqt25cm8y9+6mbJJ7V++IZXwrO9DqDuB2ZSekXu7cB3m0y4DcAdyuljv4PbkTi3i3g9Vgqr7aTreXs9msKq1D1Ry3Z/4FpgJX7Y2mAStdqvXa6ux1o6vGehv6ZerYHTv3pHC/i03ZXLwjeZcj1bZ0f9HfLxMn99BcGb/cFXNlXBRuTyB3Ky6JGxIQnCRZycuvt8ht5dyNWYoct2fGj6V2knctabE7tG5kMFMAudOL/C5019DwmZvtrmw5TsWqbFmmau3bQ+2OXAb9MmR3V+5n2e0hFEPDBI/b1bEM3B4v94P1t14eNfjkHra72kKLwLX+OS1K3Sa1Lb1N62WO2zOjx3Y0Gfwq0zidQxiiq3WnckfFjzNVKdzJ7U3h3l2VLdlMZ1V2O2bmc++Rqlbu3zaT++UxyP0AfY89TgU46gy7vVzVHS57irDtVk1t/p8IrOi5klTluD0zcmxHO5zylet4l/nGq7XiDblL4Y4+SN61B73bdkfhLoMIvju5DEp3ldy/Rcv90oDcT4YPVFVy7x8sMwDqdhucAIbcDv9vU9W9C8z6KvJZjtszowaObjC1LthS970Tb7yKBU3P6rqdM5n1DaavpPcPH6B3DId0Rv82cwi+oHR/Y5fuKeR+2Sv38BImhduj5D6kduGgY3j/VBhQmW7Pdg/fWJqZh6o5bs+MGSi6y9Rmk48FrtzZ7c/avP2aLNrjTaovG7s/hd09cpfB7p7pYQnkDhRy1+1gUmXuark/Aq7ch+0+h9u3fiTMb1L2m7vYKG4vypzRZCKIkXsxDTChh4cpwGEs1+3UKfOJ3c6LmGRPNvm9qd8/1OFMv9wPD2zbQzMk5B4y++/I/TdmuceEMtivp09lHll05f6LvXPZtSGIwjCJ+/3SxK1104lrCFJMXAYkJkZiKhIzr2Bm5gnE0NBMvIAYeAEDU4QX8ApWq9J/V1fVXr20tnc568M+9DmcMPjO8teqtc7CLGaB282qLNlYOcoFyzcMF7e7pXuNUb8rS2Ch15nfGfTH27L91zj3026sDNZkt4a32ftbf2kH5D6we+KW6jS5C90unwgpl/v+CXK/OWAg934Xu3mUdPtauVo6Te7hoSoTtxvtnlGWydYiWrwLB0jaw1R3kurKdnI7yR3YCv7ePYpmUgPEDju5H/ZK98fohpwo9zNpuZ8Sy/2GQO5M4d7JXdorc5OTe9/uxYP4zEazJqY5Ts/cQ1EvjtsrHf2rLBuJ08HA7V3Y/sKtYCKuAqv5X3Z/aEt3rNvz5E5iR+kev8jEyx1qH125e2r/63LfsjhvT5ynQu6s24Evd8/u56MKN6u0Hm/lqMPkJWX+ZhDJ6NIOJVO8BasnrNqvOLWT2we4/P0WBoh5sQyBdXup1B1HqiK5j4vc4fYIcPtccgeCVAZCp+9xuRMPzEK5Fw9WaLH16lEsaIcpF2QyRaNbO5RMcWp3iYxT+0U7CTKGs3sr97Byv+DHMo7jx9+kUnfInVF7cD01JXeJ2/n1qUCWymzfLxkaNpR5VO6EWSD34tHaWKA0/YYqKCF3/zEw2vyu5Iqn9mO/r6Re6rv9+i/oEQa7u0EEb5G5k919uROd249/Sl5k6mDcLpY753YAt0+U+35pI2Qoc/eKB5B7i0nKndyuhbssmEEZXiXlXukyVSVToPbft5Yu2hG/Laet04kXL+jx/UtunepA7s+7we49uXtuJ/xdqkQod97t7xi5+24ffzuV3A7iZpfKXRC5w+30OvgZ5O4wodzPem7XO0xpmtShapVIXopaN2UrObJ1HbL2rkPmflu22yLdev3+fXp2pYV+9sIbIebN/rUDCHy59/TOX2QS1O2M3JlQJqzcD/wtufPzflNu95N3PITcHXVc7mc3rZHdeKMpynJE7F7HanrE7TqTQMkSZ3bcWaLVqrY+f2HL9dbrv7Zn76Vvt1u92zEzqNxbudvQnez+u12mP37AqZ34AruL5X5ELPedy5I74CL3sG4HeBouyG5icr+7STtlehSV1XJTF+yhaij3ZhC364Gqkhf9POaYne1L3H/x4tILgqp1quGxPtues1JiM5D7s37pDrkTu1q79+T+lCvdBXU7k7mL5c7HMoQ1+1i5C85TYXPf7r7cQTOUu7odBGFKXYw4VA2q+fS4yLX8D6vkQJfHdGpvq3aCivUWeu28jrVModzfonSPyv0wqd3J/SObuqfdHu7Xm1S5S90ul7toTwdcHtgdcvfF3Xhy59xelKaua7NWzleHAjfcoWogd/cVQgt3JTu6ot3mMVA7QUEMKna34yOc/mvH/6J0dyeqkLsdCYm6fUzqzvdAwu2Ai9z52QOCwh1yZ2dCJs5TGbmDsHIHGytP7uH6vfNeHbu2xhyGUq65Q9UiTNWLRt2u5EX/EBVqv9Kq/ffBKbxO+/gOtt9R3V/EMtUn7o4q5N6/xYTT1OMdb8Sp+7uWaCYD2D5I4NQeXE/15Z4I3SF31u1yuYdud48gdw+0xoDESutqjS0WigXlFXOoGt5hMrqYSckNP4+B2q9QIHOF6JIYu2eVoDeul6bdlQ25k91tvwzk7lfujuM2l6FXeemezmRA4HZh5d6qnZf77vnkflMod567C+rYvLKZ0hhTiu+hhpSM3YcfXeliJiUzOrW7ZRzEFUfbFHO7E/s57PiwUyL3Orm7RnesZRrIHZU77O7Y9TF1TRVyDzMZLpT5A7nvmUvuUPtfkfsOXu6823POFYxreTHCVvaQxq/tGcpaFzMpWdEr2ruq/fYVB05Pz9mKHaPE0AT/K3PHfHcMIHC3mLzSHc0yu36TvKa66nLfLZP79sTsAcg9cPskuaeHDpQ5d3tAsbV8sC9/qMqT9X96lLWDlTVcbd1OkNhxfHrunBV7h63c0SuJ0t3J/Rm5PZA7bqj6BKX7wlwGahfLfWcUqH2Oyp2dCJmSOzF0O57J5O5mR/4Xl3CMYOEd6+2GLe+Bxu1KTvinqHB7S1eyn+tKdkAPkM67W0y4o3rvIeTe5TK2cEebO+iX7gRTuuMsVZy575xJ7oRU7nD7NLnXArczAcS6LCgWhUllXddVrJJOurlggnmgcbuSD0hYEMgQZPVO7FGzI8XpGt37zZBPWrljFxMa3Y8StskduMUdYen+Mkzd4XZW7vv+htwJPpbh3c7LnV4lciexQ+7rjNTtRJ1xvGDSsUrZQLhcKoM/YJLdq3C4gTFGt6oqS6W/Pw9qB8c6tduPTEb0BJ2oOrm7VOZtK3fkMj25u1zGvrZvUbrH5rqHtTvqdnknZMLtYrmD0O1yuW8Xyp2A3GF31u1gyrlg0Ww8e36JEU6dbFU36dNhM9bORh63B19edKuqMj98VzscDWI1eyLJ6QUzF+2Bqi3cSe7DHdlYkA29u9q95dVJB5e6Q+4h0itM/LxftnKfLnfP7XK5j7M7U59ClCyNO5016+ZAnp73/1Zfv3Xc8fmWhP9I9vcC/52K8v/wI8rnUXwfy2ex2yF36WCZxXLfLRzmvj1VudMPaSyzw4HF2KzbQTlO7tXZB2Txynf70gcH18PMHO/4ukFRlHz5/u6I3O3zyB2F+zS57xDInfDkjoUcjNvFcj8fu9baS3rW/SOKdgAOUuzU/oxis8pdUbLm+zt5JvNX5A7EcneI5U5vOLnD7ozbpbHM3djlp7P/fL5kUQ9OPk1q3anKXVHy5vsR1u3/jdzJ4fHQHXLn7R6J0vnGEarRQdUJNLjwOjdF4zcdhjurVe6K8p/Ayn3fX5H7jbTcwerIfV2Bopof4F7zLd93Y3dbm3++ZrsOI5jNHrXKXVH+Ezi57xPKPeH2pcvd5TKpVMYR1zEXnpR8KrOpDz7FP5V7WKYX4TVSzdwV5T9hBrkn3M7LffeMcsc891DuIFps88F4zfVsV1G5P/jXsUwd3PVPt8uo3BUlbxJyh9rlct8jlTvcPn2Bqr2fKumXoUeQ+2K7n09F2Vzhfj4m9zL6daOsN2I+oxD5LEcTtMtoK6Si/B/kJndmtgwj99gqpiCWCZTMF9cFMxTyrB/AIHIHpVX7XdsYOc+d1Vh6NGyXUbkryv/BRLmHag/lfgNTw0DM7fJYhtmOzR+pwu2QO2gYt4Ny8fyraP1PHgcP2ifFxnk7IxvBdJcqLvcP1xRFWTneL0Hu6JWZKndU7kAu96Hd6ddJuaPi5n1b1EH5m4rcq1TkXj8IKvnpCCeso10mLvfL6xVFWTle/2O5A97thFzu2yVyx2zfaOHOy/0804pSe0Ou2MjdDCL3Ep9srgPWkpc72mVU7oqSDVG5L1zUEXM7iLudlzvcLh/mTsDtrNxDu0PvKOQnyh0UZYmCWxa5G5fIgHXgH5buaJdRuStKNoyU+xmmEXK63LfNKnfG7p7bZXIXwEfufqH+YNOQOYbcFs34sbu1yl1RciEq90MiuZ/i5J7qc+czGUbuwJO7vHTv3I5HSbnfHSf3SLnOR+6bYswWuuNogMGo3BUlO5jKfTa5D/d0TJN7OnKH31NYkyOSgdstYVjOy7052xbeG4PnbOTOsG4eqtHtMip3RcmFxIHqkZnljiZ3uJ2VO9/lLpM77O79aqrc0eHyCJW2PHIH899YLZqR7TIqd0XJhbEHqlK5gxFy37Y8ubtSPUhn5HLHAo5w9548cucnC//LaKb7MJW7ouTCKsh9WxK53PcL5A6/A7Hc02rH+6dH7vOPdy9Htcuo3BXlJ3tnz+K4FYVhC24+yNem0BKyICziEDCuDMZVmjSTKtUkTYqBdPlHKVNKVX6BgwVqJGNJEcaWQEpw58I/IU08zGTPyPfj3Gtd2VKiZxNYGK93bGkfn3nvued2BabcT+ep1pQ7Hrm/BruL3A7ITJb5UKldBuCoHZf7mKl24F5j5D4cNIppS7TL/N3LvaenI2iWO163Qx9ki+T+kUjupqzcLUasYumK3CfmAKHBddVZL/eenq7Bl/sbObl/Jajcv6Tcrib3V9rkDlN/WTzq/KzHHRi8e2fJyN26Q8rtOpH7eDZoFNOaDQWV+8js5d7T0zHYcv+Mrt2VjmHC5X5Cl9xP/6Nyp0p3keirDB7dOuRMDhuz1Q6MFCL3G6XtJmidz6yXe09Pt6gv968ulvvrenKH0h2T+0cnQO6KPDn3YcQU8xjUzmYiHbnPxoqJTPNROz3U8ude7j09HYEtd7A7Kndhp4xQ7gq9MmguA/AK95pyf9yTZDLkDlN5AfykvAf6OSY3Ktvfk8bq5d7T0yHYcge7I3JXPxsbQndVuauOcwfA7TXkfuLOouQOaleQu0kV9yPx5qWRNWiI0XvyDM1e7j09nUEk9zdKsczHguNT+XI/oVPu/NL9oxpyB8bDM7mD2hUmBtjVyB0SGT73d410Qs7eU2Fk9nLv6ekKTLl/A3bXIPcTiNy1rah+CKX7GTXlDtxP3lUCj9xNCOyFjBuI3u331OgXVHt6ugJX7iek5A5qV5G7zPABXO4AUrnXi2VqMUMidwUe9Ntd0e39PPeens7AlPu3YPeacue7Ha/cX2mQO5j9VnIfIpG7CpNe7j09PfXk/mx3Obmru11R7rjbsZm/tVohazFCInclzF7uPT09deQOdn8jl7lz3F5D7q/kj1CVmQp5M7lPkMhdiaH2zL2Xe0/PfxS23E92pxZVkcpdv9xxt+NyB64m90m1Zf2uRuTefMv7rJd7T89/FJ7cIXZ/I5T7VwpyB2RO6mC5HU9l9Nt9oKh27vQZiNzbI3dun/vIHlrmwOrlziCdVnCNHjbRtIJj9KA0L3eR3ZE+SLVGSFzueCbzPjI4rGbqPlBSO5Wp3ytG7vcje/JwvdM6TJbWZyYMJ9Amd9c5Tg9ltisMFbx4l2blYV2WWbqLPaMFpKTC2qDId8fyMD06udF6vMgJsunzG+zEhjSFExyn5fowzYIo5z35krwkjI3/K966Ssp+VBE5u50TFU3K/ZdfvoXYHZF73S73+pV703IfjSXVfmexxoLRkTv+8WCN7u6x7a71AX2D1i1qxpkWuXvBivyLPy0k/REslqSKv82cGxs+DslLNu652TP4puepZ9BMF1IERrN4TrbySZVwXzqeREU+T6qXZRG4zAeSCstWfDgrUS5kQG/ogFQ50rfVcevDZVgu0rghuX8nsjsud4An99cnuQOo3N9XimU0BzOPyfSdtNrp3MVSiNzH8GAQfNPH7FlD2watU5ij+nJPN1WFrHG95+mesAlXaWHcBKhGgZ1RwS2r7k8yWmhLIsXaaBA32IaETbIWeiUqfeZVWTgGzeH8JXWNDZEhMhBWZ29WfnY1jox7Yp+6jcj9u5PcaburV+7Nyh0Aszch9xPWBFc7IOxwMfmJjD0AGIIfDW6CadeUe7ynBRIgf2QdEhHz4FZF4JpU2BoVHFoGy6h9co8PCRGx5erdWQkuCu041ycVAqNjhFrknpMqK1FBAGwyrwG5g90rsbuGzB3WU4EaB6jCbBnc7h89/lLnbQF7j1fcUJtzlTx8UJjsC4KHj48bYNWSu8MUycHgk4PauSRl8+U7HjSE1W8iY9a0QcvkHi8IRpixL+WcCDl4SB6x6Vgw4xItcj8SwWfcbkO4+I5+uQvsjnfL4G5Xlvv7euR+4mK5n7DHHLWfF+djbqM7f47M/UyYnMwGt8S0L5f7DkQtqHmpux1nb9yAvUjAJWFzbJPc3YNUNbpy6T+5JhjLAvkxpTQ6RVxD7vw3IfFeLrUSIVPdcv+Bsjsqd/Uud3xFFXc7CF5quEw9uUP4zlY7wG50xyb7jt8ZDlqJac0ul3sEKkFqd1CIHKlxfVJRdnokPHbtkTt8ciLMvfMr6RMcPz7/+0iXO2YiLXKP+VfWXRGEradZ7ly7q8v9U84Re2jmjsgdbYak3X6Z3c9q6Amqdm6j+/Ap2OmQ4B+1btfqlnEplyABbLEkcoSu0TD4qykREYDS2iJ3NyGybBnRAs4mF/+sszK6hKNF7iWp4kDdviIoK0+33Hl21yX31xJy/0CP3MHtFwUzlPAekIEAnEZ36zms6YbgK1qvIfe1KDbPGUWOTyRZGNcnExTunsjZ87bIHX72UPvRyFuQCyt+hxJhhwi0yP3snvbhKwvlO72+3Hl2h9K9eblD6I73ykg0Q4Lea8p9MEbkzm50fz7Uo/2CP2l9aOsaPxAREQf68Rsii2NcHW/D0S9e2e7aIndjTlDo1c98T6TJxIHz1ugQqbrccceWqk9/1Cn3n1h2F8j9hILcwe3SB2TLVO7ANeU+wY/RMyGRabvgzZmtd7bMlnCBXhMg94ksS+P6pKRKRImfy7I1co9D9dI99ok8SSHOc7qUumc65L7mvQGF5KUII41y/4KyOyd2/+r0HyL3E8L9qXi3zPsgd77fZTapgtu1y90c2iPb4jS6QyKjyv11W9tnugeH5dWtS7vIyXxBkefNVerD6+ML2nWCit+mTrSrdqVEbZE7JMAoc8aLU//G3aS7O5kOGuTuJbzbZqFQyeiTO2J3ltzVhw8ASLMMOlumWriL7X7hJiZ7NLJNttxhQos9eKZSp9uQyKhzN7getvapkMdKHwUd3i7V/ylB3H11dqIF4W2ljZBeGz60Ru6efBnuGs9MCQLd6Qesb3/pFFHVb3TR6IGISJPqlPsXksmMPrnX38MEbtfaDPlCezO23GH61hCK+3Pac/oSD0vjyF/aeEnM2ortyrcm3D653YoclsAX9h4jZVq2Ru7wIYUSIZaTa4OKKLt1hpWy3PHnyOFDT2H5Q5/cn+z+3BH5i6B2V49lIHMHsDb3V4qpjFa7v4wrTKrRcVKNMwZP3L2rD2twJUb65e6zao88ZK+Keksiz864Om4oaGKICRCzNBp6rZH7+adUmITIu4wkZth37rdg99ll7OvJHW53YMW4n3BSfXIHu3OSmRqV+9fqclfYoQpy17RL9cOX2rPZcoc8w5I9a+neHo3bVbpb+g/r8CpuY1WBKd5uEq6ynRM5u7ScJ1Q32TVJKfOx/x3N2VqLBXJfssiMpiiSt3/xIYi9R9E4ZUJoAtFa93K7Xq8SmYi47OyS6lJB7qqjBwLWO3eM4ijbML6gT+58u9Ox+xOybv8akTt+EBM+9Fej3U8Ph9RFXu4jOWMPJ+P2pO5D/XLP2dXakbksmjM9kWTuyyG15eZ254PMqVSGHayW7Bo54hsjMZoAFc6mjA3A3YrzlTipyCbNn2c5My5biDTEZhcHSgua8yfLFjQ7XUMhtymTXL74TzxB0lU+fTFnpEGRZrlXkhnE7ojbEbmjs2X0yV3N7h9+JCN38KL5LErE108PQwSPDHHvgNyLSjnLKoEzpOtsX1A37Dq8Te1XUKk/R+5T9oKc0yK5PxrHP5817+3FewmcECLggCV9wKMcqaeNNd+gZXOE7JpVI6ydjsTcHUn0uvZBcCkO2uQusvubN79XF1VV5X4yO7KiChtUJc/qQPrc1YcQgNsfYxm23EG9Jnz9CUtk6wdoXwfB3z6WmemXuwuP2RhAyVxb82V3XueZPzdwnECFSHmzYsBbpFywy7a4TXKPWHPmA7E34etrF9nokyOd3oXOHaMrNCUP6g6FxJd61EcP5KJVU7oDfqNZ7ie7/yRIZhC5YweoAgp7mBRK9/pTCJ7+xMui1mLJHcQ4eluRK5yDigl+OLgOZh2544WPw2zFCxh2pNpOaArFRgecUrkrruAVjInLLNvyNsndcJEik1oogYbIjWNU8OiFQRf7YNS6v9ZRsL8aRf1wxKcczTVvKdyMEOuR+59/cezOaYiUytyB14jckT53VO5Cu4O1UbU/86KRZMYdC2Y9PsJ+63YLS2QQwV8/lYEXKTwx+2c1ue9ZR6xNmXfsCt/AilNf7uoDQugab81qMdkYrZK7lMpWrDabeYGvOmLPvNC6v3Yv7uFPCn1DIYu6fi0FH0OO6FqQVJPcP/ntye0QzfBzdzyXqXVUh7rcsWZIOb3D6uuTdkcnvVnCmY8m/O4dLJFRELw1uBaWUOtPKMr9wBgQfmRazQ1Zz9siuVNjWwWGmzKGbW3bL3eHP9MEsuC1xLGBCfrJqHcgQCDsuEo1viOegYCOHhC8kFwYLy10yf0PsDtVuzOTGf1yf1VD7gK7V+tyvtoBeiMnUljb90gioyD48WxwPWYCraNyx+8uPy08d7eiDMlLZTZum+SeIsnCtFJL7nKjCCpGC9ov9wW+CzgPZM4ZXeKO03CGLeB7MOlA65kugdqFwkcPLAXBSygep7rUJfdPPvmVqt0Ru6ufwwRqr1+5V1ZTsdQdFkv5Zgdo9Qrlbo2RREZe8OPJcHBVrBFL6+pyB3zZyY5r1vSYNsmditzVzuxJ3NbL3Qkva9DIJWbUBk1U00BKCVPP6SBpXcEG/J+FDuIl0yO9AKJJ7id+/OItcsnMRXuYPmhE7qdfUrU7onYVuUMiIzhHr/1YQxu0rkHuKRGxF34KFK2S+xJrXtgiz992ue+SCxsIU4kRtXHtxj5gzd2dH+vO9jJqVn0UZIf1Yrsuj05+wU1YCF7GBukLinXJ/fNPPvmeSmZ+EfTM0HLnj4SUljugIncIZhC7i5J2YPCOicsdEhkB7ww6j6rcPV+ucC9Y5m+V3P9h73xeHCmiOJ6GWkYUZkDbwyiTCQTFQTwEQhBZUMEfIHhavSiurILgPyAs+E948uhJkpNePEbSkEt3TCcTYpKGGdbc5pA/wYvV2d556byqel3pqp2arJ+ZWXcnM5nJZPzk5VuvXm15o6U3SnecOC739mznCQ/LAhtuAuLHV7bZvSF7fO0FJgdoRlHuuhfgW83RA3Qsgx8y22bkfnzM5X74Aa7d8SQCsDsq3okTVCm3a5TuL+Xkniletx9S9sEVyMoFcr9HJzLA/dtQvJuSOz0MbKj8sIVTcifWU6nJiaHnrtwv2pNhn/iJaI0hm2o98dEnlDx4xgwT2x0KOUPXT48ekEZIifq3KTQnd855viXyU8LuxeSe38NkRu54QZUgv6QKrhfKHeaqg9wBlMgo4c8CbjWE3LWmh/c6yvim7ZTc54rQmJ6t1fUclHufM0Uzw3SDk05f9KBNhlaJ4cOkhpJ3W/8dugo0Rg90lKOU5ur+0oXBWCazO/gdnZotsTstd6J0h/OxAcLsebu/QJMtqQJis/NHigocmyGROyQyNPccOB/Vhtz1q5/phXqSe+KU3BsFHnqSnvRYUbXcowVm5dkmYgoaJYrbWOPnZ6rZPRqJGq76HftHEvZjndEDQKgsAeYMcWmqcj9MqVbzLZGU3bnezckdLalqnNdRyO5Z7E6oPZM76B3JHSUyBG/e5uJ9B7kHQyaiP1KbeOo5Jfeu4qGHOml00KFHDercfvty77e1+klwsGy6XYZOwGai5Z350xgKOW7vVBHEqsaeiylDXBmMZarpS/UXkPt17f5zavf3c3Z/A2p35YrqXY3MXSt0B7nTpft2IAOOV8idc/a46m5uyx0Smb0v3jXkDqwigQES4v+illeSbl+HhV4NF2k8kF0G3u2Se3TZ0WqfpAt3rLKG8cOkhhZOdJmyIkTt4qMHgA5D9JInJX+PYYYGK3eu9pQvtu0OPTO4aeZ1ona/S8od0JQ7HkBAg5ZRkdn5FXO5b+l9W+51OpGhO97heOr0MFZX0ZE7MBpsmyv08vSdOGpJQa/gFst2j+VZctfdKrmPL6lATD0RcrbTgrS+tmjGidXkChiPNEYPqLp/+/MgLdsXY2ZR7oeZ3FO//52L3bNkBrYzZcX7i3K7o8odraca2qOqb3da7SB30Hte7s0zeQDjyy6rCdS+MXPXWb3ryR2IZ9GG7yaBqERy+hjlceE+zbC1edAIDwZuk9yjLtdLYS6KT3IJUHZTjq61g0fxN02zDIo05MfoYsy41+ozwILcDzmZ2rnjz38DuWd2FzbNSJMZ+QZVwu27lu7czEbUjuXOOTvJG1zkbpgcUJNd6m+7PT+3y4GmyZOT8nIHOvPGoNVbDoaTUSHRXHkuEeg8r7gIrwZLflMvw8Tzbpfcx/ybBjsTJD2N8bpoH345kjGjaBmbpEaz0ho9QB9la7dyr3Ie/8GbZn5BW1VhFIGgJdKI3I8AU+Nl9Mt2kLsm0BtPFO/SgbtwsV2kAREkRLTcSyO6UpfYNVW4bXJf07+KvQIES4aZae3wNTcZoPTcAXKhgE6ACHmvCPkj7CyoboQyh2s+A7mLavdXcjOAX9/WO54bZtrusKAK+5hKmB3UTsudbok5lUTyZyfbbnekdvebB0D95H+5C9YDb1zuyUhGYCBQ7oW02weizws0VqTttikuDI7JpGlojB6AXEaLS3Nyf8xhxt+PMrkju1PLqljvu5Xuz2nKvYTYwe26chfPcvTfJKdE1g4wfuXpAwERUPPtyz0S/Cq7RHvbHDcu9ysmIy4vd7wQjJkRK4uE6gIPMNLsjh9mShMXr62n6Msl9MAKpkXDXOaemh3gwTvIHdmdjmZ05X5ELKgScn+hhNtB7aTcCWcXKt6hcHckmGnige6+dbmPHc/c2yzPau/lzqIJOb6L7gkEZobkDjSYitgzQGdRWO8hPSMa0WU6TIzJHfMFrt0F+5neENtdv3IndqhSgyHLqh2olEhk6OK99qRwd6V09w8wdetynwq267kEmj6w/3JnrKH75ee6u8CMNbtbe+IXPNZ7tBwuwnl7Hi5mkq/aJUYPRIHmqnBriX66tuRezYYRPMC5Ox3N5O2eb3R/2cxsmXzpzt/KqR04quyWyPi1ei6vbt5XHJFaPxBhtx+SzmSAU9tyx74beCVZzHQI9eQePgtyZxO9iUGhTqV/YTUS74NKy+u91YiDXFsvcX9RoweAuWo9uMXytK3IHaKZbIQYR1C7Y72Lm2burtGSO2323GRIzQXV7BPA6wD/2pCp6CQyPs6rJcU7fDBW6tPn9ECIb1nueHWs79T4gXAP5d6dcQa8aXOs3XDSIN1u5SwmOtYAEdqkPWaY0S7DdBqKp019S/PcrzmGyr2aTgF+tN6oipMZXLzjaEZYu4PcEUjulkp3/rFSt3NgC6pGIuODoKnivb4+vdSR0N0/EFOzLPcuFkvgstzneyB3IGkvWgwgnz4tSLdjrrCq7PWhDzy7xBGRSRGjB+i7sRUEbIvAeOV+fLxVvH++lvuDa7tnpzO9L1lXfV1g97ubsbuxk5jQUHdOibL9iL+mPF+pIL3TrY1NVPNKi/ePXJJ780CCb1fulwJHuSx3+5V736rcMaMhEzAq6vYI3Pb0KvcVA9A2Was0qNbLmPj9Im5DL0HX0PeMjfzlUuevAj57ANPdU7vjaAZPI8DF+0bpXiKWISZDEnpPLyaq9rRpJ9NenRoHllNxTRKcn+Di/cwludcPJDTtyj1kiJVLcrebuY89AktypwPgy6Jub+ufQVuai4jdVOmeUL27w8J3StxjiG4H/5gHpuTOkdgdivdPc8mMMJrhyNZVoXS3JXdIZ5DiobQHsyPWbueQDS8wToCW+x3BZ7qUuR8cKHOZk38syT1miJbLcp/sodxF5WiPKDWJqbfEaR0W7+HQswuOsYbE6AE54ZLlaLVFpxdeGpL78ROexO7AMX/54tEDzqef49odr6vSxfvzUpDcacMrAaGrvQ5Ve8pG2a20+6k43vCpc/jqDnXL+Gq5+we25B4wRJQ4JHfU576Pck8YplPE7dNY/+7oGH62h0/3tkpX3Qs519v0NlrNehHjRP3BYiQud+bm5J5aPPtPXu4cPmzmcy73FGx3KN4lekfJzPNykN1ppGbHak+rfUXRDnJHwQypdx9FK9IhYr60R6Xy1DlRy71OyN1sDr1wSO4xy7PYR7mL7oS4gNv7ox3ujvLJyJQYs2WVK7XcZzuEUEGSBOgagMRs5Y6C98z3nIcPODm74+KdzmbA73TtXlbvdMUOZge3g9xP7xeY034CpTva3OmfyZsnfUdSGbXcmwf25H7JEOOOu3Jv7KXcBwwxp93eQ+ayPVsGp9p0N6T1yn1IjB4o6eWeZ0jur3KOXz1eA8X7cfr2hPNfVHYvms3Qct+xdn9O2+sgdlA7yN3/CFmZ0Ltf42o/9akJBPXsUjc2qKpjmZpFubdFwnVH7hcsz3Av5d6isusJw7Q6Hg1uDbQ+1KsfeBZZ4t8gndED+seOXxmTewYE79AWyd/W7zv+m4fuxe3OEQ+beRn8XqIfkl5fXR+jreQIqz0FJzK03jF3FPtTOX7dgcRdtaB6ml5oVu70/NO2M3JHZ03spdynArlTbp8FO+2HXXrlCHpGpigaXJ5YKZ6mdHRvHX6YbRuX+6sQzaRKT80Ouj//7tHnObujaAb0Lq/e73J0qnf+h3mw2gE6kaGHy5zcp1ps/LoTE39rBwB6qKkTcje+23As81QyWQYW5U57r3fjcu9cyAiU+VJbcRkxLmZSItruGO5VbDCSKPbKMUp0vvycGD1AQBy03veMyf21a7lnMXvWJ3Oc65Csnv8Gdv8Y7I6Td/WW1UzvGqft2Vc7UEGJDMmdLb3XC0yP9Gs3X7crNjFViFjGzqCQ8dzDBPNuVGC/XmOgQ6gn5OmNy31H5mwZBmS5CMRqtzdsnnaiP+/X7LODRdRtF9+hOpKrf655H00Z4tKY3F97LR/MQNGesrlt9eEjYe2uUb3T4fvRpuBtax0Dg8P09E6tpN5vbou1jkaoP33qslTG4oIqhLKY2QiZfQybsa1BjyO/tXJnbCo8aSmYMQEdZefhamfPNIyf1NEyvg9usT6Vqh0UmvM+VqwvBJ4G8YAJGBmU+7Xes+6YTO3Xfofi/etHa7fn7P6+wO6E3qnGGUvV+xE0x0h4GeSup/dKxqkkvKlgTk75KMlarelXboymYvqAb1XuEyZmMMnOFgpG80UrArvahN49f4vlzpl2w9FW0NVnAvrqrvJpX8Kcuncnpn9XWh1c70YXpeXOGQ9WcUAOapht6Hn3tdDRasmIay8vd2x3KNs32yOrnF+y0j1ndxg288qfa71z8NKqzp5VU2o/Aq/zV9LtIHdN7tUV+1rvnVYcpabYTtUk5G5tPPe01+tPidLZLguWZ3675Z4ybg0XkzknXAyXVLd4yLSYUOu/bdOnY8ci4w9M3edRb3Y5CfmPajXsMSHhLqMHEn4XzNvxiK+UxO2wMZsyCbE5ub+Vs7sIkDvn7/fA7oLinareseCftxm/H+XgoY+cdGjlt0juOnpvSldSXcWvKzrum/bkTvvjJuWOtxzefrnTgINDVlLuLZMbVGcM0RU30IRm5E4TdXYZPZCwYnQ9g3IHu4PcX01foHwHuXMe/obtjpN30LvGtibTgt8Uu5r0u/jxvFrBas79QzUwUnJRreIwfl2xm+pf83IHBg7L/YLl6T4Tcr/2UlRW7lMU9xi9DdGF+P3T5CnJfUjUAaXkPk6Myj2zO/REZkAGfwxuT/njt5/ldud6B7/Th2iD4AnDAwVydWR1Qu2cT37it7GCJvue5v5Jd8Hj0cBO45+iTMbmMXvAKHJX7t52OfZMyH1iSu6Jwbyk05c1k7SImtei3EfE6IFScg89k3JHds/JHaaJVTd4+B63ez54R8U7hDP4JD66gMdjI/VZ997QYl9X7T9Vq6ncUViel7s8WJetpDrPSW2jbPcrluUOhA7LfXtfSvAMyH3plZC7tWaZK+mkiphh2nbljtdMO2j0QFm5Dz2Tcn8b7I550he5bXfeF8nVjvQurd7p+h0ET5NqO33Lk71Xi+yLfvVTdqsqyMxI7iq94wbI24DfrNV4384pfLcW5Q403JU7WiXbf7lHoxJyt7YeHStaMrvEFAJbcu93iL6gMnJvBWbl/vavYHeh2jOqG6R7Vh++B3qXF+85vaPVVZTP0H7HRf3uPD77L63asdzPTgTNjcJx7/TuVZpm/c4d15pq7MgdGDor95DlWey/3EPPmNwHxqa5Bz2RwBXHd1zal3sU06MH9OUOs3vMyj2zO8id/+XJXze3qB6C2flrSqb3TO6y4p2D7I7Kd3Rkk20gkDmvckDukMhI5c45obey1oqb/c17LvZMWpI7MHRV7ig13nu5Tzxjcg/MrVislDMSLhkmti73ULHyPvPKyX0WeGbl/gPYfZONJVWUucNRHg/f+xhqd2R3FM6gdAYF8DB/JsWS0IGvuNrhQQvkDlk5kjvWe7kGyNpH9zaHFDiELbkDC0flvq3k8Z7LPQo9c3KPjVXTF5FyzEBnyhC9wPKv4oQIoMrIveF5huX+YWr3a7kDEMwI5Z69u3r+Xa5pRqr3F4HXpX4HwXNAwXbUzqP2b84PORu3qgKJDCF3pHc8MJLGr21fhUspvTW5A+2pm3LfLgrjvZZ7P/ZKyd1W5D4gSvMJwyzsyR0fMdjTGT2Q0PeCeblndk/1/tZrb6Xka/eUfOSezY3MlH/+PVTu+eI9r/e84LHfwfCg+NTxAJdzabMDX/1e3X7YOqygcMTHcgeaZwq93/GpHnPBZ39UcQd7cgeSoZNyR+3L+yz3q45nUO44hzbZTzWjIvloZFHuA7hyYvSAttynq8AzL/d3uN3TYCaHSu6H4PbMjOd/fYlyd6jewe75dAb8jpZYpY4HUlkXlTpWO19F/b16PdG4eghyR92LIrkDpzvq/SQzO6LiDpblDrOTCJYrzz7q3Hh5K+V+MRwzki4Iy4jck8jQekUyJdU9Z8bOWo9bjKIXEn2a8c5y74PazcpdbPf8RAJw+2E1i2Tyzj9/N5M7Lt63GiO3mmd0BM8N/x975/MaVxXF8ZeFdhcUHog/xjwZqo6j0eo0NirBHxhSugpZzMJQxJVu6kIciqiMvwgugwguFNyEuhGzcNliQUEJRkdCULFgdy5c+Ae48dx7z3vfd9+5kzsZ59VOPJ+kZjpvmjZp/cyZ7z33XN/ywvhQPz6GHvbGwC4m5F38qNxFmiLlPr7eYfbhQ+PrXVNF72M2l14fcqf9TAc5aO+KkE/9yD67H6ZR7pirOVQqJ7DrZjJylwcTTW65XdbGCxPcBbR75esDq3YRL10WO3HHk/seDxuuQe6Lxu6niK2tU46tqt1nDSJw56o3Z/Dlk0/JaAbFO/wOZP4uQ5qA6HPXW9PTjwhiEfWLgXdGbCl2TwQRuUdPXL0h3BoD6grd45tSm430upA7/W9yITiiaW//p3GkWsfE+T+nU+7E5d2fd4KC/3HhBErNCcldBuU/Xp6crOTW/N3wg8aFvlUsbPEP8Zdxsru43Pd2fsZfQg1yX7Slu4U+WLxghnvdUbdj1jus6Pz+UiSagd1l/B4XvKzmi8zGaN66XtT2MmkfcCcnSndmBLk38tLbqDHJaUcmioFMmL3OWCY+TmYuvS7k7gT/05X9BRoIuff1Vws7F098t/vLzH/IXjWXmWp+u/DTie93Fq66b+/VHZpPWMvTptyzeXFmyqBv1ZWLO+Y7Zb9V+8O/Vd/v+US+o5fdp7Wf1/4dnPjpAv6J1yZ3Y/feqV7vWYJuVe3O6rPghFWv5EX5/tzLXLzD7hbh91EFLyUvNZ8HN+a/IFy03zmLVx/ekxTknmalMzQCoUnGZvTkHtc7WmPANV5QlcdzZ43rRO7XGVdELqOMswp6YUaJUKPcN0juZHcD3+hVNq0igIHbHYjcUdYPvnzf2V32zcDuhLA7C14QEbwo51n1eQmPpP4NMjvhfxn+cAXndhxaEZR7pzplazk+D5hbY6I0kppJjwk6qcpd8IPo1lZG4Wo1h1Yi1Cn3R0zpDjiBL8u9KG7RJ4OwuswsQ90zfjaD2l36HcDvIWB4SD5iedI8id0V8W9aszOVpyhswUVhTjTDcsfpdFniIG9PiGYiqLNwR/mucq+yL7JjJc6uyOOVCLXKfYPtvkjYm2h8J7Ci6huRhS/lzifyvfK+J/eo3RHP0PsQu9M7iNqdq3jj99fZ7DJa8ns6Z/3atpMQa0LukOKE5b6WJbWTHQvS7KQqd9XUpLuM9vQpMULNcqfSndlwdkdrZC532J2P8oDxfWkCk79/dAsQchfZu4hnoin8KIp/ojD7rLR7+SBwS5G6IFRvXSu5L9eudsg9XL6r3MvsVEekKBHQ5I4mIyVCzXLfIK1vbDxi2KDbeWsk5I6GElvplqOaityLCDtfX331uZdRusPv4X2rUPzIjr/pwCL+7Tdf2Byw2DFlwIvcceBUTO7hWEYU92OZfq0dMXu9ckf5rnIvuKBLg4fmhGZZh6F+ufs4u5emifGZHah00SApJ87IvGYw+PJb0+3OxOQOu8cTeBA2OxZQCX8XFp6qsE+LqMQyjbDcG951Ecs3lg9t9k5yzegcO5AsVbnn7B+pbsg6wWHWGmUdgvrlvmKdvmIxtzl2d8lMEbpzR7h1IYYBy0mRKNwZLuA/uq3g0iXf7nG/xxUfKNkHg1lY3cPLmLBRyyAXVH25Z8FWyOoupMPo/WyzTrPHu2UAtjap3C2//VidgKUczB/6dHgo6pe74VHG2N30RhYNkXkuQ+8lF1aCmaJLEuOBBQMy/K9sd3onxMpqNH+XlOWef3jzhS8GKNmHq50TJm/6pbfNJ5Vyb+NouqwxdBPryHpvYSdU7aBdJkqWqtwNf2rq/q9G9O7OKBFqljtrvU9Yu3P3jLV7LncCZTsmvctQBrO4CorVTHo8rbGaaOaSo9I4IyR/NxghneEoZnMgnluQy9gLUu4o3vMN+s1jTd68KeQuaQi5E51W3OzpkOTkhlZLXKwzdZdkDZW7mTqoKcNhuFgdBKPEqF/u/e1ud3t7u7vt253lznZnEx43FDL0c2zMnBleMlNGQyHNp07tl8jz914iqQ9bWCXBg7DezRtx/hsq2IMVO/58pUYZhDKwO5EI4nKXI9/lRDHJULO31+rreUfsHmcu/d/LfWbXL0V//G1GGVkvX302o0SoWe5/9fvd7e76+pkz6+vG7iuwe49yGQ7dCWt2crsFchfbgiB3bF0dwP+54gebH39qBV/IPej4Uex+/oN32OrRKIZvoqmzzKTkPv7AyGy55h1NeGUyAn//7+VeHXG4P6MM5fLX/jOhDmyIUb/cu9sk9tcI0nu3n8fui17pzhzPQfe7p3YxKxJA7sDk8K+89/Gnn3pqv1eafYjgz3/+wTvvbA7KB+XJ35NXBSrcWnktcoDc24eTe8u/tDbydtS0uXxNZhFg1SDG7yr3me91TXXMb9V3M0qE+uVOaj/tEHbv5XKH2wNbmzhv93fzS7mHYCEPqI7fPPfex5+8+26odIfV6cP58289/8E7m5sigglm7EPIh/3yV4WoKRE0fT23ssBDwnLHxfjASDF6pv4pYumcyj3O5f2rZfa1cXsYPyxcLfM/+3fy3xOUO6l9yUJ252CG7c5yP+6pvbA7pimiFIbyXRE9iIi23LrCxTxV85uWc+fOPe84R9i7BoT5JTL5YdD8GHf7LAp32H2EkzjWRFreHi73+Dzgg05lWkvqpZOp3BXlSBCU++mlF1+8n3hx6fRrZ9a3+9wQaUt3bnU3sNq36B4u570UGztXCXa7R1WuYeRjRUU+/JKQvEQk7vlXxnaPqJ1pNw4h97nIDqYbzg6/mNRNmqncFeUIEJS7NTvs3u1z7c65TGF3Y3Z3YJOVO2IZboFEw3gu90FQychuJMEMJy73gfcaQaT82I5aUbt8PRJVO7M8N3oqf+P4TDJgzxphvXeaKndFmXaCcr///pMGsjslMyT3LtfuLpdhuz9g1c6g+z3UMe4cauUKwcOpGBcs8Ttv/DulsQ8s2wlf7QxE77udZy0kTLxPvYXl0OWw3HF5XFoTPnppLh1SvqvcFWW6Ccr95MkHCbI7l+7r211Tu5PcuV+GYLX3er1846qxOAQtd65auYpNQ4zzv0T23uA+IfdwSw4eJuUuG9y9VyR0g+Ue32GK8D3eLJmNLffmxOcNDC/fVe6KMsUE5f7gg/fcc4+z+xLb3SQzdgpBMfvXmv1ZC93l5TK8d1XIHcCzxusFpbykomu+l1vm8RIA1+D9KrjgP59ggoJ9dkEDkPeSJKL2cPjeigh5XLefrWFDKiY/iuhG5a4oU0tQ7qR2tjuV7kvcEMlyp9KdMWZ/zGDsvuXkXtTBVpP2DTO4hNsBW7Zcz6N7pqJlfCaZ2Xh3e/kPF+74LH4wg8I9d3uPMHaPql2G72JupKA1ptvTieTto567lGYqd0WZVsJyf5ywdr8/t3uXghnul+n1WO3urCYWPlfuuTHRUCgrd3OzKnYvdvdyGpmWC4tD2GI5VYYxFv4NubtdLKYateevSchxUu2x8H0tIvfmWG5vp5Ms3GPleyPTWEZRppeg3B8irN1P5nZH6W7HQ3LRvmjA3iYeJwa3S7sjHSl8jmAEFJmJAQJnhNvzaxhJyQzszwCeOPAnpTcLu50L9/xs8F4vuWEcD0fknvoFuSjkaz2VKTtoNBgid11QVZRpJij31dUPye4umOGGyPVt7pexymO1b/BRHpA7Ig5XAvtyZ/d67Y/DF1SxfEo/DjipFY91mDwGF2UCxBSrqBW1E8btxdngyMfHpZPEcpl07mC9r7XnksmRRQe3p5m2QirKlBOU+/z86mrF7me6fUyHJBZZ7fmwd4plULmjnxBHezBSsuxYjkowoLEcwRSyD1bufkwf27bkTA6lAzTK9Izb+VXJv5d7ksRymWZ8oljtcsfg9kamm5gUZeoJy/3h1flVkjvb3cp9vcvTIUl4i7naV3guQS7321EEo1O8qOgBpy5ELll3C9pHlyLwBtVA4pVLBw6TgdEDoHnfFO756eD1yD31Q/pRBkbWP99XB4cpytEhKPenH55fnf/QxO5sdyd3nh9GbGxYsz9Kb0bvkHvZkraRELubfMOyZaFa1ry7iOXVW4XaRecNLiJ1BzJqj7jdLhZz6ERMVu7gbOAhmbcOK0bOTIpU5a4oR5+g3G9++mHS+4dG7twQefo1TId8xIJj+Fas3MniniVPObZ46Iwn9yEVdG5fWF66XZ7CzZc4Eqp63/zIk313Qygdt1zZzm5/hInKfTkq93gukyGKP0Dv/33prnJXlGkhLHdr9w8Lu1MuY+RuC3U+O9uewkdHNT3qNjdZucPt3Chu5I7dTaxo7HES5A4uyFdKIXDO9aFw5Ohc+qMvHlW7AQ8k8Gc1eJuXTBOkq9tXDAG5txu+u9O2qLjjEwMaYpJvvEVyLZtU6q5yV5SjTljuZPf5eRvMkN6t3Hl+mLHdilN7t7veJbhDkuUOtz9rIL+z3C1eJBPCqt3eyFXN9XZxQcodLwMQ/lTP+bPvDB8eJUGDOxXuG+4ZjH4kgWZzUZg3z8bkHs9lpPIl7WQyNJoqd0U52gyVu1lT5W53Dt23jd2Z7a49hs9Me++bzU3PWomz29FKiK2rnKP7R9nRBR9P/HmQkh/7UX6QJ3dchNvRAwm1o+cxjHU7d3mS243c6StOhNql3OVyaFzu7WAuc7Zeu4NOpnJXlKNMUO53WLvPzz9EQO52OiTHMevFOXy2dGe5s9u5lRAnaufWRuJdKBY3HHgA5hZA7rgXDvcv8TWAddSg2x+woHBHBz+5vd8lEqF2KXc5fiYu905I2vGtq40JnrukcleUo8twuVPsbmt3lrvJZcju/X7XnbBqDmsy5/DR7qaVjVzuxwu3Lxqs3al0L2py3+0+uAKwDuqF9FLuAbvD7Pi1udsfEPBqasnt5uXJOgGTL6fBuV8pdNlcO0Sx7T12DblMjaW7nPyocleUI0pI7s/c4exOW5lWc7kbu9vZv92uVTudwffikr2326fK3WbuFjIkN4nbDU8sd1GTH5eULpZlzZSvWOHD7bP8CSF+zDco3A58t5/aoje+zX0y7PY+PYkRSa72Us08fLpA4Hi8LBkll+mMmMu0JntoqspdUY4oQ+VOmG53yP20CWFs0G6KdncMn93d1OdYBm63fsRgAngbgg1Ruij0Xlzwxkyyw3GNL8Huwu0Y6btF0A0LDzFGg/uKdTu9PjmdQO1xuRNzy6IT8jC5TLtOucvJYHGyNIvIfeGEoijXHRdDcr8vt/vD1Ox+TzEbkvROOLUzS9QjiczdaNO6vTSYoCp3+okfdj+Am+5x1UKe/YwLlfRFjqDk+5HVl3FuB2ayL7Fl7uMGdxe4r7vsKWG1x+QOGu3RjtcInnzdicm95khGzopMvcpdUZTpheTu7E7BjJW7tTvp3bDk1H7SYMN4rtw5tz7VIz9yizgGE4h6PZh6s/eBc7t5wy+Ww2q8iwjq/QXccj+77WYn2O22Y5NwawUb3Mbfp/jJfrHJjS3oOyp3hO/xjNwv8RvBKL5RjXmaNZ+CLcdEzqncFeWI8MxdZHfumHmI5W4iGAub/UHCXIDcLdaPJtTgDU+8d/V4QO0mFMmxt3BZ2B1jvfhujAguzynja1bs6H/3i/6i49HiPprRvpA7u717xr1ESWJnbeC6DN9bWTKcTFpbRvHVHstG7XlM9XjVYyp3RfmHvTPoaeSIgjCnSBwjjThheVY+rJasHISMnASJg6NEIE5WDr6gPfML9sCJG7+An5C7f2Lq1auZx9Az27Y3yYK3CwXs7WFscvj6ubr69Z4IcBfdz5aCu+kO4gOivdm7SrjbummwHXB0sUWwneMBCcCSjJGu6R3kD9J3rXKK/9it3LtjvXV7yN+mycmuRD5kroy2367WtmpsfywBl4d7qtFYeBxU7wl648SKf473+v+q2mcH0qzAvahoX/T7O9LdbBlW7j/TgJHwGGSn6MZf3wjuJDbrdta9q7VOXf38N0mdop3FshR4D5vGlbBdfSZj4+mLwTBmuhOD7sisJgOPvzVqm9SzcOfMtKIpc4c/d1e4h7b1ZVLkB94n/1fvgZhEJgXuRUX7ot+PSPcO3CEju9B+YQfxke6AO3LuDnexnWjE1lW2kfyVK6oUrRhmVHwZszmvD/JHkU58DvhOVy98EeCxgdVykJF/0aDaCVN6bSoK9+YQqXjwm9oO0JNhUuaSH1K+Hu7VrIZmVd6XGUZ+/eenHz7g8O2v12bpx1G0kCxwLyraFxnczXaH584dqtQ5JD8GYOdBfA732zmddZDVFlMfyfYbCHiftw0jxWYJdJWAeJeajPEqYrpD9+e/3wI80jDOds0PIr/Y/vIzAy8lxSFA3fsXM5MP6XPHekW23xnb83D/adM2LvUo09S9H/n/sjZie7xqXeBeVLQ3+v0IdGflvnxifR4i2k+li+dwh2i4e8zk+pqdxgR3MlX1utAenjcfCu+s6iXxPSyd1spxujc7V2ON1G4u8ncSNjExxKLvo8Ka+KKc7r/agoEF3I3tVrjjD/46uFeTbmY8vU8aiE+Q/29qtBHcZ1G4F7gXFe2Nfj8E3U9ObBcTAO76+T3J7mxfTiEDfxfuXEydrxgPJ93RU+zR4E451MXzVKQ75S5N2PDBdqUW1SM+ujzy5nb3lu6JU69745EmoY6u7FQOiK5Ml+27wz3YGJp06T7pzVT+mSL//z6GqWovL3AvKtof/X54eMTKnZb7c1042pfTszPQHZbN+cf7teD+WWz3DazWmeB2JTs+zq6Lw7VNjnU9JJsjo/j5xSprDDUA9x6THlxXN8cY7LD97wi220Mr3NXQ98oj+XzQwH1163+CwR1/8tfAvRr0OzTeC/fJfwn38ZbLqQXuRUX7owbuC0tCXgjqIrvQDllrgp/P7xzuzBGa4c50+EcIdL8R3H+RF0IJ5+54S48t3VXVO97Dh49mvAFwGeuEe6cNJca65+bREHJjH4ooPsP4hLw9NGvm0Sx3C0GK7YD7aR+zu/3BZtsEU8bDs0TV3P6bV+7VkIkz/jovf7cu8gd9ytyqa4CNRrN68mLBuKjom+vw0FySo5Nj08nJu6Mj/MvwxQZmNf7Ct+Pjd+9eXM8LvHEM7JXFj8cnuAJqhyHBfYnjOihy3dEOsi9wax7VZHC/WdFYB3lpuN8yQGi6A9wf0DBSSLXxoLn73PH4UYGVcGmoz7HKKnxHk/jmBNboVQYZ3Un+aCIDaWYQ3vHQMzHQnOKPKzk0D5iffKsWC/fTXOEOzbYBaTXky3yI+/+HnnvVR8L8cqpUfQ3cxxUu2l6T3QKdo36sx19SVPSNJdRChvYAca9aLpvI9qNge0wVXpXDWDnDBJDc0p69e+eWuyNdWjra/dYLjMJzv7wxgHuMEMS8vTerWp0J7n3z6h8t2x8D567HeOh0F6OD8KB7tPSiSHcAnKumUbjrA4AGbTTY/jmqfn7E+JWZnjUPkoLW9lN0t/kJcNdWLbD9aTCenqf7pBdxQ31/Y2CcD1rurjotcmfZ5VSp3j2FU4/Si+rNdsruaC/VxPrwlFFU9C0lXDN3DuGn6vYhOboF96RuF9wN/jTNl2e45kRs7/L/yC13aQlNobMp2C5ZU7GfP17e2qLpb2L7mmx/0Zngs9DsyRR+c5db0mOCPxQ2i9kqatcI2ZC8F1fTrIw3F907RyuFza9PBHyrCPWwh/Ha+tOvILZLsAFMUHdiO+C+HGJ7PrBYbUCVWXSLT1+C//pvq0o6gyW87yFo3szIk12vHRpvZBLNdkz9pCrGTNFrEklLuAvtUK7KT9kekmuzgCtDUB83V4RaV0ZwN6yzzG/K9qar2NP7nxWWMXbScL90KBrdzZfxLKT29TdSewLBFE/4WHRnLd/48U73KPzb0GKcxy1XJrKNPhhsl4sfZb/mIbCdPYwpxvLtXQjuwfbTaYbt0mRze7vqXvRX37Lsn/8V24OwAd1qsFSebFHtfqGCHrLwZxv1Qqgyf8WOqg+Kir6lVLibTsj2HNxhw4C9w2yH4+KFO8p2r9v74W7XONwN63h4Bi10X8h8mVODu62n/uoJcRjudx+Nieo7c3mzJtyh6BQptJPopvZx16UR3umkqG6PIVXnDdzFdmVeuCc29qJ2l3DbeejBEpuM40P3EI+UgkD9a01RLNynQ0ds5Ok+3qxknPz04UM3IqmGA2xH+a8rgDquMsb6KF9Dh+qhnsHD091oo7O6N5hMCtyL3pzIdsE9h3ZdDW8+8dsTbi8YeVHhzisSV57XPD25FUM1tz02+9/GTy0JuboCT8n2ubGdSFRngktW7rGtn+KPBzO7m8emWNAMw4Y01tIq2a7MYlTnYvsvEX8xunv40h13+jGddVvB3dh+CV23stod9xDcxfbT6dnBQDI9T/d6yGb45qpGs1mVMdb7qT+sWY7s6XQ30nFQO0F4UuBe9JYVcMf3jdj+zh131uR9josyjiD2kCnDiwhvitdRKtpp/zdwd35DIO/q3qBoRETGxuG+kmcTbCfZTeu1P1njkRY0rwzfip9LytCI7XNI1Tn4rVaT1kI+RkX3aEAcaHe6ayJSJObushXpDmEEfQfIdivcz3JsH7bHx2/D7N1pOTVfuk/GVe6zzEZ9Ksebvdy4wL3oTYm8prJoV1kuuB/3ejJRuIPuYDZq+8OU/7HkSkdm0UG7BXaQr2FQ0tdTCXfWwmI7hdJdtox29RPq6wcU6ugqxs4zfto2ntm6ptE9FHyXkcLKXIo28ZBcGY824ibqREm6s6SnjW9S1e8zEcLsxnadFWi9jHli4NrgHh9AzJM6y7I96P424Z4Y65nl1GynBZE9D+SN0vezzXZjjfDyA3q1H6CKvmOR5xuyXXCnY4L/+up21eTgNkTDXabMwHKqJR/DjCHZgXaKF1xwPdUA/EhTRmzHL7INvNky89azAcfb87V9KXNlutWTW9FdLg0U+0a5lsoTq6OTsAdmdLAfo40Y4xxx1Rgz2ov6fBXXUzkMszeZzY8S6b5emxlvfwg9mScLiyZdHPN0D8v6DSSsh5dTtw0PVnU3HJOD+2SjJvPVZk1yxr2TaYlCFr1SBdwPN2U74E5F3Z6YMu7KiO3pTaNwpyUjsAvubhDxNmcMy6zmwCU37d9bvUse8lxtVe5WKpOmhLonU65N93hCtPMJnq1UyZtPI9DLgyHbfXowfs+j2WTrymDUX8DoztIdx4D4kX8q2uOGtvY6b1ZNne/nTvd70H1ltozPUoz1/5jEFjen+5uwA8aZtjLblLrVbFyPR8Pjw/8nhhdWN5yU6sHZ9E1MsUXfmQ67ymcmW7hrs1N6Bdm+YPAFcB9gu/I0ugp3k+T9N3Cn5b6ek5Zmc4DtF0/LMwh4tyQNRx/bblz3VqIbzd3i1hM9I+sB9lv8IOef0V1dAXALiM64WtaocI9o4z1H1chMhXsDdnOEHmKnEo116lwC3fHreBV9BHlyU2oztkufOsyo34IdUH/tcmpeebgPL6zW29ysqkvKvehNKGF73nEX2/vr9ijcF4vUlJEaW75lO5luNXus6gbcbZsS5KaMsX26gEB3hztGkXlRMy4JNOd5rFau8wnkrGdZD5HzUGwbxR3UiJd+TnMICERXhpOHPhBo9I+2iUxnHZc3tLa+JDhTm054JfPtPXCIbOfCxCDb83Sv3oIdUA9RbwPKVrMJ/6Z6tIsDNN7kAMDxpmsF2zS9rEvdXvRttS3bQWE2KRhiu7ANJWxPgvALWhJguzEdX8H2Bu5Lt9x9WycsbAMiPXr+suBOF4Qbg1Sh84htyHjOqv0jZc/uTcqe36qCR6ktGq9h57hu4LtHK+G/6cqwZ4AJdIfRzyQ8XJloImOeDkS6+3qqG+vvxXcl86/5acKGTrXL68dg+/Z0n70BO2A8NPdk3/iofp563L6X/CyT3MmU2HXv+8usq07q8axU7UXfXoH2bboUHPX2KIiOYs72SEGmroysG/Pbw4oR2hu4L6bA9/2a7J0/0JQB2390LZYt3CEFD5FLEdqd7pAadLWwJ6BJd8phDM2VS/fhm3WU7u7K8AVwM8+8eOmuJjJt9DL2odrtFO2hCHjS3Wz3G3Pj4crYJi/oWMz49MMudK9fuykTxE3eX65wn21dDc/y3K6GWiHk4zL5AHzBetHr0WGFr4PDjbsUHAHtA7udeEGwPVrKDPjyC7fldTOhPeAuy93WU9lT5g48dLbzNc4IdxTRLds/tjo3Eed3d/5MeIcslthW8YSxLBXRm5fBeolIDOD+SMtfrwC6W7o+msjQx49YDvdOPRjc29hmg3gzZvDS3MNkqweeE9qG7WkbsfFrZ3t3AppUQxPTLOOKRO28PY7ThdX0mnxcJt9SbPLqPjYVfbc6pLbpUkC092E7us54exhCO4aTQE1YN6lwTWu5z23nEVEJU0bJGtyfcHdHPrq1nAvtKJH5WH11Iac9vkyOd4Vo1qQ7XReMUl6cP/LcVsuye+MDvoKaUc6bjbFy4yl3fDxy+bC+d7g/oSNa59RAmkW+fKA+OtuyXXQPVr12q7caYOkssWtyi8XVdnCPgcGF1Tr7vtNLZyXcXrRHEtwpsj2p9oPtYJaoPbAqy6uG2a5rprLcoQeupp5OF4zWkO7w3DkMzFrhTvJKzeqlSS1cvIskFZaNHHTue1qT7byJ052+OvKO1uedrgyGMYjbsI884M6NreQ+sO5uvt9wxU8ChLtl8pnKf0KmXQd+4yLCfdnEQMX2HeguzWrR57WaAtUA+75UQY+z2fG8S54PzI93yd6MylJq0f5IxonKdqqf2pSonSncZcunonMDfF/gFCbrk8vVSZoyZLs3t1HHSBrcETsk2klzPAy2QxyTRHc69CjS2ZP3HsT1Kt+L83Wcym0ERyHOURvHKHyZx7aJDNZyKZo+ZtqsMFvcagF4aQ0W7Jtl83ls4J3gzrkKOonDM4b0aZjuUjUavWaoVHXv7FOl5EyH8tGW/B6mVKNxXUc3yc3jMvl+kZPXOsUWFfWxPdulIGkFLLYPTgFR3nfVXNSk3AlvZAfhURvbmZrswl2Ll8yjkOwBc7XVhXxMdCbe2xCN73Wi6xKRRXaKZyLGLXefPrrdKAV3mvXUXbMNFdEZwJ2JGE9uTpnNn/qJ37D9zXOH5e6TVV+T30nnWV9h/+oSjxmN+qafajIE7XqnrUH/8m6ueuC1S9+Bor1R0qWgb2cSozIubxd5MFS4J+V9S3Z88Rktd9+kNOfeVJgyS/4GhReCLeOFPXu1CLwSWC66q2X6hf6lUYfuTM6I7T4vREsyPwbk8QphHX8JOSv33DxlcL+a09ExydA3Y2aF98TK3b0XAh4i3d0uek+4M1Xax/aDztODfaB7j2Qp1amVUe0Ezurr4Z5fnw3ol3XVorevTJcCjifU7r9PHOOkPI1GeNso3JuUuy1O+mrqcoH7qjWBndDncMe4gilOXp2yLZaL7fS7OWgS99vlUfjlhmexvQ21rOaKO9p6Kj8b2KB882suqULqM9BIhj2OX3K4G9slpfMvuBigyt13gx30cfuFB1P9ua903/KU7XrbJjZ57RCXKb0HivZFhx1lDt+LA7ETfXkKaB7Tcl88wZWxyhzwvrbC/UxsJ929crcCuunDRfBSpxAZTFiD6+Z3s3p3/nPoXCKMIfd1+PvC943lZX7zuCO3UGmiwLB/pBDcafi7Ik2DyLvDfarsJmXnytKYaSp3dnFI4f7TwQu4G1W+L7oP43OLCaHerPM8VG0ZlymdZYr2RXm2B7WNWEOGuy7L+/JMubsr89AW7orEB9wx/sAYpBLlErOH7ylv4GJfT8Zlkj8cGp3EagJuHd7qFR/ngBDu66YbjAKNLOwfHe7szi7paNebBu5snyYxI4S3bZecc7FV09VB0hwshfv3Rvd6e7jXO5jfVRM0mtTVNnGZ0hOyaF+UZ3scvnfsB+vlDtfG2uhAEB5qg5CrOVLkVrjbauq7l70JAHeGGJk9OQW/8bUkyxk7bA7DsC870Y9oDro3J7Ea3X21FFc8Bb7X84A7XH2wXR8CyH75Mtw7a6xuxdKdLr4WTdkXrcH7mdP9HC/3JLgfHiRsT+Ge0l0De6p624Zc1WSH+nnWn2HMx2VK47CifdFhlWM784kBbShb33+xcF8s35uzvcZuIBbuWE2V2eMzxGJKuFuIUYHypR+zvVwC5SRww/azZjXTRXhDsXgKqW5/YmQRMwNfHLU5s+xYNKWrb8PsR9lpWeZNZCS/IZuUqXL3ye6EIt05dXjlrr/pIGE79ClheN9JHh8O9lTbwr3KuyP5RgSz3eMyqfZ23i3aL+Xq9oD2saA92Hksw3bIC/cn9h5ApjAK92g8I7hbpHylwn0pfJ+ZlkuzYEjrZkXT+Y4hw/tFpGpEd++vzl+3ul/4VpYdcGeuUTfHrzOo443b1SFMaugecGfCxwW6s3RnJvM94c5PL324/pDAvZfu+1of1tuZ2bOMO7JhrT/bMS5Tv4Gu+kVFX6J75gyPIbZLqrkzgRqHu1wXnKrhjjscDHkyytIs7OxsO5TUC3dxF9/VEHjpBrs1npQij0hXHeLiqVvgNGVQ9EML5tGJb8+y01e/5ATid282x3rPMmV1JN6QCRys0bZwP6JgXVnpbnFIiBtuE7h/qvrhLk2+F19mGO6ZqzOMzfg4o93iMqNZgXvR25QHFHOnZh+7vXw0BHeZN8P1vWTwXkyN3Z4X/8jCnb/QbTzD5uh2qhH3CgnfLNTNYafawj0Iz7EmVyO6MynzpKkBVyw5dcB0F9xX9+x+4BOFpdXlywju9HRwK3xBZthbAseYz0TMUSOdLnjqcL+YLmTLpGxP4S5NvhO4j7KwTjG9+wmpoWqnuMwM76HYMkV7p+zhe93C/Vh1+5fmAHWEvGerRRXuznZZ8gH3GzL09AXDWZ5bCJJNhanAO32X0+eRSci6AYDElPBN0x10ZxLSPx1oeGkv7v0qMXajM/MuTPge3cHgqzvcD11O96WX7p6FDLgH21PP/c/BU1b3dTNkfhNT/lKp2mb2qLePywjk47KgWrRnUuGeYbvgHubN0Reu88Jcy6XXdyrcdX1buf98zoMvbFzYDbH4bgz349CzQYc/6U7SajNpxNFh+XsgxpOQSLdo3GtvK+yvAu4WtDnlN4ZpULpfEu7it3TEeWmK17Ra/yngnrD9pxcLp1X/WXx/HeyrhpyWjN2eo3u+vcEucZmawC9RyKL9EpEFZlEyW4YP6SNgM9epI6Q76orKxGZWVva8QMuWrKkd4QI56by0VOSZYvcnUPDdS3cEaZZw11FGQyAtnR1c/qw2fyDcH5mEVKxReUY1rIxO89bal3jHf2r9eJfAXeeUTJXT1GDAfTbkvoj7Kd3319itNizc690i51Um5JJrM9n3ClVdNjEV7ZFErGA7NHydCvek13ufK2Nwv2UUhhDUfUX/xdLhfn9tZPX2iiGHO9i+INuxool3pjCil+5ku6fftbY6ZXd18d/bklkgRnC/JNw1zGOgaLqz3TDhblulIHxjmIYHhXDa6cBdlhJ+3XTKfCfhnrI9R3fZNfurWdY1kd2eV71jvCY1WzLQnxW2F+2Puqdmy2wZXE7NFPi67rix3G/luLeFezQnUOV+fSn4g+GS19ZEre8g4gkjLvf8Fxz1bAxZbF75dOpsVxp9CrhrF+rjFeDObvK82wkTL266X101cOfdcE/cWaU74B4Rzk7pvtCMwjsa3DNsT+hefdj3DaqmOteQK2+35wPsqb5ozecyklVderr/w94Z6zYRBGHYbUqkkyssG12BMOhiWUYUlihcIKJUJ4o0eQCegSodT+D3yCMy++9/NznPrjcxETni+QEh2CUcFJ/n/p39x/VKBFMGzCyxHZdYDduteldG4H4dC/eGjrt+IdBV4M5+wx1CWpYB3uR3qMnbbowfRL4T3ZH9aJrch5NQsXBivjzL+2Cryy1UOTKN2WBfA6eZSonae8u8YcAdrj8uwsY2+S1zffG5M/hgoqeE0j38IcK9wHbS/QGiNvXHj68+enBRYLsWykVVp/bRV5lXgE3202Pcwfou15MKd/BwadluN0a2M56g6MrI4LrIbk2h0TxgwJ2Fu7gbHP8HfgPubV+4T1Wo3cOJqCwL2nG1qUEcDTfrF1jxRPX3b7S58/2Ay134wRfR/TV7MSGhO7phMOIv/H4Pd/WUcJFJTXfA/WPaUz+P1hiqPCA7B+iyqlNvwM7TX2XmfY+u1y0aDZAx3K17o2w/Avd3S/Y5CtvVcdf9TJ6RHexIaWwvOSr39Zpsv6BAd8AdNbawnUev7IcH26d4TsL97gDuSywvNU1e4R6/2k6+x/gYwr2NtsygZQgXmRBYGev6yRzQULY73RMBAYtZ3m4vqz4V7lWdRHjlcHe9bkVmvyuyXZvhBWaFje+GrTASB3mAxy5ZRuCOcXWNtpIT7gwbCLjmitKdrs0ahTvojkSabnAGPwBCts0lIgZEAnfhN/Lk47osN++ZNt/bMg/6MHGkKvqM1w79LNMufbju0n0Z4Q4p253ug9jGOmQ2zqtCu0tJ89NsGdLdfonam9pdr1kAJtleNGUI98JG2ReiBS5xg/+rKdxFQkfsiLNIL7FBCd7DnbU4V5TuS7I/LEMhiUZ+xcEZUNiCbsf7CPdQnCNzGC8IbGdEPAIqd5629mLpTrjDljmIvHzTOf04Uc2z/YxiIE93bE46VJ0/oW9yU/PNIf/pMHG5XpeASzgZRHbRmpcfhY2C7kZPSw0dacoT7p/iceqwk1zprSnBh+zfge1dYyTt+XfYzT3tCu0y3T2ly/fhBYHrnS8TEofvZBHeumrX7Hu4t2s8ndK9c92RfRPvqE5U1Y8hy88pwv2ks9ZTbfeq0DZZHD9euSvjesWKLEWnYZnttOZl59GNDA0Ty/3qyhbuhDvQyn4U3nCycN8xnczAHUQH20W69y2fjdmVsV0GcEf6gLo/oLPYNsibv7uPcNehHGjE3L6PcA8Lw9El/OPNHv2XQ7hjVKrTvaiy3V4ebFr/bQz7xm+jul6v6GKLWCCXGiZF2Z1qqIObffLWDnAcfKlYN6MfJdLz3QDfCndGy6uGY/6ClPR8NNJbT1TDPaXrYTDlFI8AX+buJtoy0bNfoiGI85YC3PnhZD6dQjckKveQ+jtgu9P95NyZRfEuU9nXqZ/mDHlXu+tVCpgrsl03cis3ZuE+aHNks6BJJ+CJJcxu7TVUeiMdsk+SnAzh/raHO1CsOfS6SZ6iBdy/CNwlFFLDyxT+6JdBtBlsGV6Xgqffwx0L+uah8QkIHl7FLs6HbHe6Z1TGcjV/0qFq/dfzk6pFHdDuh6muV6e+cJ+S7QVXZrqccmt+J1wZwD1e39+zcB/iP4QPAO6sjAnwsKpw1+NU/nkLd9xYUrY/DPiKLTu/eAn1agh3PAP6Za7vJVC+75OEeMlJ6A64t7Zyx4ksks32uKP6IOXX6X6q3b6oDldmxw9VKx+f5HIdq8dFpGLp3BUqsZ3XUz+HThhtEze1fasHljv1tAdwF2ITxoeHBD3cl8wj0JxKSrPLDuAe1tjOCF8GEQkK90FmO2LiTaO7dkMi34ZwNyNSvWfmiXb7JpH3Mj9+qOoDNlyuAtyLbBeV2a7k3odOGBbuPI40gcDqegzZ2cP7wXFqfiAg8whYuOfhfh/gLvgOO9jOqInyYRRUhHv4nyDd14Q7Qs3ihVxzpNpKgiSGeeRDB6jzGZ16Kttn1mhZpIr8Okl3N89dLkpNDujisYV7yb5RV4bJLES3NW4I9+1hM81gBDevD1m4a+Eea3d2yvSi9Y9rSgJ3JP6umgh39YaYXImMBF5HGmS2XwLueiJ8cKSK4EqcqE4gNEE+VpMz1eJYH4ypwqv6WG1u1s/uhpjLVYB7ke2Ae5ntmtQucBe2Y0gdInEPcsUId62Lk3AHbbNwZ7E+aOIZpAp37TJfvn+Jce7yLAp3TTdDAM7wuBWnAqsO7usk3N9iZsgeDfbp20t+U9VqlrPbIWufVyVXfVPrgpftLhcABSnbi/ZNf5h6UXZl2AnTlcPmBqs62ridaq4IRTFuLAt33kcN1szBmTBOVHdol0F8DCt3PIv2Y7ar0LFp4C5r9GUuw2zVvf2A4kM2TQgI7uA+P8yAHB6hHqyeaYfGIm2357O8CoeqyDeYLxbz+Zn+h7pcebjHn5/Jm1c/HYY6uZg4T6XnYV0ZkLW3XQDjHNwj0ZkVqf8QpW+LzPYe7ush3Jcx1P0A7hr8GKIhw9ztPQ5ik6V7jB1Ow/3b8NeTjdsymfbFWaas3wxiBnxGksv1JLhTxZ0FtlODFna9e5oY5UG4wwef2k6UDu4XebjzCFWfDdJ9gPtlhPudVu52YAhTEgh3/mEsYvK27dTv+A/XXeE+G7J9Ug1hDrqfxQSmYzp67XRjoJ8u9l99Dr7L9QJsz+5VYurNfZbltrhvVnGotT1wxUQQFu7qyqj6RneODNH3D+jgr9lKLuRtBu7cgJu0Cnety3EuoHC3vswSucTtWpZNlzu6YQ4r9Y27MpP6WH/LPFmgV7U3PLpcJ8K9uLPszXNntDO0y/GNoSI7zLeA+7Zhk/uQ3daVUenIEJMpZhou47SlOwt3kTZDCt11osjDNxDxZfABxNBfE34ZjlRjvBnZdDBRz9gwmx9n3+a+MP55eZZ15VeVXK7T4P4ob760l9ztG8ThuCfMasa6xMJ9bzolS3DXeVBYTqNd08k6uMskVyaApXISmIGjlXscONIS7vwESvkyu4Zwh+oB2y3cJ9W3WNafaauMtdVnx8p6/UNuu7tcT4F7RSY+j39DXmojTK7i5Z7AzW1L3yYN9yno/Vi4pzNuEA325cbAnf00yJ3/GuGOnkzzlAHu2i5jzgbWIsAdmkdn5uNkYuDeeQzzjy8ZZVLNNpuXHRG6yHrn1SLrvczdmHG5Tqjcn8e/sY0w++hVG+eG2BStcD/IwF3zBC7ylTtHNGFD6smE3SjMA9zvDNxFg6CEPgRnaB4B7ttW4W5Ld4U7NFvUvWUwtryBal7rwLuXUlUbu90s2Ooc3PfhGi7XU+j+bOY8ccn2cGSyZNwM3P4UbdWVSXRCsjLPT/sz6+ZhdnuB+697A3cbcfbpM5cPTXfRtk19Sg0CzoZLI4X7oBelfjG899GPm1JSZP2Q/A53l+tpxsxzmvMkYmyE2bIRJtks2W4DNE3hTre7DHe6MuHPHhvlumtCqO/tfRLuGisvKTgKd/OC0b+CWLrDP/pP4F7VozmTrDaLxWJTlYfmLXS9cri7XM8tzVKflF0Z7Q4nuW3lHtvche7Av43kgi2DXBkCNQ/31DOZRverm5t7juNQuKsrjzndFu403bdZuGt85Zsc3D+M6EZqNeoAxWpRnJo6c7i7XNSzm/PljbEoZ+GeLXffiBmy0hF1Bu5Lwl2WMnCfBrZPi1NDmAt5e3NjK3cRZkbFHJxPOg5QnzNeUo0fQoP8GxuUMEnq23hupFb1mKPPzdOlbPf5WD+ZXK7/VVK5V+FbcR8TWbY4heR8JUvEfvxowH/ClZlqhG8W7siBLMK9C/29vr9HYruB+8XBRCjCHeqGYBv7yLjuSbibPIKPkxdVujIeyU0qY7dnDlW9FdLlel4Vy/bDDhM9hDRsp5e9X7FwL8F9koV7YVA3Yw4wJvW2gzt6HW0QjoE7FunLoHLfMSw4C/dS6f7jxWBkPY2xjYXWkrxgu9cjfOlwuf5rleGu3G5XnZORK3bfAu4yoW69A02TcIfvkoW7bGHGb3mYa4D7jYW77gi+jLVl9CZtmIKdhrvSPWc3fBhJwK8UvWMt3dN2u8U46O5sd7n+vS4GRoba6SnrJsB9z8Ide/JXlDJwF5n1VKM7eiFvb/Nw3zUd3DmFb9j6A7qvGnL/QLT/Fe5W9Q94Mi9sIvA0dYxnqgLsgjbD8HYfaO1y/VOR26ChaB/sdItDZNQQ7u16Z/hv4T7Jwp2uTDFaHoP0rq8ScCe/4yBswp3rarqbk9+kiXTMEZm/fNZAb2qP7iqQfbJC0kA1m7nd7nL9U3HynLjpxk63MejtftUIS5X/uk64ayNkCqhBj4H7bs9Belc/DdxpujMtgfnEuq6nA1m4s3QXTcatztUeXURL6sE84NflGpXopreBhavWgFuJidmjTYPpdMkLrKaLPQn3acFy5xXV5n1ol7lOwF2Lex2EjQeyDtKq0Yb8RLj8/wz3FzQ4rN0+XvPI5Tpj9Zb7KsB9RxhaGhLubUvjxlbu0zLche7vinDXwPZfx+C+00HYfOjhP2gfDlT5IpJ5mNHDfTFKuGfs9jE35Ltc56feTQ9tMGrKpDvD10L3tfI/WblPj8FdyP5IuLcd3NEO89bAvfdlNFv+4FWkXa0C3LGUe49wuP/VKW9ZL39s4XKdrWJN3gQXo2nMUWkyBB17sqlg0zzcp4A71wuN7nGO3q8A9z0qd1vcy3CRSwP3/hChgS2D14z88e5k3Bqj555k+wif0+U6cxHbTdMKCddw3I/AHWy3e2wqWBbuojLcGQz2U+D+NQ/39cFUqGG6wFrOfvctW/JzdB873MfYLaNvE36o6nKNWD3cRWsW5Xm4IyaXrno6OMYsGrhPHwH3pc7RU7ino844OSTA3XT2EO5J0x2PM52MW2Psc++fwQ9VXa4xiw61oB0gXOZ71JGSq0P0kq0webhfPBXuoReScF/tDNw5CJtjoVCeW1+mOWo0oXSfjFzju6HaByL4oarLNWahDQZlrtjpQzfdjqaDlO2mzR2iK5OFO6cw5cU5ehL6yyGpCnczXkRnchDu+rQB7i3hnj0DGD3cx5ctk4X7GM9+Xa7zVZeysl43wU2fHul0KcPdXD81cBcjpAB3kjt4LgJ3zNHb7hNwv2BkgsLd+DLrNsJ9mT8EGLst84e9M8ZRGAaiqK+wkkVFtIlcrLRCkCIdHTfILbgQl2D3kMt8JVjm23hBQnHIvIYiEnL14ozHfwpMhWS5+yUW9yZSlOUi1oYI5ag0cwHpZswS19Ozcgck93Qv5FFGLe327cHHCwTZjz3ycGiaHl5F6MofGjeThaLy5W5Lq2PTgrpKt+6KUhyw9hpHpRA3aZAzH6Fvk5T76l9yz61qnIANuX/1kDt9KkhmggyGaseUYnpjbXvs3BNyF0zx2NI6UOrbtVQ3sndadVeU6RmK6YCyejOxYCx3DFnKyT3jVBqSmpB7Oh4MyxkPEnxZhpiH3NnutTVTYsO1UDN+ZUv60FCUhULF9Htyl0Ebvo2d5U6hYBm553shN8dLs8xu3yM7JjJp9RDInesyOElYD8+Yecjd2LqsS59dsCcnuVtT6c5dUaaA22BgdzjwvtyDmjrLHRdQk3IXHpI7Ji0dRe7buNyRZRnInU8StmNfvokxD7kbU1317j4LuBR0tXsVO/MV3WsGgaJMBo+1Jgfyzry5m9XeZOWecTuHPgZy535JSU3YtyR3rAc9QGFaAjMTuSNd/kJXyNGk7Wrn6s6ahNxNrREEijIBJHcaoJRvUufHjUBuf1buq49DK3LfQO6om8cD5ts2lDvHJazfQu4F47jAbp1WZRRlUiB32J37XLhgTm5/Qu74NRlE3H6Mnpc7F90vR6qn0yh3bt2UuAR5Npf6yyyJnZ7aUnp7FGWhDOWW7Hwkv+1+odx5jB7Lnae69qee5D5cvEVegsr9xdjo6al1ZfT2KMpCEeGKkrFvz8gdpNN8YXf6k/w/MFAzkmP8jNTvaJoNtu5yU4nkHrR4No3K/VW48/n3h+QudPXbj8T+Y+98XtMGwzj+8B0edg87TbTkMLrA2MHbbjt4FJaB+Ad4qhZqKPTQgzcZij+QrFALQqsMf+xiy0J1IHiwf9fyxmhsX18zU1kT5+dWfEliGz8+ffK8z2O++V6TtkPXPNYN7XkJlOZ4WB7pxd3aSz2TO6fldWoWHMW1b8ymcrefqNozUh09c9tQv3Byd+plGOy1gBQ9BhAVwO//dTuqCiBL26EOoE17/j1hvYUZ2k79l/nXPQF4MfNytw+zWewvHiDywZ6RKpK73fuR2Z2Xu52Xsdy+E3JX8hwN8gFblHu3mayVL8u1i7ObgDyD3ct9BwiXMeeUeCLFpDEtG/dd4vl1lk6ZN+zPXIRcqdb1Wjk7HV4UScB1MjU1+go5qHmOV5vI3b34XL0bToc9dZWWpeuz8XB6mTKS/Ybtdu9y5wvdP83k/vGDSO5vrFp2p52lYHfWwUHw5V4ExzH5AE7uEnlC6RzBoVKuB6E4fi/3HaBjfZba+miCHJ94+9mCTfaaHpObYE7hIkTrCDezmJOilcTL9qH6tCAJjosN5O7q3HA7AYvxydMF3bQGB8242abcD5wB2B+FkbtV7mjJ3ekxwOdl3r7Zy13A9uUukxdiegtPMMj/7OUefOQKgFtihMJcaF7CErpEDicGlsk8kJjGAHCRe9U6UwUmyS3JnVzdXl6c8/KElonX8JSzdeZ2dTu/Q8katMTJnd+G+nml3F+z0VDM7Xu5C9m+3GPkge4AMyql42+25q/JJ+hG3adyZ1cWYJqGTi9PH8CQVnNegIk2TI+yYKRpgZSCSaHWu71LH8Gk1VhzCovj03ZPH2dXnkyaAEe5CFU7CaC+mdwjhnHuSbltoHCrkPwjY701h5yGGYVvg1ICDE3eotztchmTTx9ZpaOg5wEL3Z1yR77f5VtL7jtQC1lkEvV/zj1KHmhoYKT6VWJUr0YayuQTQgm0/Sn3UCLYof4EE3p5DACCNLhSAvAtJ1k3ZRpWhD/nDCZ6lCyKbOEgTBzOUu3+kNbQBCYyMfIJZGJLck+75txzQG6tdEV3bwKFLjGqGeDX0y+jyuhKZoc4+dVPVdBb+9xyA7c7g5ZY4P5OIHdaTqvbcucCe4uDHZF7ivyH5Tf5WRuW1AJMfjfIIdY8J59Qh1/lXg92HucQvpD7AIBCK7lgyl68dgug9ZVmSJlHqv+qAbiildzApBaitZSBLs0YA/klud+RG2mx3Gmdb++APs24AnSixQ+M0+rSU1nlXl6vbrHcBdo2+8ZYI1K/i+Ru6Vs0Hsqqpnm/l/v24f0mRZ7RaCAygEnaryWUhm/lbgRb7n1/yD0DJASBewWodGlBZykx0wBwLD2Ozk9pFXIJwFii9WhOkvUB6G0k9wyTuweGgEwzYhVMyabbgskPrm2MN7mLC91nI1Ktahnh2G5uPhTXg/79Xu7bhvdb2HNXs84slehTwppf5R7Wgi33lD/k3gI0cap8RA6xIyChLNIo0MmhKrwTOlb0Qy4sfbhVoL2J3M/hUe6XKNCckvPlMoXJ1SadBaxlkmCBqBbyy6P518IRIqbbhXJ/b8l9BwrdnyP3WDwkkQDpUK0+srKiViPCxYoq/43fomr86QkjD3mFVnFYATAJkwtR9ZCtEb+LeIxc4S9SREitRomRh4vcL+e/mqina5dVxZvcxVcmxVXuWoR/3qj6h70zeE3niOL4sqV/QGHpbVHYUyr8KOX3F/SQo1ALsn+Ap6gQJeDBgzcRJRrEBqIgaEKImksURSMIHvTv6s5z9c3O2/WpNYVKv4XSupud93ZnPjvz5s0sPlKi29o1GH5sIaEYeCUXc22RLBUG7tyjkX+BoAcn89rP1Wgg3EXGyFqT9Or8MMCeek6+Hc7/3/jeiqKuV/nk9KI+11x1AOiHw72BcKf+Mj338PbU6g4uGexrSXDn+uV4nJf0iVQnzR3hTs7axtVdfhO6u18QuVy4D23b9jTx2sy2Z73dAy48piCkXZpkJJRdO3/lND+jfi/GYNFlP+KW8pCFkz/z3iJy4sKjZVSEHe3X231wv23PoMB0IyYzpaTrxXVQzyba0wIFJT9BvlYlUdY0apg1TMHhj0R+W5q4BwoB6o7LoyAj8a5cC1i8l9wa3pwIl0v2Rr5wXwnOJkROwfPy7QfWdlmhgQ23PzWNQKQTWN10ClooJ06d3+qapGDLxvGPTRpH3dBQCdteiz+62zzex5578gIczc786kZ5c/LNC9YFtpCuqHKDuSeXy2p/pqPCzfQCr1SLF8UFXPNhMu/T+Q9TQ8GdyAU8GrR2moKLr6Z7QWZkEptcw5VnYjPSFgSP2iCVkDc60A8VcUqaYc+9Lx+ifRx8Idwd0ovWY5jDUj4Y7mYrBRNWNqjB+Eta3isSPY6W6KXQ8Snsx8FdpMs4XXf4FscvCtxJ5AW/EEjh7oD/P/JFvRPgfpWFABnqXhpM1l6KOird81Cpq9VSuEohI35N4ckJ7Ajf6SJ3ZQqMApXKwXAvl/Stoi94jb5Oaz/OTD3s7altV1qQadc7uGQmiYcf3Bae1qWEMvITNRJ9aTpHszpoZKR0j3zhbmuxlXS18AG2Uyuyr7uOeFg8srG3Ay1+8iA2yLJIAn/76OD5TkN/10ILPPgmqPuJ/5+68jjV0WJzqS4gN5lCps6fp3XQvUvoGd4BnFeE24LquqFjPaRkgeiJgEezZdu0KN/DQBWkRPPnt20p5SfJDIpRp6yk5tF898sYXuso99VMdc9k9WLMPrUxqxPVK+ahcO9VdFlPe/yl6jnexHZdr972R0e5U9Yn4WEe7hB0d+jOwB1CL+63WwN2RbtouEMTKP7pmdkpWRg+k5WNyQ14GMvKB8tas6hLepAZWtESuqzXILiPdFkrS5r88x/+NnUY/AardqPLirY9cC9Czx+13FTkIdJFw9ZYDO03Mga3oa27ypj6AXCfjD23LWXxtmOfDhXPb/GwIJxokUUNxDK/8qotmbuz0NxTnhZBAECdkZ16HXvqRhoGdmwhwm74Q+xch5TFafPNqC+lHwV3+mjceOPMew+D80I8SkUwG2YP3GmkZYaZNSUPtI05vH6pQlXReFhBPH+5NjRrWMXWxcO9oBO4B/uLwvaTbN9qZqYi+oP4p0WLWwjFi8+F/GPzidTfEe4U30rghbDf0c+XDHfA7pOxbQTPDkOa8iTdspEZ13otGx6+3IBnH87BUXecb8025M86/3rJNHvdRtYzp3In2o34g8G612nb2Loo3EeAgmGzNq7DRW3JSP9a3gfoB+sqCQAernvNVgIwOtBkw97E0Wl3PC68JZEpYgCtX2sgbCcLxkjA2loEWCajweguZrRaLQEAu7WRf1gm6TgWLzfH3VEaWpLB2o6xzWqi8EOsmVuJsfuW6WNxR0yVKUNNFrEM87Kri3Iv1umLoqMdibsV0ZTj5fy4/AhjsM6Tc8Jdu9PrDIHWC9mpu6SD+4bjVKFRASaDPXwhd3B09TaYLjK7Bx+9H3V7tfwgvRkyCHVbrYF4o7jmRxi400cjLSSy2+NaPrdU8Eym7LOPGecZTecw3tjQKy/KFtdsgdSYGuEyvHebONta2f3FS9CS6rXbTWLVywqqVqLg88Fwv3bMXonm2QKt9/lLFV7CusFn0RzCONIAg78e7t8A7n8ocKf4DoQ7HP75suEeEm1zKg3X+1J/IB7zrEzIY1txFB3Ima0OfSaWW2c+ZGTfwck326BOV7TCpOUH93xUmGK4FlelAV4rKCVmJvtFZdyLwgrbuizOrva8hiW3dAnb4mhkNxk2VaM/TcZI4YuA2cJikliQg6DGrVvIEBe6cLZbSfmeFkTT3hYk2mNLCfVGI3x6DdzLj5h7fVvQJ4zcFdQIuSBJbh532j3XnIjRu+V1qu/yPAzBm+lhhayco08eSOZLw+1sp3knv7audHlClYc7fTQwPiu699eAuZt8EGD1T2tbE4sQBWcnVMGgqkmmWDNueStReHtzGybingg3iabbexcaF1qFsaEFCMNZ1aHGwZ127jKsv6rQcDg7jLEoMPhr4Q7fWfr2q9BvEtz5XS3prmgXDneglUuNkUCtKTFNQ9lSTYnp2I/EAaptyEEMPSIzNBnB8p5FS/ODe9pTM9riz263vadk9tMKWEPS37tyD5bRuTIfAAmyYcU/vSnFr7vblVbGrx+MkeALsv5guDck3CAlGdvjAnQ16Rki3F+VmFIOF8gTy1QYViK7F7u4s0MZ7hNlmUplh6OwON5CpzzPxLhDp/hC9AlWP7UKhuANeyLc6aOpwSjVA7mZRmWU8DpCzSqEeHi4P4G1km6z0rxNZDNOK2jfB0nhylUgeQtO9XvYhKeKk/GeOd/PeXo2iminwp33l6r5kvq4j+PrOKLu/HFmtuOmv05cxmG7kwn5k7xzjFryDt979ry8DLgnbVmfnmBI2hRMjiLsfIPzD9hWPIswfoCOPLIGgqJlmaFtJZSSNCncu2IAr6GW+HeBet5/Tlpp0T+K9rWWDRsohiWwpw5gxVOnnJEx7D4fAfeKRCRjCRbxtptJxfQXLDok+lrKs8jwcMdnhjWmInG3euUdx+h1bzpdXHbqRkK0lQVH2EIwgEOFTuZOhDt9NO9gtLzmCFNO1HdeSKklTzzcIbqxUEP3WFktG2xKb6KBZNISZ73GVkJHvRgap9PhzvtLRafAaueHO/1G9k/fRNf92zeAO//1Pv+jl9Fx99k4LIltdbXpP5rpfaS8kp5xDOMHOBqzlWqVk8BYdDu3SJ8ChfuDUs1yfMDR0CVYUHXgNaI2sJlk2HNYOX2l4AoUFp28a8ZIl9Xfj4R7Qx1ppA6wPaMe/AHhBeOovqeQrMnDvYeDFfJ+q4iSlQBOVnK07Hnxq0jpo1NcIXqPW6j1dirc8dHg+zEaUZzK+eer5Ejy0ZiFO/gaHcv2eF+JRq64nSbO79vcoCaaZ/XmaZ6Ek2fGUXB/ycv6k4E74y+rrq7kf56b7bgpGPn89dHf/wNdQMc9EO6gWhZGkA11WodkWKTltgKDMRpQAQ0lvtwhGeSZTAJ3o+iwVn4JNNHKIFn7N4Dsk0h9TbxpDGIYHlwiLCuGzFybNTKG0eUj4N5RNvPSoyZvO8zvEgy8YFCstLP9DQ7wcJ+qAS4bBwcVZZwAk7FKLtG97NRYdROc4gux+XVXp8N9SlZmrtT4Nq3+ZlVEGAkOpzzc4W1RGW+v04/qQi1pVru0zTZ8pxFHdGriONoGYI4hxv1+BNxVPTBwZ/zlBPc8qjLUcP45Jz93X0j965tYoEqy2A8cNlwW3J8/ZD0pyXI3XVEXLS1QCtyjpjKkLyh5eg2Ccnly1iZw7+F/SgG8kLZP4f2ZkDbdj6mE6LlTW4olboPkUVfuzWRYI4EgsWPhbpGVL3ne9hVJxJ9AQWj7Wr7i+AC4P6DDmNsRR+52lFWNDboUjdYNRFT+oEJIrjmZ2nw8De700eTQB2wEc99Aww2dyJmxcHf7TNFEuWbV1g0xXWzL3v+QgtFEUhdKtjRfVeHoyJSNjsa+Du68vzxmdC9CDcTneeH+jXz++rgtay6G7dz2A5+i0gR0gr/Xxt1yqz1Q4F5S47X5PXBv0wYjYQHr0FNGUksN4FGZcl4lVYUO9GdgDTGMwP1VWsx1DZEN1sgYHWnwcE9S8+q87RWJ2LSD3pYSHJoqBKll+OYYyJ7NEI4V4aMC9+EeuJdoZKPOFYIOU4VjzUKm3o7/I7gnKdQeZVPewHBVrxSJMDKicKfqeLP9rZX01DLPAu1t010jqi9MzUdRHHFgnV18Ddx5f3l1SXdFsPNL4P7Tbwzc2YWvl8J2Du7hG913xHc9eBBHQArc0yrcY3vgniHxhSTBwlAnIs2dqKgAmh6N0FzjITGMwt1yGt9zCAfsL6yR4MvHsXD/oG/ZAW/7Mzk4hIKkDUksjKDkeLhDeVQPyF1LgfvrHrin/Z3iC4loRL2+XdFRp8P9g7wpqSinp1imPFgrsnCHYp9wBVo8JG8PnJGmUddLiKX70R3X6kqOVI6B+6Quq8PAnfGXVZ70x87LT9yAAOIy5AupvGjI6OLhDh08sv/WDxMdpcI9dQzcC95V9WKGiFzpTSfiZ3JulJgPnW416T5J78QwCnc4WscZhTFvJPhyLNyXdA/wEWO778FXuaBHoClOG/Jwh0tSzZC75hFwTwU5xReiqDvXJZ0Od2rUEw93jEDR4aLBwh20XtyITOMlbEKU3Z0b82R5GX0dSqEqkrazxJZ25mwZ3l9e1z5hUkDv+eEOXXcG7qwuod/Owz0HVfvKG2uL6kLJ1eSx0R8O/wncy2QaNEquBKnbJVXMjng2dm2obn1q5btrGQv39e7KPeAIY+SpcJ/TbL8+azscDC4ILJ7LeSw83OGSxLHFsXDnneILQZmPOqhkf768j3KLc8J9Lqq2asrSF5DvwX0GCncqyzJUI2bKxPIriaXjPQkTFq+/Bu68v7yKWOT5RT9/LXb0vYA9e78W7r2qLnRvKK1frwz/xMHZ6XBvkbBMllypT7f34PWOlwoY1Vq0Fzk9BO5GaZv+2IDIBmPkqXD/oE0tx9seJY2+DQXJz2OsvFkZy6pwSaLj4B4ca8odVwjGofRU/Uec8jwC7vX9cL+HO8OqTx4gVJNnJiwTdMfjuwZQMdUEsrj/Oo3vZCTR+hq48/7ySjGTr2eEu0N3+Pr1BXxt40vh/j0tapt37ubHouj0ieZyBri/kshciVxpELDOmZ/B6QYdTSpmoTU83KGaDwXlnRtTBb6gkeeDe8VnzpS1HdYVXJGh14sH9XF3462kycEdyzsH3KlTtq9TPNzXynRi/Si4v+6H+wR84EQfOHpI4c5jtOx5PKix6g6mMNX+Lbjz/vJ6x+XI5xf9hp6A+8//w12BOx0339eynt01BrgxM+iHfwL3BullrsiVyrR+8/peVLoKJK6aoX2h7kFwr7nxhQ7mP6ORZ4O7/p2kq69529O70/zT2UNiv1lD6izycJ8Des4Ad+pUaWstXwhB20QG7VFw7++He/ywgeKaPvAMXoyBO/3uRmh3/+qHfNFpRLoui68Ly/D+8mrqARP45+667+B+AR/b+FK4F0Rs4xqa+0dIbll9pY98MtxnpILGyZUgEn/0Sz8hrwPkA6YhsUoozMIdtNo4tcDT0Mjzwd1je1jEWyze9k+y0ePMW9AjUAF+7XFwxxd8/FxwH5OlANZRhSCvO3K3MBDumNGDeiBwJ8iaa6ysqItkstnCwXCnCapxAKrqa9F/YPpCNiTonR/uvL8oNsOhFNa+VgLugu7wEb3/4b4P7pGk+3wnchJtShn/vf8TuGdNdc15i14pDTkeR2oMWTxmcNDmRkEaMoGDex3ahpnFtarESBbuLRbuU/X0mwNsz+HYB++pXFAPHqVVlQDGWJYhceDT4E6dyqEnbCEkSyOi1LJHKS8jrY55Ysod2Qf3CJtoi4XWCb/KR8M9LK0EG5FKFMJ7pO6RUDGVvQCKxjnhvkC48/7yyv0bnzTefiD1//lUDu7QvfuUKQ968sL9Nnk63JXK0Ya4HL3SEANBRwjSNRP+9d2oYNH4VYQcC3ccRy+1ArpCjOThXlZCmBTuS3WW7/0A22tqdkVXV1idEnGZugwRxjJ4wIMzwF11yrxBp/hCJBkK3McyN8JKIJgs2i3rBO602k80TlCV54a6B5/pA3ceovd0Ez7yCw2YTpW2Y2vnhHscnyXvL6/bv9k7g9bEgSgAP6b0H+QaFHISr/0NHnOwUPoDejIRqix48OBNRFEXKYUqBNRF1tqLihItFHpof9dmktGXZE0nrW5bl/dddluzM+9Nsp/jJM6rMcl+fweSu1dDj+6nvi33CRbSqfieh/wZlNoF20vu01C5hvWOlpJVfCFM9/aqADvJFBne+UVQxTktOK+oJuVyx0+s7StMDYOMLfcuNhkhd9YJVcY5l8Yu3gVWfvGj3NEC3RV+mYkTFRmuUQ8X+8s9nJSNScXqBDECJ0g1hdxxP9BUKKYm4NFTmdz78SyUCL0faTVcr3yH3G/82/FremAtMbRnX+/q1/a1LC8GMg7uSl0/qNznOEySfBF5dScbdpK5WZdU2IdwgVSSO8o94inIvn96oQi3cNHj1yz2kztbnYGHxo9tZUMtYUGQpc9Gqbn4YaGLKy7yampYCiDtE9+s0TwFQUc0I5U7+m9i4GaYkUFGG+Sa91h/U+7DAQgWRfyPJon9NfC1F3XNUO64efjvoX9uKotM4/0VfQOiVHofljsm1UPJxu8E59Z3m19pKxaQ+10o4deAqxOXTCZ3WDIsu+KymEWtlesdEKRNnAvFl3t7GbzRuMZCTJzEiv98jRcYmv83H68yeGg86TwcVO4DPmdoS/ONzwPjmP2AZDJenvwcLw8jd2fVnbudVmXExtm3AebbpyDREkksy5Th0q9VFADQeo+MPdf2kHvDaWqU5h1YDazlgC0FSqU+9JMAarb+4LSa9m1XPo1+fphjrDv9k0y2XJgva9vOFy3e4izFDThw9bACmdyRqfMzekwSJOYSFlS14Lae2CV3tzRCV+EC+M1jNU4BJLFj4cG7gerW4HfizKPrtkM2DCUYHRn2x5pWWwVF645+GOzpo49CbpNaXDFMKl4nSME9dAwOmZLz8tIv95l7HXEhnnnjn3fdn3Vdyo/Oy+Su5dyrajY+45WOOrfTiCvshzv0rypveFZkWOJDJveTrKe0ym0rVKM1VeUznBvvdW1U26xcYh4gOHNr2bkV0VIlg/99cVi5n/FGpws3Kkm+MXliLtOLQjebyvY7D5dFVsETytIHmro7eie5C7mHyQsHBO5HdvEDozdZrz4+5nQuvczVHnL3yqwb05rOOGtlt9yvl8yj1WIeaVwjit7fYlBkYW62rw2Z6Npr8jL5DrnbjOGe75IgIwzS9bo38w1W3iX3+r3bRW1qeMPdBY40dki8eLHlvH/4qOkod6xD778VLI/sdTOOQ/HnR+V+u0mq6E8qbidI08vBfG64vlFrPutphtvI43NNtzeXLqc4zbk9mGmZ3KGd34SiCx/BX2Ad7dbmHA3rEE/uD04wZt7wGudRIqKafPGxeZdjwbpmRvBtXBQiL9aKXjM9OKDc8SLPmdNiVZJvXGydhangp162gL3BAqn0JGS03CveUiDygM9D3jLEzMBkH7lnzVA1mYiW5lXmp3Uqnblz0ld6lNxhnGeIfqHCO+Se0RmusEuCjDLIjAl2y10Du4VN5cQxkbEjiSVDVmmoheQOphgHRBrZiRkaxQ/K/WdEUrE7wSU85EmFpU/u0K8ygdBmvRockYZM7qCtGRL9aKRyrzNk2oXYckfM0NkfB0ehMQAIz9wF6Z8MMfpwaLkrKyaoSvKNzeKFhTj8zJ3b3eF/qKT0j+SeNsIPTKvPOJmqPzKP54kKUN5D7l1QRqKx1qr8txaQ9E1uK83mRPPvNjeBaNr3Pg9WX+w2bFEsk3kYVxhjLLnDJW6EJAky2iD1vDjyZIfcnwHgfF0UFpyfARIROzJ40YU4ejzUsNyt0B7msSKrXw6ZoHbbhQ/KvRmRVMxOEHXWYC56k5+pWcB640vmYYFH+5foU38pAEAzUu7IeG0wQXFZUCGC86dNy+ZIgXfL3Vi/7qh5umoxwfMkGXzP1ceB8WrqYiztBBxc7qDYhjgZsnzjU75tsC3GyvLySx5ozR2rX9PE/eO0eyV7VG/DPvzY+LFdn9jWICHvtD6y7Ulv4ZdC92pdgLfR+p3Z3C5Zg6zyl4zrE94gHBAMUk62M5tZr0mIRHVCL/VQsXFj1yoj5/Skor9bab4jMoylNC9Zryl4L+jRO1lS8TtRxpYTYkXbPTYF5/KspH1HLzol28LfxGFRmMxnk3r2bYmpZWtmYxyxuO5bzhXpNB3V5qIzsWfWINRo58dT+HSfVix7UmjDP0LtjuxSp6zulW+YzGDEs+/0M7ClfbGcYS/7Tt3/kxKox4w3QSY+E9yJ5lPBSTJBHIz/u0jeUUNy/xK0lnjIXQrJnTg6SO7fApL7J/PuTTZJ7sTRQW7/DpDcvwJl6t7HjgPJnThCyO3fAJL7V2Dhk31SSO4EQZDcj4NyFXcCl0FyJwiC5H4UnE3cMloQC5I7QRAk92/PuWE2zSpzqJ1CPEjuBEGQ3L87WSbItSEeJHeCIEju3x4h9+FFEmJCcicI4kN0Li4uskB8Dupr6f7Grifhq0g7p7sEBEEQBEEQxGdzndBUBQiCIIjj4zoR4W8tdcI5T8I35w87944jKwxEYbikEvYGnCIsObKc9hrYAHmvgf1H985Iw4BpE4w0UEz/X0hEdDiUH6GP0fsYH3yIAGAV4FMJUgujfnGDGBaiX6ReAODt9XnJ7ySVrCuG0/3hNyLtHcC7m51+62Sj6Joz24ijryTSHcB7C09di7LS61YRm6L3pDsArBXdmGRl1C1nMzEf/gXzC8AA8JucbiVZzPrB/NQ9+JceAgBva9BKlkXWWicGDf41m78ZAP68NOacyyyXKloL69y/w9Dde6o7ADM691WVe7lQ0VpqF3e1OMju/X9M3QGcKKTsVHPpZWfUhZvlOkVruV3cdRZ7Bt8iAPAb4tQcZxRVG+k+6E5oFvenGBS9Z+gO4ERJv+XDSM1yHd1JzeKexKDoW8yeuQJwZ9t0HGUt25llZ62NreI+iUWEO4AzBdfO717VTHVPWnOfj+9S3CUycwdwonRwujMZ6sTh9Z6Y6S7FnXAHcKp80M6L1uRkx3OZOxV3ebAVEsCJjjaJZ0vh3mnN3am4S+AQE4AT6WI/mDEVnL3uzEn1HvfKfIjshARwHt3Ly4VchhZURZ5aK5PaesWfVHezHyMAtza1y2+65s6WPpXSzbLT6c6dirvI4D0XuuMfe3eQGzkIRGEYCeG+QG0RSKwQ2z6DL+C9z+D7r2YyyowT2bjASfek5f9bRonU2VSXXgEFPMlotyYxb8r/qJwh2z/m2JDLvFLj/lsilAHwLMHuKJV5qphHK/afUcxn82s37sZIorYDeJZsd4T/NE8t2yuoq9LXuC8hhJ9WOyOZDIAnkaESzCy7F/63xDSSe4w351yMvvI34TDiXzoa9zhO9k3+Ya28T8xSATxHrAQzrmHBUciDtXZ2YlQ+ug+ibzgQM4gy/N3/9pE4Dh9/9rNISLc38U7bDkDxkGBmVANtyfbdEBtL+yqKWVVa89SZy3hjJOUXmLFS1wE8nt8PZmbtfuoyNV/6D27HXTnsqLxAvDV6l+2LLN0DgIdzdkfRdmDI3HpORaLbFaVpUepqsIcmu483dQFcU7YtxsNSPJkaSa4iamfu0+YXVLTuALAGMw3ccRudTEV0VbFlUeoq2gYvsnYPAB7P9d/sD62XQ4M74De1W81ldD/pMUsA+J9yd4ksjf2x3NyBm2gLOT4ZKe4A8L3BzKx9HSihzL6gLOTY7o2iuAPANwYzo3KjaDB7xClEX5S6Elvxuq+JAcC38qGUIB3BjFPeaMyVxF1x78plsj3BGQC4hpDtH1MuQdqCmaAcXClmz80p0sNzmYH7oAAuoth3a4VXgxntwlFUUxk9l3GPyGXYQA3gInY3dOShJ7jObfdA707llUWpDbkMV5gAQBmeNtbIoW2eGpwqKItSv/bZh2QA4BJksCekU/PU2FncnbYhxNseUyFvB3AVyZ6xaPPU88W9K5eZbavZLQYALiNb3fl5an9xVxZylFPFfXa8BQngWrJVnJ6nfj1zN9pLw8k2yCwnBXA92erOz1P7T8toi1J916q9gcoO4Jqy7XR+nmq8U6mLUl174z6MHGoHcFXFKs7PU7ec5qZ+urmxcZ9KMABwWcFqzs9T+yeqUf90vqFxnwpHYwBcXLaa/nmqmJO5zOYPh4NIaOJoDADULIPtNZpPqleNtpLWuOtvI+TD66mZyg4AZ4MZf3ykJZsa39q468v2ZLAbmaMxAPDXMn8pl0k9r3NF7ZB7cy5T7BYzVAD4IOXBdnFmVZQa27xENUnTSCC/N+4sWQIAlY8l22aD1+ap/dX9Jo1v31Qbd47IAMCeJbVW+KzMU+vkpvftyrK9SuM+GgDA1yq8U+apdZLcjijNRzXHSuPOORkA0Cv8rAQzyjy1ToIyS1VymcEYT+MOAGcFN862Jqvz1DqJStuu5TJjV+Mu6e3/yIXWHgDUCu/q81Sd3ON79n6LdzFH5m2P7m174y5p/YSsYgKAD2SqBTP1eapO/G9yYsnr1Ny4e5ftRzPVHQCUW6y5Z556nrctitlY3MxReAA4UmrBTNr56TebrW4Q89lSJrsnGfxi795xHAahKAxf6QpWQGvZEhViH2yAnjV4/9WkmGikTBIewWn4v9puj66PeQBAtZhJ158BYLoH9yNmfSELAKBazBR9JLOdfYP7kazesY0VAIaKGX1UZLrcPLi7+ik5RgAAlWLGf2MvUWwb3J0PWhcFAFApZuw3JuOzIbA3U1SVcAeAXlFb7DJf1rfy/jzZWS4DADf7WS1m6uQCUQdxvBiAxbmY9aYks390IV+RCxw6iAs9AKzNW/1TkjlHJ+gkV7AM7gDQz+s/IfpzoJgx0mzbN2mU9D0adwB4WXvUE36f9j/1CHpj09b2NNkOAJNXo4R4bM3FjDRxoXNpos4Q6GQArMRrlf1NeGdn/E91pbelD/qpYIh2AGsJeldPeDNji1DpfsfrR4LnIHcAy8k6jZcGsb+ndzrMpoNkB7AineccuX3DOqkKw8kuALCmotOMtUDhml4mR873BbCwoLOEwbs3Yu+4X1dIdgCL8zpLlKrN6hP73M+LwtIYAHBWJ/Gjnwn12t1oq+BJdgA/7N1Ba+JAFAfwx5OpX2CuIYGcJFc/g8ccFJaeeuqpKhgp9OChNxFFXUpZUEHQLtLaXtzS0m6h0IN+rq2uSUwzyYwmxVrnd2yNph385/nyEqU4S/fSxteapiLdGVIOPUqSJH3ivVsifEgwNt1QjsZIkiQFIYk4pCBC/a1GK9xzAsmuqNqCKvs2kiTtCSUTQ+PdAA41rO6mmwzLiA89UjVJHEl5YZMkSftCJZmIE+86/0u2Q6TE+0brDz1SjXwg412SpD0SKeGNaCdFDbHCfZOhRyVJfJJpkCRJ2icqyeQSm1AhTIm7Ob9w32zoUSVMu3T+NTXs1Su8Pzd9M6j36rNKGz5PO28uXVX8zb1sNpOGcNrD/500YCNG5X1z63yQLUFcjJthvdc77yaU8CXoDq1evevb727LXMrv0rc4zi4cKmMZZenzfVHVSK2d8Dka6TqkA4VTuG849KgRstvpbtzVcK71XIcgpP84MXGpWjjuG/AZlALafntD/89zw8S5xuFTFtj00c8TtOWb921Yh269FsroKFsQWan+Y+UpzeJxXQGWymWn7Lzu80iHVa9om1LYEv0wEDCVqmg7CV5G6dtaO+GNaJPqR8KF+wEFYWlCdjrd6dMVOgoJYJkdmvjRyzgFsfuBtpoKrkETPQrn4Jd99O1kZwCCqNU00WsEEXVPr/Cj8p3mC877Bnq1fmXApbu/voYtSWAgYOqhYxy2jNJ3Nk/4g+iNGeVg04NDifNADoWE2IEPn3rTmysW+AwKyGT+HEC8HtDRAwd5RJ/DNngplyYyPOogYlRDW1zhPisgU96CVelxGf2uRuC6QJt5A9sxWDfcD9GRDV9G6ZtTNLGEz9FotyfTWFtGK9yTJETyy8/MlHwRZIFX+gcG+gXx6qDtDRw3DWQoD2CVNkW2NwO4slPEmMM99YyBnsBVmSDbMQUbLaKtCdtRXzPcDRNtBd4ySntAJOENwVsciLfdVe6r8E+m7nBj5thfNGZhlfGGwR4gVhfoOAdbooxMrSG4aBODFBVucl1h7OH+giH6YDszMcgrOCx0WLAV/TXD/Qwdt9xllPaEohuhRbga7eZkRzEX7jRJwn3x0n2Gfh1Y0T7BYG8QKzphPLNewwBXN74wYbrmBZeJ8Yf7DENU27Cg/BU7BEARbUXYij8YiHNsMwl/GaU9UgpO+BwVbcqw894QKNwJCEsTDhW+tA4yDMFBahjiFmJlsYL1FANNVGcZ8hispW/WcRhBFKG5fQlz+hTDlHWw3aLjHLbhbr1wz6Ljmb+MX/w9IsWvpGdEGzMa84GZBIvGPSzkQJxGOJLwlSVwaTojOWdq5pHX7XBTM1YFN9dUWOpiiDv3sBDmAkJkq58T7kYZgzUovNMnGGoMNq265a77KwbiHAsskWWU9k9KrDFDc+wGzBG77c4r3HUQRwjZ5b7Mk11eUXjXNXGhSmHpHsP8hVg9sE7UPmOIVgr++4UrzOlxs4UrTiEYLeLnhDuMMEQK5rJlDFMDAP8fmIUteFwv3GtoKysCy7hLF2dJXlTRdDKnaQpw8Ocbc1RoxL0UNB55FGPhrpCFnZ2GfMSFlgELvz/kR/sKP8gXa24gDSBWl+h/5gx6TDp5X3tjromuYmK+5wV0dSDYLXo0nsej3nn9YvT02rQgEmrvQn7683SaR4+uffUphmmzWvhj2IImBgofnHwVW0ZpN1GNkE1vmEhE2+bsB2m8trsesXBPE7LTTfcpLkw/RMiMXa+99DV4pw3HL/aVhzGiDbTlKbP8fXsAoBdVdJUVu6HjysGcsYxNzo5qeXSZf7sQoxtznmN/sjCnWA1cMfTNB3Vub3TjvBkwlUrzbjKCEDo6W9EHR+Vs1QMIeUNH4dgrfARrILSM8ibZO4lq/rijERszJfDIBZf3BqftnuMX7vxByB0ehlyG4qH9vvdGTxY9xhQcics83kOsuqyuzCm6GjrMDXFF3T5I+bKv4PsRbwrkpAvxusTCDBxZkzVDOsaF4ow1mnrLzMsH8Yt9GedhlQmuKBsgpIaOPvCky2iriS6jtHuUZLRLe5QD7jyjEdyY57Td2YX7PoX7IS7kFW/UVVjxcAYe6X4mKDBPwlWA6Zr1Xp+g64yRf8e+jxh5/5YdCFREx4kBMVMt35HUpnunaq4V9+of9r/cQseT4Ks3cEWRMvtQFyCmio7hOlNP16LLKO2cf+zdzWoiSxQH8MMRzQvUtuiGXjW99RlcukhAspqVK01AZSCLLNxJUGKHQQKJEMg1hGiyccQhJiBkkTzXndy59odVZVV3l9zbpn/L+zEmU8nf8tTpU0VBCwnVV5hp5DhWuSMpux/w/tVXCvdK6HfQreMfBnyirXinp0+42S1wXfGir8OpQI/RV2MPfk+ZffIdiJyip78PW/aOvG51eoX1D/DV+NHroOcQ1HR5XfNWHTH6H0XQNwaZBXr2VZcxkzbikjTVVpixxdcuycruVo5lfKlwb3v55wD56yz8wPgHBozsLYe7UeY8wWSgbwQrPWYLPEffqwkA9Bx9XZXSxR1sWaPFPxR1LlwI6Am+8Kn/F0FBzQUG9IreqbVn5IIaB30O+KSjB9SXMZMuVDJ0RUdhJi/rZXdyPJZg425DJDTlB6rU28eVe372nACbA3ew5XD/4L2Wg746t3Xjlimv4JUD7hX6elThnLBcgt/c5snzfXcMWrF/LaM8iFhl9Ln8TvNrUGN3MOAn/Ob2mX8UcShkGWQe0XOiuozZhJmUIXvxR2rJ0tnZFP22fM57oaFj4w4kL/X/bgR4Rlbd8JLPd7rtcD/hHdnluamwYJvRmxjQqnTU+tXN8B7zxyv+0atqz3dnib4TtSEudUFk3oOiE+aB1xcMeCUxhkJ2JhfH9Vbr7OiyacieRSs76suYSRVT047224bCjC0+L5WU3QkpSDfucnvpfogJ6DEyhvAP0kdfD7Yd7lXeGwlBX7nBG8o1kz7sdEhA5C/0PIFzjr7y0gIdGoZhObn286KMvgsQomeiY47bGLM4yetaN/kcA8rzhEMhOwNHNnpAfRkzaUJ1pV6DG87iinqeGU7AU3LkG3c5I9Uld+6wvkvgNEJebD3cj9BjgKfD6Q13eeUi5wz5ji2lzy1DZ4ohxw5oUEbWgoLQAAM+IMBCzzuompfDD4KeY8BT8qGQreHGrqdhhGXMpIkpjb3EhRkiL8qIy+46Nu5AUv2A6qfrumCOeBcDJlsP92BvtK/GtnaQQ+Q10e3XkefdArFL9Fyf45pafivhXp4REPoLA6YEgupsZUPuDgOq7dD3V9QxFHIAHmbJOo3Ny5j1QqYVkY/USlyYsXMcVPT/yzUgMjPNc8P+4QZjbfTI360NQV27spkLHJTflv6LeYrKWSB/bow7RXGSSq8LekLG922E+68x8LGzZrrCCfEEVJk99JXPMOBWz/v1QPwsWjXKMmZSpJj0qFFemBHPHWA7blSUIDqa8o37p+4V/tG6KwlO47qwZW4g/4RbxtpycDFCX/g/Nl9wzcU+bDTFjbq6w732sA8CbGnpXdw9bmu4QmmpaSgkNoX/6W2UZcykiJm0SVBemOEPg+QxcyooxGCkueK+Yg8nd4OftxQCZpJtnl7X/PrrGCVewGNMyhh2NYaN6rjRkfZw/zU7BSHrjbnQQ5Cap6BugVx1S8dQSPZPoi1c6UVaxkyK7Gl9vOdbwiu0HU0bdxbZS/MVqhs8MFMMBQg1TNMsEl0Xdcx456zyDWi3jozyE4UNRrjZXNAAE1aMVHPvPeWBq/GOQUPJeAZVbke635Y7xw0eBOs4iLSMmRTJy4G6Rk6Nk+DdgcZt509pj7vEjGnc4CKm9/2bBGIbCrrAfyAPu82nl8h15EqjV2ygtN2/ivgKnRPgoAsmMcWtPYlvyLuASB7KKFYv8p+KzUmWMeuWSSuqN9zByak4ICBACto27my6p7ngrhYKXUlVKnG83wgeaCFHyKox23zjUBg9pyBC10K667rNVwx41xLurF8U1pFfGPQie8pLHXlDRseGaNzLPiL2jxcvL4vjMoa1wWP1ceVVvoxZn3s6qYW77sKMAUKGro07i1g7V5NZxa0kTojFGQk3vNhsHzgeRa+1P2LbWF7Qcy8tCneE6W5h0JLAb8VgCnWI3nAXP4ZEqtJW+Me4d9eearn81q5MTin8w7rvsd8NO3pAvozZE6rpRHSHeyMnZyfY+xds23b+ZRp/EFBDjDzDTHm2QxsDKsrvaiRen/tPYdGh3cewunOFni7nSruzSh8D6iXgMzFgSjmXttpJw/3jr7/a3R/Py1fmDvKwpTTb4YaZCaPqjv2KE7JC388Rf/SAfBmzge4ppRTuegszBSKZLxnXgf1HyfmUN+R3kpipLrezHQ6Hyh1ReyRWuJ+IK8q3LQxqnZI6eg7Y+5SeKOwfqRSYCQY888J7rBjucqVBeUMjzqWsahN+AztJeAHqMYUEmAFkLVg5YH5ilJcxkyLybhkLQG9hxmLaOChhyu46FBzC2b1bXr4Zad+1f6Jl2UVoxTyPKQ13eVkmzLorB0LDhVv0jMh6BWnUZs9Xr4HBPhXPa+y4VQ53uSYGueJsrxLZsMX7eB/BdJa4LzAAVibMLHrFZdyFX5gvxNQ+6bwRqShDinvrW2gjp02hARyUGgalu/KDOsWArvpBcqxwv9lYEHZufr31Rq2z84exX2bwd8ALzhdaUeiirvH6gQ7R19YY7nCFAffCsklFfsD9AyIwztCj72aSCQaYnNEDBkRaxkyaFPPax644m/OWhsvBnOK3ozXdd10VAxbqKzyIE+5D9YqyO0LPYD1vL3gTEesK7dtDzoVJ+KEz3CuCqV0VDHpWiNMhRFBBjnets6IN0egB9WXMpAnROgy3YeQd285tkhftKk3w2BrTfVc26EI/mCPAMCvPV4kT7m313/TF+tbaQF+T++W78pPGJ94HlrnOcJ9gwJI/CLJ8AyJ3zFpEHwyprz3lDgM45aUPgEjLmEkVLVMhiWE5JfsgJ/dN/OIGU3bXwYEdlw/FwpnNvHtfawz3uaSIwm8a7BThN5tbXh/LrxoZou+YdxVSHli/ztdUgEUIML5jQJWb7f2u0rHoGJSRV+RqlSAJMkVfjzN6gABEWMZ0PxHyBSWb524YjmN/y6lriD827G2n7A67boFBtX0Icme1aZ7reXq80VxyS+c5bGAv2Ih0uU/tX/PCnbrzfRp8UV+bnZdWh7jytUeDLUMEVHjzFlvXaiV7S8Ow3gtQN7kbQ9gjr8bTVf/0ZS+ygb+pZsbZuFPDcmy7kHAfbbBjAPSX3f/Xt6Pq0MWQ/oO9WqT58xEiTnWOS+sze2gOd9JBZELb5PZsDtiyzO3hCBH75x+8zpieC7+NW8wfFkcesVXtGuAbT3llkQcMujldY3FPf0cgIXhH6VzFnHl5ifj6cE1ghTyWeVMaLpjPFsrLmEmZaHeoGia7VVd3ACGm+Oj2IKdLWkY+xveGa15fKg+X369GiKg73GuivrjHvw4sAg1nPBz44RTe47fQNyDwj2YfPX2ydgh4whtrXP95ffsQSp3HBOH+qX91ef8xd91x+/kcw3JMGZ6nye1MnYKyQwyYjTGgZ0UI90+t98qPj7Gba0+mGPIXM3rgDTxKy5hJnaLSMHdiekel8Rkbw93YSl0mD7uujSL6w32Bnn0Iwk9l5LnmRdh00mw3Z1ds3eCD3SuaLdyg7CQMd7EaM5tNFu7jOBWVYSjNjXAD1GWkcBerU+Ypq5/gUVrGTPoY8jZIUtJ5uCnfuR/8x2WZz3cyx4KU+B4r3A2I4Uk0jlZhlOAjbnbCvAV8ZztYtF7FlFf6imoRwn0Y485Dq742H6g0YkI1ebhPmEOBcgkY2UTIXWPIsr1RyOlgQ1hRdHZr5fShEJn177d7kJJdv1WLE+4U1MnDC0VeDe/LbOEmLQs+dTgNHo0aCpX3txbuUxo53Afoaca6QOmYrL+ZTamOcO+ZzF1ah+CTL+POn13tqiK33k6ZbE8qv6nJ3trKxv0bqGM/pdjpaJPPtWKEO8SxL6rBIoPtzXxGBlM6N0LB7fXUlFFkBtsK9/4pRA73q+i37N2ylXGjjgETHeHelYwekC9jJqWIuWFeItGWtQW64SMD3crG3QJIMhwnJT/T83rkcDchlp5g0i7yHdvgI+codsGZ3t5h5nExDsm2wr3chcjhXuxHPk+l09C3w/l2y+Pk4T5jH/4aGerhfpyS34MMV9EUzkvM57SxxVV3AzwH/+UTqqVUPgS1/xY13EniaQen8lSomhBkHaHIogh/nKHvDUBSsH83YUvh3vqA6OF+G/0gdILIDrgkxxhwRJKG+4wzNf4FPNJl3P2Wsx1HVvm+ZxYJs5XVxBSNWC/CVjbupcjZntL5BcWnfqRwN5JftDeTpcJbG9Y0BAHUnxG/as1/hW4LWdUibCncqw7ECPeHyCX3/X7oVfkdUI/Jwr3elUxHkCxjNnZgJxBKKawhOX3YrKSfl3uaBgHYVAX65vxm/6uQU9eIme2+1PTMHCxHyOpUr43kg5zlN7ThuvJhFzhOr5BRvnDBY53hSs2EAKdaxrBpF5IhPxZ95Cgv5gBxwv2YKXrIvGPAyIaV8+j37eWWHeRoTUxYoXXO6AHJMmY3dOwwI6eTHWuqpLHpgvu884ed/Di1lOrhNNb9ooVBb3fdBvchZIvoGBHuClPh7PuNAwL7D1MM6L8+lyDIPRLdmu0OAjk7WjQJJGf9WB5jSP3w3gKIFe77kRs070X3bc8xaAFKzOFyiiH1780G+LqSmcXsMqboxz8TO9z1F2bU78i2QYUT8ziVLQil8Eh1Jdf8WVm+VO8Gz8254S2hxssFm/yHYG5mlWX15aV6Ofg5vJatsXF9PxssXy4Hs5s5BcbH3fnR+WUbONzm7K76sny6vy6CNtZp8+fgbvmyHExO2iWIb/Y/mKBozpvPn99M9fLhse1C2M13Tw48omXMKu07j+a0KhA9G3fWAftaUbM9/eHOR628by9eLrKf7KeQEezxeyk5qsl8cYV4IW7bjiNOS/0bdzNpScUSHMnuBGquKjJFAonM0PMBGf4ciBPIZFLAyUXyzXYcw9hw7YYZ9cUoSIhei0bP9vQeqEpRWtRxu6DVCfSmZ7iDd1rZ85yZVKA5JQd2ybEMItmHSwozpBB370wTVlQahS96lVNkT8FH/zOeHHpmkMmkQim3kW07eaMhrJWw7MQbd/3HqY3CF73JKTqzhyu/IMPpIzrb/at7MzuCFARbdccxDRCJU5ihm4vehBaLVPlkoKAh278BR8Mp2Xaewlc1RM8cMuzDn1lreCY1nEhb2gSFmdKmjTsx9/K/7RlErWLuaMh2AgzDXr3rfNmKzWFgBnvmX1fZ55m/2buf1yaCKA7gjxmS/gNzXXZhTste8zfsMYcsSE859eQPqEHowUNvoaSYgIigBaEqxeqpiKIVBA/277JpM7Wb2enMZmd1N/l+jsqG9vLN65v3ZqGFRObYLXFvzLgX7voro6TwfJwqMoeLzvRvke6m/vWdHDLlhGDp8pv763MGDxtA3pW6/hozqSFfVbYrUng9ThVDrjGFt+Qc6X7rCt7xWuwBVDcbs4UpWlXQKsPSq0WifGMm4Lqk8LVNkUPjKKol29dww2kV6UBBmXpFDpQ1WYyAVhuKancQxJaNSNUcj1x3g9I7vgREJ0dYj1OzWrJ9fafgAWBt8DLpHpcYehEy/zKnmBcIyxXuYSen5+84NXZ/+Wq4npcTAMB64ZZ0tyZvRkv07njP2JjJhEPKdoXhZdqht+PUlBeTbjM1BADQMJzzYVBpk6lDRXKXVAljYyZx6Pwk5BTuu1wT15LtCHcAaD73eQ9T+d0V1rdtR/bGjL1w19syoS2hozqyHeEOAC2gjg09bjLpNfYWWRozboU79QwHqoZPz0r+TvbfK+hyhDsAtIEaCvG8ybSlxbBTYybmmsz4sdLPcarkxdLCmZq1ve0dANaL6n2EfjeZOnkBOTVmQq6Txm6PsA3hC+/Zvu4XAgPA2iidULHTwOBWYbgHpsaMvXDXu+4923Fq+o+yfUgAAE3Db0ifm0xRJ4cWOnc2ZqRDVRxsqel566FoSHYRLxbfne24fgAAGk7LUT+bTPq0jENjJnOZohe96FLPPsaTeb4IMuVoygBAa/BbOv42mfQ5d3tjRlZITsk1HWQ7AGwuflu68uhgx7ahamnMGAt3O9OzAtkOAJuL56SVN5n0dN9S2W5pzEjDv694EJAi2wFgg2mR6G2TSfS25tEeCZqzN2ayUgPk9uNUvxdB4uWqANAqWsEryM75nUyBIMXSmKlUuAuuyf5FtuPWbgBoKoemhFvYxUSV3srUrfCRHa6RyHYA2GT2lrP7JpOZvTHTrfKJmf5xAtkOAJuMr5TuYaXSvcOdxFThONXjRZAci6kA0DqFsbW7UukuKzVmdGGF49RdH9nuPlMThFcIAKAhDM2JiptM9saMXVrh/VDD2rOdD+NLy/8ZI98BoBksredy45BeGzNBhTvm5UrZnkbJQrzAzTAcCQBNxi3pXm6TyWNjJiV/x6m74bVOMpdyT3C5OwA0FjfoRrWW7oG/wj3imq4qvKtD7Q4ArWTsKXNZYZPJLilRuAfhteWuyZA3UkAAAP+dJd3r2mQiLZn188qMtxLm3wGgCSzpXn2TSeiFd3uT20FGAAANYE73pPQm03B+YNnsrkn9CACgCYQxhlNt1uRSvNDlUEgQAMB/J8IwQk77g8odABqAg1/ouQNAE3Dwq3WD7oLvH+1bW0nyy8XkaHL8JaH6TKb9hQNJhaLT4/3HR5OLU0l3mD29/Fkfv309C8jC8pw87C9M96kxLp7fCCkvyQaziAAQ7nVo2Zz76c6IzY12Tskk+7Z9yJQHv99PQqrDbMSUCWmCixfPDtmN8T0qEp98ffSOKf3DGWnKPHfElAcx1UNuG1Gh3TFT7tNf8vn52ZTNjV69OCYAhDvf5MJdnrO/ziUVCN78Ysumz05C8i14yJSvtOzpkzHLe0KaaO8RWzIgC8tz35nyW1AtODOiQkfsxkdSsp0pu+3gU6tKDLiBcG+wNq0w8YN8InDSvDlghcYvB+TXHlOmM8o7nue+LdzDF2PG3MLd/bmsz5QTqsVx2XDf1n9K8bHPlt1H9b7xOGxs3T54wPJGA8qLt5nREXmVjJjynnLkT8bs4b5/wJhzuLs/95IpI0l1mJQM96TPlId0TT5jBfp7BJuNgz/dtE1/DPfO2LKzHt32esSMRgF5tcOUcUK3DQ6YQ7h/YDp7uNufS99p3zl+vSkZ7nvsxie6Ev1gxT4TbDQOK4ovJQtRONey5aU/7J3PSutaFMYXq7S+wJ6GBDIqmfoMHWbQgnTkyJG1UIvgoANnpbTYihThVjhQFbHWiRUP/oGCA32uq0e3ze7ayd5pk3OvTX4zB0t79N4vK9/69toyXbsSmtpz9GcDIqXn+ojofQXV4s6mqC3umnW0de8WIAYmIcV9puRuVpwLUH5BSpLJpFD4yuAP8d5cBXNdht1ESjPr6du7GMAIIuWCCiuP0GiI+wbqi7tuHR149iEGbsKJexG/eYQ/XKIv5yNISTCZlBkWUNiqqvsYv5je2/fT2as+p9DBAHYgUpxz5ByCh9oLaoj7KYYWd/26V+Q0LYieKfqieBbswgd2Bf35B1ISTGYlyeXzxDWZ+SZ2zq/MTpC681npRHAHysA5RF+iz45MRM0STBGluPfOw4u7ft0pxhqY+R1O3FvzQ48JBrELKckl8wPxuCYf5DMUI4Itx2p1z/8wl13gq+N7gU++WuQKfLFL0hedaqcZdRNLneTzGswYueilftgfnx60T39NLso3vvp4+zT5tXuwe3x5/bTTA0LYOvMcOa8QPYfoS3Bwcgp/EKfilX/Er58hJblk/q+8K3jB+cQ2P6npX9lXiHSHfSHjw+YPVve5gzDXXxLOf0MtFDg6YPCOs3vRwXe2IFKKKD/AJCQxX3cNkNEQ9L/fA8pSdUf4TR5kFPa9nME37X0vDsh48VhdWyKBmSIc8t/cjHobABrb6KEBKYkl8x+gdcNpzgB/1NprpOoejIGfPMAnD/iJwRN686rBYW9PXRxApNyR+DyR3+YvINC0yGEeCMvWHeM3E5DBnpEjJDmLLnL82/5WmHDLeh05LTpO/fqr5CtCqCklsWQIEbomX5hfgEBW9QgASmStO9RKGR+chKh7k2cuBKlren0STncAAs4YfJhsB9MAKa/4jU0cd/IRfE/14BEDwtJ1WfymDFLuBRU/kdo+3aLvn4FzBr5Qr+yKDiWOJNH5bUhJLJnwbH5rd36JE5osl1GQXeq2bXO5G0r01b0GP5NnQVIOxBRMY8G89A0GMwQZtS5yXmCGUdf5CA8e19wEQgR1t8hpGhqRSvdLxgfo5QGksFDp0kcy8i1L/kxGBWf87Kl/SozinidZE8Ul1yy8IIc3ZphpWaYR/KDIQ7Tqbvt+zB+q7n0+wRyvw/qYy2tfcsDphcUs7mcoPcHURqr5lBdFNmT5uqlgfMiwOohkbLAj/A4NkOLgDAcIytUDzyj5cHtpXiblHcfJmqZZWCjsV1MXhG/c1frMrOwf1ozg1j1V90DukdNtdZEzkrgybYhZ3K/kWrQx58TbZ+OH8e5AlEnb04DDB6PTycOvgx5QQtfRMOSd1oaYBokbuQ31UkhX52gCZx9oWCYDwnCcD8xTEo25mO1dCK+oRI7DGzNsLcuxlmrdgeUVTrqmupd+pu9eRsojUT4eqI5F3GkepSc/aW8BDB7dL2/ksQ0zDoQTpNYd76GrNw4QQtZRAd5TRmr4OSxjW7GsgWQbm9dH1Uq93to52TVByg5yXP4hq9TWEbPvT5CSZGo5hcRpN9+lZRp3So75aDtnPUTrvvyc1M6twCrIGcVzel69SCSHykP04j7TwSbMqLmek5ZsQ1DPjOwnnkGjhTOaEwaERepYFzlV8CHfRA8HAPvooWWGWwrZ7DvK1QPU+zmQjQAOISXB6Gu7Mu6SJd742pq1zvQbd3X3bWa9MP6TSrS4BBGpuzpA+TNb92PZGl8asNuPTdypij/Lg5An7DcK1AeS9w9n0ESBPQMIoepIe+wa4MO+OKWw6+jhLPRSyPppoHt1Knv94ue62DbOqEJKcllU26GkEjkzOzPHRQzJz8zpbXtZy3oxgzwT+6+puw0/kksXvbiX0vTHW9ziPiJvCcTqviPvGANiOnedCs5xBJQF6n6TkIoq7H7c13z3maAf/aAXnJrkVBNWLHJqALEFKYnFyC1oJJuqQaQl2CdKSa2VdIwZIytgAWfB1h2cUHPSWm6FfBmAYcsrAzMVf8IFw3QHG8H0FPb3jTyruNHFebbN+Zx4Z09vBU74ug2dJ13DxRmdrld0HcXTUKXuJFq5Jc5YOWUbAIwr9NKBlKTCNpXSFn6cSv0TpnHqyFQaM1Tc12DZ1h3scOpeWiVxh9r+NhfLiSk/vIk1iAtqTYzVS8PE0KSDgTTzQNGvo+31sXJrMUerBqb6W7+mshege9HMeepvVVCgAilJZWFtZ4pOmZEOW7kvwFEZM1TcbQhs3Vn06s42V0nc3xld3lzcXI58t1m5EDd3cj07wkDObW7pBNEHSui6U3IWyT/sTikvuBQSKzZ4MOqybpxVkJB27il/WDi6nVU0yutZAaZo3B2/CE2O6dkyYPqKbvzqnoXV4tUrohA3F/JDQmUMZkKP0lIqBhBC173p7WrZRRnnPc2lkJQrn+/eF8+iUdL9AynvLKrtUFLIsJUVMGjjTmstX2OGDlSpmZ/3+bZqrGVXAP+kq1ND76FlEDNT+Qn8Vwxmh+tuIAdA0K+jbvdUazuAftjoykV/KuvyF5mMeD8hJU3LpLzjK2kRjVM5pqpx5/pMsfyjkGsMdFv3KBe858nzZ8UQVMqCmHmSh1F20EvrslgYCqPPrsGHsTO2hoXiuIKKE5raddTYfgp7+8cOg0B6J11E7FYfn54eq67/E8bukryof+u+nebcUwAy0UUIa0Hivq7usDWNGZu8D2i17tGuAF6F/QMqueX0QJ/To2CKCt+5R9LlXNBsmtFsECvkmN67WgZKyDq6bl4/2OiOQEV+47phwB/sS9G3PwlYPcAxqjhPa+w9U5uSVBbUdoOWbZLDRl4MdYOtacwwm7wOKL7zcuqelar7CqTcCT7dYDvunPujfHfWi2TTotmck+Q2Ik0I3ik857B1PXI01Af2gnPcQDjsZ+I8+a0e4PRaKOIOr9KF7ikAC+YHHWWdQSKLiv5a25hh5ldSxtC/tUNNTW+NGJ0n5yxYOfbRw91fFPeCjy1TlkVo9vlCSU5DEoWpAyVsXYkcb/LBbOEcUwhJryv9EKWAd5F8dT6kf+T9IiWpSKVs2XEq9WXW1e21vjEDbJ1sIFbf2hHxkkij8PnRCj9z9QDBX/rKMYs7tWVoWqYv+wHX86kXg/9tFEnOsHUjXZejr/gXK6AJUOBcB8XmjX2PoXQ7hPWmN3+UklQW00JLQwHZmjSxmPePo6uNmegv3NNXd4ppmSasJA56cJ2YxX1LngPZkoUCH+YUPy/N9ZwLyk0IW9cgDo7vjUyEWwPCcY0eLMnqARMotfZ0p9VsdnYuzsSBgruC75UpmizW5+aDNJSqu8WAY/qZ/EpjJvoL9/TVPXHX2Qj2wiQucadRyHv52SY8kUnfFd/YSBx7r8gCJWzdkHwQ1XoZ4VOG4wE9mEGrByh0xPoMKYllIREz9HprZv6Rd1sRRi8BR2HMRHzhHoUVMiu11HdxpuTK5zjEnZoZZz4zz39kH2zyOXal1Y7ac9evo+eH1JMKmpfR50Jmy5zo7nGjbzcpiYUEXpYZp1IMw2DEz1GUWuHVVX3hXkhfZ+WPKSloo5cyXetZjFDcJ/KrUgsya8jbHO/Oq/2F5NNXgaJf5x9DpPSaSCBJdyXsFmd0JKsHmMaqntRyT3mHbLldcJwaqpI27mpjxoyjdacUUmOG3LGM+GiJ3vJF/cSnea0Gcw8hrrG7pR3oCD2MPovpK8aRdHuvWbzvMeDo1tFrAPXPp6ofCNcXI3KVnodX8tRRtuK1q3T5QMoni2i7HbaxVq9uVBszJRZj665W9xwkiw0UqPyyuES+9Vvce44IamnT7Il7RlLgTcZPbn5zuE4uIXng/eyzi4j1rSIAaNfR0e5Ab7PMc8X7QXvgxwni89WAAYeNXfTQpwmaEQRhX7ZQ/FekJBei7RGMU8M37trGTPytO2RX6bKlhXG6KNI93OrfTH+/uFyFoyNPD8vTNt3dGDbGgnIdSaKD1ePGwRaS9h6Mx2+lHYJ2HecfMnul2BXBDRnTm2kp3Euvv24cv416mYPrWxQ4Iw+iFyDstkeOAYZTbN89dlGgnmZlksysNTUAlhunqrF9cjARGTPqC/eWWBK5oqFHX/oYyAlEiMdRVq5MJA7JEIOokpBNxdKuo5+vEizTnCMwBJk+VVQpVlNe+ieX+KPH9VmcmZJgyH6U6MaplJLisaAyZqKzfsKr+8rtj1FQ245Z3OWdsU38Gj86hs4j4JIPJGdc6tZxHGKCUwY4tyyhTTazhxf3a/L7cQv+vz3KS8JeN1NEwms7UOHNLS6aZgh9dZbwfpZWd0gaje5fE/epX5xmDwk0WDNy0Zdtg55H3dOuo+d1LwKj5ZwLsrF4axFx71hktU0ZQoh7vQgpSYZoe3zjVKZq3BnTMmbib93BzGVWfauvmuO/Ju6XfotsnBYSqDs/UUYv26RSp45zpb4x746eC2igl7cFxL2tWD2gEPfuG6QkGqKa0Y5T9UedhvWxX8wy+JeLGzMsp1nJDMM0TYNJl0Qm3HL/4NiNXdxVrel9E+W0CnRDMeVBuitHt47zqpynFrtiNX3t2K6FFvc7Ggk9N/XFvT6ElGRD+toox6n6IUVmza/xzYY1ZgzTcpx8vqR5xJSZdvYD/kgh6p70xv2ds0os4k5pefONAoM6yugIjgPbU1yE2kMPG5p1HKOLnFudm6s6Ncl+R+yHFfc7yWabJ9AW953Uk0k8VNvD99/W8o27TZaM6RozNdP+0HRBi9X7C5iVFVhbD1T3zYROpvK//464T/2D5MWqTLl6IHLnIqE7lq8PHqjrBN6Ulvsv9HIsDRy596HEvdKW7SM40xX3yjih/8WmeCDaHr7/Li3fuJtZD4aOMWOaWaeQz2e0ccSbRAg2818jlk/u/ynDMkpoXfUgSg4CLpcw7uooUp8YdCHjKzHlRzBj0EXOnnYdFeAhyHDqNKJCo+/PDCiZaRMl1K8t2WHhDtMT9+dxEl3ElHn4TUOxj1OdgIUtTOyig4yZwkebvpkJT064y0kGad7tz5+zuXo3LYWh9LDTFRrb1+shg4igAtYCgr3vbbz/GVsgY7Dl0djKtAECbx2eW6mp60Q6CnGFJ7/R6VgjdG6dTm9RoLK3W5Ov+dkAtbhXypPkJbtS/mXvjlmkBqI4gA+ESb7Aa4cZmCqkzWdIaWFArLbaTosVBAuL60QQFESusLBQi1O7kwO54sBCP5e33t4ZeZPM7maSnU3+v9o9jzt49/LPmzdOuy5NWSSM2rdxv/uvS/eVfHkSkm3UdjfjyPG1ntnKMBf1/O33z1eXV5/Pnp3cVyIkHj08Fw725PzB8vLqwbOPVrSiLx++ni6Xp1/fOs4Tl2+Xvx4/fHfh+xzzfvgVi+biyY931z/g5enZt5M34n8fnt5JhMvJj3eny8vrDz/4/uH33NaXQodK7GSVMHnPxp1fpq3ZxEwIBVszz5QCDuOimebHpbGVAO8oYcKqhKnzvCpuWH1jteUtGp7iLmQSUM7e3XLo0sfG501exJWC2U+NFTEAk8XCFY98o8gTTnmLu8jDF3ctO2TzfXN6YL+bG3Jjco7d6DALNgmnEsKTuYcNZioeynDYojc2Pqz4MqbnJ/WycbIVYLoWSQB8CyWflhkgmJHsIcEFrfvY+FGdbyIez5rX5QFMlk58Qsydl2zZQRDE/oy4YEB4bHyc/FE8vwT9CLeRwixUSRD8xCixE6rBg5mCBUBOmYDDsK8aq25jcfYvLEJiB1OWDtO4890y4YOZmpqpDAZmIvT+XnQJyMXdt/T6uQCYAlJa84WJFLpxbyqNvGaUGKS4L9Tmq0nkMtE6/7c7Jo5XH+pn4/IOgONHOpO3Mk2DRO6FcCASTJhYpqLmm1vMy0Sqvn8rjucndf/WGwFw9MjI/xlix1P7U9tvj++rzgslNhSKOwDMU5l1JBWhTxT5mf2DmLwqpNYkmpT0iut8JABAsLadMxT8wGgR5EQsl+d/tyAIt1JKjMsAwOyQlW6Wgs+565ChTLqu6UavRAvEMgAwZ0a2sRS6dU+p/6Gpel3Tm9ELijsAAKO9NY8WY8buVHen6mIXGIUEgJlSkmFLAWjM2L3o+wU4Kzew0x0A5iKT22zDteHKu+m7yWa1z8MJNocBwKyU2+YVpGVxI9+oey6GdFv0TnY4QuQOADNj+88IKn3DFBt1sn9qXiR+UuzKYLUMAMwKDbFSq94/NVd9e383hcYdAGalHGBI0PaI3fMgIzecQeIOAHNiwh/Mp3T/1lsmTJhghrIo5yCVXkMoBAChZdJLOPRNzReCYcsgAwcz8YUyZDK5YfDsAABBST/q37hzxdahTGrDBDOl5xju2EjLJo3yDgDjFncVqHH3x+7GncAUYSZmVCaZwzXNZOP4GwMA0xS8uFO6d7BCqTvAodr9+V2RjSdvd7wDyFDdASDeWKZIuHS72L1qO46q9wtmuDKLo20XwsaTDwHAFGXSq3fjXpmtYnfd+o/2DWY4Kq28kxklDkRHNrUDAFMTehSySjjVksMb/zLIWqz1CGY4KrVZO+QAImHeHgCGpcMeYlIJV7GFMc7qXLTe7dEezByrMrKhTACYHJI+qn/jLoTyxu6r1lCmK5g5Uhku+wOAgWWyW9a7ce+48rrqXgZZU3dokx7p0U7CAjMA8Bh+5W/Pxj2lrvF3yzpzFspPMJhRuDMEANzGvKxje6orWXHH7quOvQO5/3CUFcdIR7jlBgCmxnPNXpjGvT12Z1dws492BjNHOV+C4g4AIzChRmV0a+Pui91l6+vSSQYzKO4AMAKyMsxOrby1s/bE7tQRyvg+f4zTg8jcAcBprOqeUZjG3Re7562TMNMMZgi3hgDAGMh4+vaejbsndrcdI+7+YKYuzNENEGLOHf6wdz8tqXxhHMAfnkF7A7MdZmBWw2x9DS5noSCtWrXKBJWghQt3IkoaEUEKQn+Ia92NRmIFgYt6Xb/+aJ3xHOeZGY/d+nk+y+i54634enzOP0X5HmaCZ+qw7MDd5r4nrC1yxpaVdNxfdR66qVruiqIQVjV4p4fD9MA9G9A2JxSjnyec/T0Jr2/QbbDVs89KpTObeqmZTrVbOu9kDPgW7cpL4+157aDnWf2zaqnbeOnbIELX/c4ltELFdibj/pK/e+Uf0a0N7rxECQN3+i2Aasrw13n8/oRP/fPp1NTNLr7bvVn4WKPx9HiBU15hNNRglZyrUeECZ7xmGwSMl+ODJn6q5YBA1Ml0s7nIEaxE5c9BHt94O3tXLigKcWCimTIguiw1cKfH3vy5AzwnVHn6xzc4rH98bFiDCbpmA0Qy2zWcVz+5g9Ww9gs4JwOcyl4N/faAQNTJNMJF/oJ8eq+ALG/UB0WRzyYG7tHa7iZ5Xjxt60cnvG7/07s6jtHnGDjtEYrt9nSQzjyuIZLhfraLHCKkiTq5Dr4z3PsT5OR+8F+88lvpxMA9Wts9DX58Y+b3J7xu/cNLoXJcKsCcXg0XGYB01ToiGe72E3KIkCbqZJt8Y7h3Wygw+ZWb+pSfS7cdTcCO3lnhF1DS5TTHtYvw8/ju/NtIwfc5Qs4RsIwHXGwIsv1BpMM9U8coIU3XyVf/vnA/QrG6SndFGiPhaEJO7M6KBRyu/P+Q8F93/tkpHb5Pooycsgtfive4mOeCXPoThgj3uzxGCmm6Tr7a0uGuWxBKx8MFBr9xy7byAxmJrRh9c5OIYeDxjZm4Cf+zNjzphmmmDB2+1V8qfu4xwAgky2GIcG+XMVpI03XS6bhkuHcniLVRBkjFHVzoARRlWUV3i4zoGG33pEE9V1tK0vmFW1pl0vP4od513W4dP+R1mLnGIFWQq4shwr04wYghTddJ5y4Z7mN8V6bT/RYDnIOiLJfsWS2QGbdvnqAX5ixva40/vFZm2e7CK3eW7hWYOsMgdR2kal+ECfcTjBrSdJ102nLh7rbwwyYQjDwGKICixGalkxrBids3d4DiajI4v2Cr02rc4IcGvGvgh5vZ76bA9eMHO3kPp65BrhH6DB6GvVK1dHR1/bDbhpm+h6zywfFNt9ro9oaXmwGxSdRJd7ZcuPdwyjMjfdjxJrs1ZFVBUeLQbSLZiYE71XYvAsXRpNha13T/g+9aBrwzPH9q36BPc+zAK6My3PTwVRukqvjC97gNQpvIeC4ZwJFUp1/tM3rM69xn3YFIAz+1tv1KkfYe9CHYHjJGLoD5FxmboCiyFj3ynLjDbxdIWgz/m3s+5G1gqsFUzTe41OvIOrSZ39n+QGJw8HO3B06Id4BaD3jy6nLiMbAx4JYW8Xr4qb7UxHIFgjXZJOdXk3oJUJSYix5pTszx9xaQiposP3R706qN8cMdvLvDD+PZ8JN1qIPPeQcW2Am2DUKu53sW3TlvdYAnsc5sIqOgCz/OHIHQED/tQnS3OOPQE7fzo3xjx/f6FCXuokeaTu9pjZm3tiZLGtbSLL4PDHhlnPpHqZvIGJgQFgY7AKFxmGcZZfzUAwJdR/90uDI7j4xNeonpIUTXwamdCB9ImjC1j1+eQFFkLY3hWbFG4C7QXE2WJKwl25sFrgagPc+Gtja8MVvIKMGKw33iexadtxPgSa47REYzxR/Fc9EGsSf8dAIxPIcceDdEbzQZtV5Gicx0s6sZFSdEh0HSHE0aWE9f8ZXPz481q8iYwIrD3Z4/sabfHY571fbCPnj3ver8ZnxT6hjAkVHn1LizFtot7kvEwp9riMHdxVfeGAhd4ZYyj+lBretaAUXCokdaMk5MmxCCtrR1b7pXUKAimFAcrzrcq76DKa3b5mzo+deFL48441kAnftpjNXuG8Bbvm4fGWUbAB6Q8aiHOBTy8Om5ni/nB4e3GkRw/ic3bAOlhKL+Txm/ZEFRyEWPsVnRj5J0AL5pPnW9R+7whJwn0am1WYnhTnWpz6FSxy+1oQ5TRQ9nTkHPIeNAA96ydfrj3GnId8jw7iIeCrnbAMnOUTBzayGjA4pCLXqMLw20YlJjbOmRD47nuUXbDfvK13Z8Yz3inEdTsMquDBLDnVqH7nZq6LNn8B80TvQR+pQ7wFuyDu48/NJy4CDkdqQ6it27IFWFfXmW6JjIEigKtegxvmTUpE4WIYy0FsyEV2YivaWR1vdeMvdxLttd+GAi43nl4T74Cik3j3MO+Rbz7S3OuegAJ2Id7xIZ21Vk7KRiHArZ1GCRq9NgbeA5gtaZ20RGDxRFxEhrMoTKajOrTTkGhEKENjMpSyb8Gh8fZp4g48SEqTbGXVGXC3ZFxGFzDzlX3HLJXAvn7ZjAiVbHs9ik9OrIOIt1KGS+TZ/QKdYHgTw7dG/Aq7uduZ+coghYSU0KN0L7J+lYEFLI5zIJn9XE1nsf392oNU2HwwrzVWTkYMVcDFRz+MO/eJfAi1bHa+ACTzH/NxNDZrjfI2v3MveMfjegKDxTo0jvaOu61Jdncv++6TqfCb/uW5i+2NXbXO62YQOjg4xrWLE+BjvmF57zLmzgxKujT7TPB9VoGGAsM9z3UUC1ZRSCntRkKYIs/OJ4ujFDJHxyvcfti7wQgSRXBYPlDW7PrMAQeNHqeO0aipSIHaaL1WyJ4W5fYLAuKArH1aRxYQXSER/MJ3zyLf/dNe63hw6oP7BiL0ioTjduBtoFXsQ63hA51KECmQEGGEoMd9hGnlotoxCSmjRbsAJbWgg/7bLU36NCdKXlqqLP9lk6c5PnGkO7yKpfZdJne8hoGcCJWMfTJ8I5gEB6t4Cvms+j7dFzHv0eZYZ7WnQLblmtc1fkbBHaShiOFswIfY2oaRgQTsi3FSWeduzbOA+DXYNACVlH/KWnm/Cq4MtIm99IWwFOjDq6ZXQDFL273XVn/8Ae+rgSwx26yLmqs3dYKUrM6VQnYYT43gSQDCsxY6f0OK8vq1awS5TyBeKq17k3kLEtuB90Z37jpzeNLbNGnHAbtY53iXNOIaJeiKtNS3vBHBC75n7Ahoef1vRcDWXpcHdsHd44Sw+gUxsJH0uPPp+acFRjRiJ23Hyhrzjcz0Xj6D7baphvr2yKlsLsAydyHW+EcwrGUsc87INU+x6yCok+ew6wokQO92T6M4AtjWRAEN1KzNswI8+nFg3VmJHolMvbFYZ7BRkGfDDwize/6uVY1M64Bk7UOl4VObcQUX+V09Ma8//zLk24Zn/YisJLBic7fMlqJBsCpBIilh5xPhXAVY0ZeZ6QkVtxuDvI0GHqYi7xt0UJOeaSmxOhjmfWkdPKQEStaNPT9v7D4UkVwsoMNwv5i/zgcOj6pxiOQVEiLDXMusXIFyI5ZLbzbB0CCB+xpRoz0vSQkTdXG+56SzTh6OGX+Sb8CUxdE2PiaHW8HAo8Q0S1SO+UlTy+uTeAQE2xVkFReIa4e+5LdnrgTl+2ZyZ4dLqbwhF6UTVmpEkj61hquPMmgglHd77n3hBNaj4RS8hj1/EHQ8Y/s8WOtN/X2FmigWM38ZNng6IIJESLHsOdvJsM35cxEotZsJAreoJqzMg0QYb3wvcCDCnhzkftpSCTC/PvN97st/pIb9mh64gj3XnlNERxFOmNofr5FB2ish99s8eKIuRyix5FshrHcUL3ZfSNRIBUhCv2inwrfs3vWVrSEFkXVWDZvVNMgFAh2BPZS6hN8/eQ2xI64D9L9MVrwdP9jA0zdB3xQ4i2R9U+PSqCj7WDjBcgXMdfpt4ZIOMIFEXMys4vegw3cDcFXySaMmIbzFOpt5TAvVeOa6vWe0TuBfrs9WEq09tsIWIC5LFb7OA+xY12x9z11N45N1Ct6fAuu53HV5MeAESp47Uv2G87RUYDFkkglkc9Fz5ld5HhWUC4jLvBtLKNrLIa1SiL2WnHcVyLviCP5YCucSxxeSKYCWI6/1D6SBzHtdRBMhFc4pz66PI697CZxw8JkOgQGYWjStWfU31+uO3lzio3dcFo+qX2+QUdQtfRR47d9pHRtAPC/c1gb9zoZLKV3qgVcgsUv0pTA0q7d+ZYOlhO5epkgH7XoCjxueIuiBPyXF0rEWxDDz2fGu7MmaRK+NDcMgaQHO5nGKTAXOxKnZJlMy97HLqO3tvfNGEbGSdEuC+yH369y4UBlHNcqKmmUxXJ5wI7wmZNEkQSlFSE+VS2MaMS/j/27p41iiCMA/hDhtn7AtMOM7DVsO19hi1T5ECsrK7yBdYgWFjYSVB8IUhAi4AvBLzYmHCiJwQs9HNJ1MBeZvaenb3ZeOf9f61ukup/c/+ZfSaBoysKdz5/j9p8BDzR3gH2JxHP+fJbl0ajl++4y6f5cN+1xDG7tc8PxltMhARG2oV7215GS46N2E+Nm1U8coVRBIu8uMJw/7C91eimpr/ubTU7DFQpOy2f49/juqMuD3L5pLuE+wnxHv4pcr7bZcL9gABSL9zD5UhJPiM5g5j91Hoxg4RPwHzrM9z5gyn+faXFHnvG8pv3JPtc2Bt/3Jfx5hDHhvttTS1M7+3tfj81tES4X8d3U0i9cNcNh+RHwcqdpeL2U/1ihjcqkO8N8ttMuKc0a3Mz3fTRVtheGZre/qDtcz79aS4rA03V9ofocN9zlAIf7p+R7ZB64V42vt9akWcgWTpiP7XzJVIZtp4a2HtXF+6q4Xe9pLrXu+HifCd4OVHe9jnfJDROXd2ZW4aryHC/+ZwYacL92QnWK5B8/Ixu7EYK8siO4V4wjT5bzOCS7Nb2bzHhntDpdiCnjmnezp1Q2/E8OMXxadvnfDvPtmrG4RmRx3HhPsuJkSbcX+CODliCsmXWEJJML5Mg3B0zU1iKaFi7N8lPQ/G+/fWuouSmP7xG3K8+9OnlRfjuiQ5uA7+btnqOv3j1naMLT9n79tTRt3C5/4Z86cP90XhKAF2p3IkwvaD4rpLVMiPmoGUhomX4HttIP549mW+OZ4cF9eP1uJbAt84eNEzErRfrr44t1VXji8d/cs+xx0D9CV7TrbqvFDQ9vT7f8W/fnuyQJ3m4b985eIzXUqEzLV2bdmPk9zKpNlQ1N7rGicUwXixa+fD45cF4dvBysv86pz6pD4eTg/H4YLIvFDXKH55cG8/Ort1/m5NHTL7e/jE7NMxzvVLPfx5Nrh2c/64v+w8M9aQ4nrw/m81mZ+8/Ht+dYhcVutNyUZ+d6UWr5xtdwp0CLJfMogNHAACbqSpG7Ve/VYvL9oaSY7vsp1aiCwIA2EDGS3amt/b/u/TnhnGGXfZTcyEQ7gAAPO9oDF9bp+llFAVkrfZTEe4AAAuo3E/2MMU040LF9jKWEu2n8kYEALAxVB6RlJpZYIs89jCkTrqfitMyAADncidiSO4FVhc5F9LQ1e2n4hQZAGyI6oaIc4Oiexky7FUd8fupWLgDADSqsmVXv21e8lc5k+3J91NLl4U+lwAANoLKRDTJLbEdtU/3wZAofj+VHxvmiLQt5hO+xPABANgQpWAxKdvysj1lmXV76v1US79VeeHEbw7jOABgU2jB4zp11RisfO9uVfsbQkzTsHf+XavKGFzFBAAbRIoucq6XKSlE2YWVDPdDlf+XY4wMAACzPk7fy/h0Pd7zoaKIcB9F90mWAAA2kxMJehkdk6va2HNmqPi/jN9PxfB2AICAUnRiuaAt0hdG0ttPRTEDAMBEaJyS+yku/Vav9vZTUcwAAIRVopOMP5O+tJL9PLnCYkYbo1HyAMD6cCIoW7KXcalfr8oU1ycV/RUzZiDPWcQ7AKyLSvhuFFUR18sU3r8nHoyQVcTV/OQSFzP+y7UDpDsArIv8crJLTaSyJXuZnBLQTvzlNF0SGBujsn6KGSsl0h0A1k5ey0Qndcvj7xXNcf103abMhMhK4/9D6HyO7aWYGcoaTDAAgLWhykycc7lqP02sWNjuSOqZDL01208xk8uaAQEArI/KGBP33upoUbtTUt9c6KtEL8WMknNw2QcArC2VCV7VnO4l9W4Uvvjapr+gQyPcAeA/UXa600iXVzdZVzVV6y7FndhKK4Q7APx3dMvL9jzKFkWuqQ/8fuqCLx2aIqjfh9oH9iLfDcIdAFZXseTC3a7WVdNF4xRiK3yG2lOD+jhiP9xxFhIAVokol1q4F4GSW1Kc3vdTG4sZE5ftF4Z0zso5BACwQiJeKyqDB06Klbps2k/wRbvBFbVmvRsArcRRSABYWUKMllq4k1mpXmbRsPe88W1anvLvd5VzbG0qvUH/DgD/Wvv1q2s4KZ4Fau5/xi06u+O6z7kZelEeDHeVYxoBAPxi7w5a2giiOIA/3jLZL/CuwyzsKex1P0OOOVQIPfXkSVOIReghB28iihpKKVRBUIu02ostFluh0IP9XG03RmczO7ubdNdM4vvd2gQDIv/MvnnzxgmlK8/K1vXYcukqDJF3DFU2PF1DQmlKpCmQ4//xV+xrdXnGGJsBPdynX7hb2lAIZoVyKy/B1Bu/SoyRUqTESRWeJ4kxxhyhlcinWri7VpeJcjt3wmnPp8ZijB+IFAkUCh3f9cQYm6WyRZSWZ1gi25q+BbPzIrdApJa8oUYAkyBRgKQvuPGdMeaMslWZhmddn4cuFd2BtHRvEhiCVrPxohkSTCYQ+ZQQgo+sMsacUbKE0suZzEJOhTtA1PASDQHVIV/k43BnjLkkglKUl1NYb7oV7kBhq9lshQRVkhzujLHF08sbqRiaO60LSIkCXHNnjM2fvI4Y8sYsZqdIIApwtwxjbO4082aht9wZLlMj8nnhXrPweG3tOIR89Oxg43Dt5OCZhDpRs7+x9u9z9oGxRRZYF+fmTK5FvSyaRCE+oTq9+KKLie5FDBZy++fNKd5pv/z2xYM6REfLL09xZLPb6YPuaL3ACTA2P5p5ney9hhtHmGoWi5J83k2d2PYO3tvZhizPljdx3Na7K6iWPLxtmx9zRHDvHRZ4DYzND1rSCy8Eab377vLGIhebA1FKyDWZib3FlLdg2P+G2bpHBJWhsx3M9OsThzubP1IpgiKymXs4KGwmqb/YtWYKRQnBQv8O6tHBMR0Yc7SJNpdQmYOXaLP5m8OdzZlgKQnsHhQRL4bRHkI22YMFk0xnp9SmKpfb6/AGDW9AJ3+g3ReoSrSHdnsehzubK60JauU9FT6hmygoNFfiUmThcZD/R7xCw6sIHvS+o107gsp8xBw3xOHO5khr8btcpiT9rMBWXJKp3mfM8BkefMcc36A68Qrm2OBwZ/Ojtfj96RW0tftUclOVvx+nQas4tHUYRYdbOLRKMHKO+ZFboRPMsV4y3M+AsZnzdAtXM6+sMybQQ587ICvWH2V7BH9Fo3Tvw51jzLNFUKV1tFspF+7thZy/weaNK5dsOIesS3LiDsiKXeDQNiS2cegChuilUY+/XFlt451zqFT0apTku+uD7inqTsuF+zowNnuLP/BrStI+5DHmcnu1PmJiT0JCttOpfYEpO9fN5F39L8+TN+5DRfSP230TJf8Iv+yhhoa9Pcsm/VvgABibvScxN6CCcC8uu8fG2QHJaT/RAaZNuLOZ2lGlLdQNQrgXvb7E51Ax6uL6M7h3pj8xFFWWEr+AMQc4crG1e2RO0YXConJ77PNivrxrHLqCxBUOXY+qNLoBQcrJAVis5FsGG68Pmh4+eAk267ydylzDVRkLyhviS/nldgp4i7UsPb53Jfwl36e7YJ6j5lJBWZhvF8qhNt77ABZN7U2v+AGYOUHvhORlpi7IKbxQbgck+XymaSJhexS4HoB3i0N7Ifyj9lCzBvWHu73gclxmMk4HGHMBZ7uNFAayvKbGSjJ8aceEBjiyuoojA0hsoOYXPHa4y1u81wULpZ+wXQLGXMDZbqXsowXinOtSFd/aMbE+ZuhnjBS7fuxw//Qe77X7Bb2ciefAmBO8Ow0+wGQIrGV3Zc1vCnmO2BR+ouEnDO2iZulxwp2UUmHrau1zt9RQAVpJnZdlzAmc7RPdq6cyY1+fR8MTCaYR3OCYGwVDO0YrYv3hfowZros2hBMr/KTGHJGV7aSCv+In9VdKUpp96SQMMiPcfRiJedzMlKKbsWyPYEih5nZ24b66DVa3qfHDjLnBzHbpP7k+PlKhSPiBBF1sKbv7mcUaCni8+9TUO9S8U3Bn3yjVlNXJdzZJuJ92IrC60t/IIzyYK8aznYKnd6Je+daO9SB7gIxICdLldt5Qnc7Vtz1M7A36ZnLW32VoD/f3ryPI8QMfLANjjhjPdv/JzcIyMjk2X9QFlqFisc9DgP9TuPG10/m6HYLmADXnYFVnuHeXL/bBqtXGB1fAmCPGsj18cpMObbum9pdjkBnfBkpk4qf0//Tb3NOs3zEafp3JEjeNdIExV3heaFYh5vYQzkTTuuy1lLjgLJPZ5k4hT4qsxwFqPkLt7N0yW78hS+9V6uJXxlyRynY53zXjaaZ1qcJ7UJX5stHmTj5fzFSTPmo+wOM4xizt10UHmFafSgsCmwfh2PbhHC/dgynmuUiRKTB+bh6I+WKm2uyj5gdMYJDvvDDcTYdgukw9WTDmJMqOKJgPqvy0ruLglmbZ3S7gi5nqE6Pm5pH63MOTk5ONtaPz9RVM2YxAY4y+aTeBMSdJkWk+1p8y92lDSklgImGhYIJ053J7nfSS9ik99myZqwHq3oLGmI4wAMbcpESmGEqg6IXnLUUEsxLYNwoosKWtFBY+6GKRj88u1eg9avqPGu7mhalbMOYTan4DY25S5XYFSUTNqAcpYWPWM2p8e6+6bw1cJWyouHpj4jHuNfiJms7jh3v4h707Z7kaiMIAfMgwmT9w2mEGUoW0+Q0pLfxArKysXEBFsLQTUVwQEbQQXBCXTlFcQLDQ3+WuEycnM8lNNB++T3m9mwpv5p45c/KgCBykvqPhjUQIYKPywr35nuM1h+1gpfqhtPRviN+ZjVxh8lpiqafSgtxyu20dbqo6y90icNytFe6yD0XgPvU04Z1EnhHARrU5OdcNDYA/on6p6d8Q2128sKBOhvv8srujPuv1D35/bGBsSZcoeq8e7ldG+mUeh7ut+6avDP4/nFGhqIZi3KnAKfor2PovrLC2NsJfqp0Z7mR1NtNSD3v0Rwqmr5wPxHXtg3a5cGeKXS7EU0rt8V4TPsBmmfQB+j31m6MfGhXw9DdYE2ZlnNNCrcnnhjvTH9zckow1ONm0k+dF6MF5ClV3bxeaBp0c954GnP54if98qAhdotCjIqAIYLNcssbgVKAJEz98dH1t9P1cvPIWR6+n22AMRfy8Dkg2+/dY2DY0D4qes0/oh4N3D3+teWuaL07yizfvcfjIhULeUD3Z+yUAsF1sUjHXKBXXZawKaVqfjeO01T2tkMmZfe5e+MdJaqNXoU1yVw+jKS+vHj499Pbwt5rI0uH+1ZnDN2/ce3Lt4MvTj08WPcfFA0zFaQLYMJsqPh8ZCvdK/e2au4+P+Vvh94YbraUbseQ+Kd3lgnqFRsmdNWcKwUrhLntPocPFb5fxfwrb5sYbP1gNFWA6FSh/XSe6unG0Co6+JRMLS+9oRZ9TlzFCLSih4oGX7Ot5PdvwaDPh/lI8wPSCALZtPAu9Cjn6rlSBjr7iTn1Tn6IV2KFYNf0HhOc6ymlgt4lLX3ZkG61xe6bdXd9IuB8VDzBdbQhg46wJEtJSX6NC9N0pFfqWqnrdQ01WR0wrFNd5PIDZTJnUW2V2QAYfjlnAC3DvNhHuxyrxANNbAti+nzHp47TaGyq5axWyRG4vetayrE7j4cVzlVE48SRhM23ggNMaN2haQnViA+F++SCFnhaBOwSwL3A8RFFui6lVYI9srXocLY51mhXaZdKB7TnzspJ+kdcSgkn82X8e7h+uUcge780iBtjXhttiShWoG/WHhpbntSDdLsPUE58gbeeMaHDi90TRfSE3jv/TcL/w2o7MvLlLAFvGzlkSyG0xTo2raVlyeSS/F1Kc/WIcz7iuGDty5Hc/D8nflOrFULwfeHOaaTH6+XD958ytJjoAG/4xTi7Alrn6W1nFkyRui/mmUeM6WoE1OsEn22VCbJ33zjElcTXYAYmV+19gL729XIQuvr3b0MKunXt1uei5ePaSpT996o8zA9gsV6fCOG6LCUvuMk2CddfuRijQO9qRFS4jqLn/Fd35ZzdvHX176+bTG3cqWklz78aL75/y4tk9bH7DfubqdBrHbTHfsEqwtAr2ehwLw4AXDnfTjp8JwykmAFidHO2hkiky1BbznVfjGlpLq0dZYRjwwh9rKTKzz51RqgGAxaM9pBcsude0Hq60SB4dxjTOfkGC1Abt/BOq1uOm2gCwZrTLVXenQj4YJSYqG1oT+3ntMjJ25nvTDAkSffNzZ8v4kSU94+58ADDZhNV2o0KcUXLvLK2sNVoijw6TcTW5A4YEiamQ4nu2Q1cbgyU9AOwe7nsZJfcjwbkmwRFHovVLM/LosMw3c5xTafEkyp/nbsVfFmxwdz4AmEMNoYg07tfWSlBWtDK2rfNGi+zkdhmXPpokv1t+urvR64XvvRgz4AFguXBn6pHH/TalEjRMa2LndZITRoeJ0lNm5Lb5/HR3ieZKoQRkCABgt3B3FJDH/fo9JakdrYidzuJ5UpXcpucKyEUeGXuh3p5s57G4OR8ArBTu8h32bK1G1c0pWkmlMxkrjw6LOfH6IIe7ndbV45ND38O39Dj4BABLhnuTLrlzo9LKddplnM7nJvRC+uQ9OKQ3S+PWudYyDXBSDzzjVCsArB7ulQp1pcpT0eJYT1FxdiXFiMUdOYp59DQUUwYj3cfDIdwBYK7sY6WdyrN+urd6EtNmroBZS9z0Nnfro3W/oBX7JA3CHQBWD/c9NU/JtDCnJ/J5IdlqUWWFen8lJLvJj+RKOuDUao0NVQDYLdzLOnGKyaq5NC3M692YORcNx3Kbe5zsIT9tgrD/I/XR6A4As8O9bNipEEW0mqujhTm9I57Tg2Os3OYuJ3t6z9VLX85iSjAAzPc92ok4cYqpVnPVtDCr50inrU7wLLS5y8meTmWWniynPjFGEQBAyrdo/yrR6F6qMeWR5cNdZvRu2pnXDGPjNvc42WNTfoa0cuqHn1Mh3wFgVMNDG6ZOuMOeoGNi3+2la+4rt8tU3rXWGp3gZjfheI7a3IPElXD+hcqMpz7bSn+B0e8AkK0ebXTXSqVHDdiqK9fslpG3VI33znLuDfj8/H1aU+keDpJdZPOvU24s9bn3QRXSHQB2DvdaZU5/PKXrcvk+d3mMu/GutTxtEW6WK/YEyS6bsp0qpj7bKroQAAAkNSN1cm7UlOmPrqmDbF8Fty5YrEfY6DEZO5tGC2Y8bYnt1G/XEPRGAsCS4V7tKUFtaRj75ohSRzpLf1+6NMPp/VTHXi8lf+FuJ41YwKYqAKQ56RTTqZGSTLfdro3WTEtFp3va6B3myx71XuVsAKAuAwBTCKeYuFPj9rqN9m18Zu9uctuIYSgAExhwdAFuCRLQyvBWZ8gFvM8Zcv9Vf5AmrjUcaeSxO0bftyyCNs3imaEoSnIjFZtL1cV5F/1rZVptJYQ7AGwT3WLieerwfj7g9UnRxAFvXmFK9Jsm3sH2OcjCEbRlAKBfdIvJgmZ79DbHQaiaZ15jdCPanS7G96OAht9V4h7H/I0JAA6musWkp2mb+cT/NuBFzTxxB29MTxoR7Va8D6yVCWHZDAB0cQkG3eU8jbi8GT1bXKzHkq4GrVYPto7zgTnIECYhAaALJ1kM9zxPo94/6JmkeOIBttb+lvBots1L7gp34+UPFCnIdgC4F7MvDbrP0x3mZ6Z7STwoS1hF5+F/xIt0Pmwty8ep6tzDkO0AsIaZpQr3e13oaQpXRloz2uikiHcnO4Xh3p6DFE3cISHaAaDhe7rapqa307zLw6mH2e3uEl1hqpTUlez94Z6qNot0HgZjBBIAesJdO8P99EFEH+fTTq8vHeLJvSzhFaZNxXsuEua29z2vpxlFOwA8oC0jjVaLXy0Ge3/q60sx4buVpTKaFmkKk736oW7fMIyiHQB2dDU1Mq2Yz0LXxN8uBwh35fu5BFeYauJRsm8Od+EbKNsBYE/s1S2m3u2Pmt/m4bbMQd7K/iVpfYUp4HGyx+Fu0XeO2h0AHkbpDwvD/d3oSv02R+2DnkN5i/C80rxzaYvXo+aD4Z54VFKU7wDQTd+mwMy0zqoz1hM9iXDT9XNN4txFrm9IuWvYbxkO98J3SFgHCQCdznPvU0vx2xxf3oWexXlddiu6tRuSbucfs+wd7plDuJ4KAHvx9lNLbZLfLtXZ66PJSrFuKsG90Aavuj5ZFl9rGg53YUa6A8CD6WmKXJQ2UctGT1WWi3WhiDi3lLq+tqVwL7RMmuHuvAIrIQHgfo3tjzPTwWn6LtbdVHbYRqN1SGf6xYJzV1Glb60CX0rirbDMHQC2aW5/PB1+9k7Ng2I9IJlXLYX0UrjL1cdLMukLd3Xu4dr4ykIAALHpt9cu3jcT6265f0pL3ZS/G0NZgnDXzUV7KvL5fSb+hgdUAWBjuL988T7SzAnZQu/cl8bcb77IGuE+tBisZIQ7AIyF+/9ZvGeO6MK5p9ZTMHXgy1q4y+hiMHW0ZQBgJNz/0+LdOFDquUmPx9wTf9Eg3IOivTuyxRIOVAHgznC/zBuLd7WfXvFKfNiasZu5yWQrB6XcEe7q9+6OKY5RSADYotr+SHLqKN7rNrK/XrxLlO5+vX/AihDFY+65Ge6e9tgdI45LTAAwGu5vQj95d/FuL3zEJ5ZWArajkaM3f5j22lWZfDneS0K2A8BAuJ+MfmsU7+Flz/xKkdMYSjRphrvclP+lN9zHuzPqWOsOABvDfc70qbd4d76R6VVo4oYsraUBN80d23nLfBFaIPqKxxsA8HTB9se4eBf6w441fC3qiZmTFxmI9loqjW3u9Eksc3Kl/cL9dY8xAOAoqoZLs3j3r4r1SBtPxFJvKqoPhGv73etGuOPdJQB4pumXi1GlWbz7kZYVSqoORAPqw4t1O/+r4twjmePZVAB4lL8a6ZqZU2kW7+8SPxRH/0ThW2UkeGvWs8l3cDEYkVhC+Q4ADzFNb3ITkd4s3s/xexNK/0DhWgmifbjvHW9zH1oM9qlkNN8B4AFOH3V4WbPzrkR6nH1WkniBDEd70OEprY8x8ZFGujoeXgKAR3L+lJqddyay44S785IUnLgGvLmNwKIPj+2LwapvDekOAA+T+Y/m2Mz5SOGuvKxsiXZZKbyzhGPuY9t8490xWN8OAIH9w/08Vc5HasuEmRwMtsc97bLamvHwF4Phor3/4yERAMBObZn4+ex8pANVjkhntGt7y7tLOOYu1le0F7oRncYe5gcLAC8s0xdZ6mfwPNVm+ikdpMAUjpQ6sGtZu85EsyyPuatznyzUpo5wB4BdTBejzaOQTD/ZQS4xFY5YNUpTSaV/y3v1l4dF+3i6k1hCuAP8YO+OcVuHYTAACxBkXoCrIAKaDK86gy/gPWfw/aeXhwKFC5mSYju1Uvzf2qYFOvxhWJqE87bLII0XIvHVh5jmrtYPhGK4MzVGe9aaqUhKmX164oUTuT7+sgDwwQpH9Hgsb4ZMXfw7tRLuwako6D+xTsgpzs8zeunhIxEAfDL7ZfZ5xC12z2NzP7qLBPLFcKf22RXmrDVzMfIv7EFD4Q4A71j5O9ldk9mQHp6SZ6fxhS8GztJ0cwKJxb1HMs2S/HgdAMDBYx3beF+Vsn3VzxlRMPcgp2C1rBdWGu3EF63tFZ+OPgeQj+4Qsh0ADoR7fotJK9t5p31w+2pa0fLVPDXu4ZLsySems1eUPJ2eJ+IkRIKtvwBw8kD2Es3T+rB7lqBcQErBs7lFff0ANeWr3xk5ZDl7YYMJKx4B4CZZ4yUYpwxAdhtKUtg+EJryNez2TRK5l1HgvNnzwXfEAeBD2cxi9wwdz+KVVv4yteSr7Jf1HA8V7Uh3ALidbTN2nUfe5VIx+Yn1yn2Dw4GifYsFC3wB4A62xeBM39Qze3q6J73nvuXp5C1rpDsA3ME2GPvfa+KzA9nV5krSp2Uu3eYb3BaGGwHgV9i63sv27JFOCtxy/k7UOfeXt/lm7wcx1Tabpd3BR/dEklDYA8BJ02DLHqtpxnEel9GxuUWS/wkd96JRSXfOn1BtPW5afSeJXEn3UGjPE+YlAeAknm3JZFp5N9ovQ3834VLDFl7m14t2Sqy9j0htnEeKjaX+W2EA0Dk/W9USTJN1etiN1fTG14dm8qK9jry+6cZX052zdx+skwGAC62jVY3BVLDMg/1pMd2pDM1kRXurUBiqbB94T84h3QHgemE8OCzj4+4ro+lOaWgmL9rbRVbCXUxzujPmJQHgTWSxqtmXmzG50fSnZWjm0MaBpIS7+tuz74muk5uFAPBXsPkWrW7Kq0iZFmvtB4V7dWimvWjXm+de/0wg6mnUhKPYAHCxbVfBZpRt74bjONiS2bwfJ4n/2LuD1jSCMAzALyPp/oG5Djuwp2Wv+xs8elhBPPXkSVOIEughh9xElLpBJFADgcRSUu2lSkOTQKGH+Luqu2N349Td7dS1aTvPqVtHd3J5HT5nv5H2hCtvmqFKxy/JFRTrQDAyPc7ERezrpbumaTsVXx+m9CCwoj2Pz+HBJ9eQ1s3qm2YoFy+oMjd/uDVotnsnnSX1Vzw+pml/v9Hz2+D3+2JLTFZIUbaAI6dcSPeCIm+u3NdFfdOMTL00Q7m4zNakJizl6LqMpv05Hpnj3xOLELOQqvyikImDvNHMzV3kTTP5MBgEyti2aJdF5Rq9G1LT/gyPzJA77wT7FYsQs7ArReSOZ2zLKKNcIbgzvcdMLQbJeGK4P79HfTXtX7TgyN18hj2RV+68sBu2iXxtK1NbjCp8MaTjLlyFLe+Zuga7Otw17b9w9yfCnUI+FbtcVkz2/dSJWUIXr3Turx3BIecvTy7NZG8Ib0CXZTRtb8yy7z65tKUGIrbPEEMdz5Kutw2G5RURQ4seh0B7M0Rc36ZbphUN2fjwI+8AoaLnIJ1YHkrhbsP65Xh/UbQo9oP96qEZikdwWO5PF/vbK/ec/sqNDJr8x+hnVDVtdwYPZKlRG2GFTb+RpYcuwDpdBPz7NiHjYx8rV6/g3S6vyacLCN59a3ndOqbSYNb5YFV6q4+fMITKq9fJQ/Bm56xFWp1O5w4rozel5cCPpjStyGI1pF89QeDqAfYdIWQIwL1plPqk0VnqIonIdincHdEOOLOyw7E/NGunRkHtCA5Ot1RyEir3Fk2Kdnms3gqpafsxLH299rzFPIxb67E9vPIL3coIYGQQhm7rsGkXm68aHpZOSXd83/X8q2PyHoGL/ttBwR9Nh/JgRqad5Yv250n/GIHr8cPA869rpEYBq9ns15rN5gJLU3K8cPxp660rT0v4Qs5Ofe/ikVxi5bTv9M4W3sID2GP9lMGvlO5PvCMkidUxbGm/C80a7y8PjrBfRsZUhnJjMMul227HE5PbzRjtRjBQP8SkaXvhkCli7noehHW4HzRuGZasT4dhuPcHCHxtBQE3Kt1AkAYzUvpKsTIgIyz57dvwuim24oxnCF2R11j5MB6KaUm66/+slEbhVO6GCM3afhj/bQsZyeEuur2nsi2GvTPTjzRV7+Yrl1fk0EVSaSZrtAtMb3PXtLyNyAkip+QKm+FeafDoxSBREfLIAkuHjxDkwYw03HVx/QZLtR5H6F2bPwn3hypCwzYPpyWpr+9Mvz2G9/jE1u+uIcBLA8Vw5xBYMbnMzrEFL5ZXwY98UEPlXFPqKhzBIRdOzJRvGINljXaB64W7puXMIXNE7h6wGe60VUGItoZBog4gjN8D+ExOIciDGalBqB4DYOMbCD65jIf7Z9LF+l/XYlobRmQB4ZL4wVRmEFrr4Y05MisXYky1bu9y75mXDELe6S7jVGnRztJ+vzVTi+pZo12ghm75q2k5Oy/NGNZaQyncP0ThfXgXJOpnCI0ZgNelIwjyYBbF7+3q+iTKZ9Rr8XB/Tcwft30dTSvuS4lBsMkgmMoIQl1MnJWmimdlm1m7vReZnIQvn9TjKXJBs0S1xRQW7TJ3W7mEcqVol7i6KKNpOaOTfuPGQ8Ail1K4N0llLtQfg0T1ITS+AHjXwZo8mEUfeFsNXvexVn0TD/d34/laaRJNK+48dqfx/OlUaq+oKMt7iuF+pNjt3XTKe3telfHM+9QpN5QW7YK5PXbN34l2fcyepu2RM+mQN9dhqaQphfslOXy7dh4kqh2FexCrEOTB4iOicL8kFtbODuPhXhu//eF9fFrCxp0aw6dTKbRrFoCT3jkUwx0beFo7YHHeXn5dxNQ3vnDXUvgRNaEmrt6KzHAzbr23dE1G03KwqJJ7BjhkIIX7BbERkcP9vA5BGiyHe5fYW1bu5/Xt0xIqdWnlbmPtqtN6c/vQrzBkZiaGO16kdHtPaARsIkcuP9gVEyrhDsoVoj35i8owdbZrWj4G5CNA+xMpma/IKDHcJ30GQRoshftJbDfOp/t4uE/GdOu0hC/RnRxyuRHu1puvs9mFA+ws3IuFRCL79x3uIlx3Hu6UG/GENZJ3sWQt5yOFa1rLYZwzHe2alptaL9jWKCWzWZonhvt1lNfSYCncWWsS22AfD/drMto2LSH+zXBBChvhXh0iG9uEYCYfk2cV0uQf7pQxmlqdUWduVsANumWbu0IfYUPX0DXtWZi1AEzJZymZz+osKdxZ7wyCNFgKd9Q6LkKTvoOl1o0Y2bjfPi2hfgvh8dvGVExygmyCIzgCB8nhTgvKdlpf5ww/w/gOw51t7Eak0jh5cjraNe1ZYwixwyoAs/7K2UzmD/3zpHDHezKFIA2Wwt1uf0Vg1B9i5VsVoffkYuu0+GURS931p83I6cZU0Lv3LMtykSpsC0PlvmESu6CoiF2gVkrvGMqNXYU731ikM2mcjBk62r+3d/++TQNRHMCfbLn+B956upNusrz6b8iYgSyZMjHxQwoIiSEDG0JUbRFCDKmE1BQhKEytWhWQKrH074KEprh+PvvqXEKH72cDLsFi+PL6fPcO4A57f7Y/UJw/eXQ4WYTzw+0POel7z2f/knm/v/NCE+/tv4nrwp0+RvcnivPZZ7FYhju93h0eKNo7OhwqmjuJPo3JqsXXXEwUqfjrd/FYJ9EPmvvc//iF1en96Iiq4T55Gs29HF5Ss+ULUVWdGyYkcTdbigLgtH12DBfpSldwaHkeNa0Ld7Vcp3TBtMQWg3sB7q7Xv6K5/vALLfTuH0b9KNp+UUrmybAf7UbRwwtbG+60/ziK+lH/jVgswn3x5/PFD88VLaizqL8bxVdfM//kgxPxWMfRxfXf9Mfj1+KHiONXHz/8mUC2f/4zeuu5/7HXawl31THbxxRCOYfDdGdswTK0RZY3bHMv0sr+Sec0AhxHArgD7GT2YqLpmjqdTQfVNdPZZI/csoPZqfVdnExncfmzs8us9DV5zWOpS01X9g4O9kg43+7RX7yzTY1ucQnqIC4bxD4GOVMI7H0xR+FZtHNDRd4S7kxzhZwSUOBGJQBYp5fnpXNUtku4JyTlcZluHwc8yscUgDs2jVplMJgMd7nz0Ti3uXNljfg+nEkCgMCy0svYT1HRJdw1SeNK/LOI9/Xdt6eds2O6DwZzh7uu/JZNymz1ibj8ObRmAGBdTP+IlnYeUYhwl4dURy3jgAeGAtJNs2M6FO314S46/Ma9zd04dtk44dApAKzq7OmEFuzF7jRcuN+McqaWeM80BVO0lOLsW7T7DXsknZZ2MIpt7q5wb71Uz5tS2hiNah8AbrDDaOfd8fm74eHjKXUKdxLE8DBLC3rUEO9jCoSTRn5Fu2b/YY+klGqc5m7k5zjAIVVWWpsUI90BoN7025ud4bOjKVPAcOe4LPOZS9BTFIZJVmU8J/lKSi4rV/2p/0Ydw83FusXxJwDwEzLcKatbw3GjnINevNSdag13Epr+DzDijJJJWqVMAqviqljHdUwAsN5wH5Agi3RDf43iRqO7ke6WQoU73xxGWdCS1xPqamc9uYaLVAEgmF5cJyNBHlLtec4lyCiM1UY/Ft3D3TiWFcYYzbTEiRfDolhvhNIdALpQvS3/PB7VlfcqbmEpDC66x3vKncOdxTZ3r9a80U0jbSRMpgGAoOoOI7lyLq+9Z3WwltI97GRfTd3CnZX17ZPoaiirNLkFjC4AgNDYVvKZSZKHVHMR+fUG1FHAiznYp98ik9347niR38buO6JQuQPAptisrXCXRfpI3OHkQPS/a3fjE8cy2f0nCcj3qe0X8KHnDgAboLNyRe7Vl1F1cwm2RqIts+my3Ypbs5V3uMtk9yzeubJGNOy7sQQAEOLdaqbJzYjWvNxyI5o8+WaLdqPEvsnUp5FiRbI7pap1QoIOdH03RhAAQABqTE6ySM9ccwnsVoirmLpP8y38+tZG1Noi2f2Ld+MKZZXidSoA3HVZXMauuQTlHTiGVnbbwWBW7IP0C3eZ7P6DYqyjVd7cmsG92gCwSayNMVpxyyFVWxf5WzTH+dWv9MaOp2p2XJphyKst40h2zymPTY0g3SnZTYGXqQAQkkrddx15HFI1tMBJlvUsbSzbjXPKGK9pGplm9xEm+S/qzxpdKAQ7AITF1tX0lUW6Yy5BYOZ2G8LZ99iRTVaUKucRpk59pdQYjVQHgNX9BmQkjdGcc5HsAAAAAElFTkSuQmCC;" vertex="1" parent="7">
                    <mxGeometry x="470" y="110" width="280.02" height="186.68" as="geometry"/>
                </mxCell>
                <mxCell id="13" value="Fahrenheit to Celsuis, with JS" style="whiteSpace=wrap;html=1;strokeColor=#0e8088;fillColor=#b0e3e6;fontSize=21;" vertex="1" parent="7">
                    <mxGeometry x="10" y="30" width="740" height="60" as="geometry"/>
                </mxCell>
                <mxCell id="14" value="&lt;div style=&quot;text-align: left;&quot;&gt;&lt;span style=&quot;color: rgb(0, 0, 0); background-color: initial;&quot;&gt;Fo&lt;/span&gt;&lt;font style=&quot;color: rgb(0, 0, 0); background-color: initial;&quot;&gt;rmula:&lt;/font&gt;&lt;/div&gt;&lt;span style=&quot;font-family: arial, sans-serif; text-align: left;&quot;&gt;&lt;font style=&quot;font-size: 21px;&quot; color=&quot;#000000&quot;&gt;°C =&amp;nbsp;&lt;/font&gt;&lt;/span&gt;&lt;span style=&quot;color: rgb(0, 0, 0); font-family: arial, sans-serif; text-align: left;&quot;&gt;°F - 32 x 5/9&lt;/span&gt;&lt;font color=&quot;#000000&quot;&gt;&lt;br&gt;&lt;/font&gt;" style="text;html=1;align=center;verticalAlign=middle;resizable=0;points=[];autosize=1;strokeColor=none;fillColor=none;fontSize=21;" vertex="1" parent="7">
                    <mxGeometry x="20" y="110" width="190" height="60" as="geometry"/>
                </mxCell>
                <mxCell id="15" value="Please enter temperature (&lt;span style=&quot;font-family: arial, sans-serif; text-align: left;&quot;&gt;°F)&lt;/span&gt;" style="text;html=1;align=center;verticalAlign=middle;resizable=0;points=[];autosize=1;strokeColor=none;fillColor=none;fontSize=21;fontColor=#000000;" vertex="1" parent="7">
                    <mxGeometry x="20" y="190" width="310" height="40" as="geometry"/>
                </mxCell>
                <mxCell id="16" value="Temperature:" style="text;html=1;align=center;verticalAlign=middle;resizable=0;points=[];autosize=1;strokeColor=none;fillColor=none;fontSize=21;fontColor=#000000;" vertex="1" parent="7">
                    <mxGeometry y="280" width="150" height="40" as="geometry"/>
                </mxCell>
                <mxCell id="17" value="" style="rounded=1;whiteSpace=wrap;html=1;labelBackgroundColor=none;strokeColor=#000000;fontSize=21;fontColor=#000000;fillColor=#FFFFFF;" vertex="1" parent="7">
                    <mxGeometry x="150" y="285" width="130" height="30" as="geometry"/>
                </mxCell>
                <mxCell id="18" value="&lt;span style=&quot;font-family: arial, sans-serif; text-align: left;&quot;&gt;°F&lt;/span&gt;" style="text;html=1;align=center;verticalAlign=middle;resizable=0;points=[];autosize=1;strokeColor=none;fillColor=none;fontSize=21;fontColor=#000000;" vertex="1" parent="7">
                    <mxGeometry x="275" y="275" width="40" height="40" as="geometry"/>
                </mxCell>
                <mxCell id="19" value="Calculate" style="rounded=1;whiteSpace=wrap;html=1;labelBackgroundColor=none;strokeColor=#000000;fontSize=21;fontColor=#000000;fillColor=#FFFFFF;" vertex="1" parent="7">
                    <mxGeometry x="10" y="350" width="150" height="40" as="geometry"/>
                </mxCell>
                <mxCell id="20" value="Temperature is : 32&lt;span style=&quot;font-family: arial, sans-serif; text-align: left;&quot;&gt;°C&lt;/span&gt;" style="text;html=1;align=center;verticalAlign=middle;resizable=0;points=[];autosize=1;strokeColor=none;fillColor=none;fontSize=21;fontColor=#000000;" vertex="1" parent="7">
                    <mxGeometry x="10" y="420" width="230" height="40" as="geometry"/>
                </mxCell>
                <mxCell id="12" style="edgeStyle=none;html=1;exitX=0;exitY=1;exitDx=0;exitDy=0;" edge="1" parent="1" source="10">
                    <mxGeometry relative="1" as="geometry">
                        <mxPoint x="530" y="280" as="targetPoint"/>
                    </mxGeometry>
                </mxCell>
            </root>
        </mxGraphModel>
    </diagram>
</mxfile>